%TF.GenerationSoftware,KiCad,Pcbnew,7.0.2*%
%TF.CreationDate,2023-05-24T20:20:14+03:00*%
%TF.ProjectId,Slimmeri_GD32,536c696d-6d65-4726-995f-474433322e6b,rev?*%
%TF.SameCoordinates,Original*%
%TF.FileFunction,Legend,Top*%
%TF.FilePolarity,Positive*%
%FSLAX46Y46*%
G04 Gerber Fmt 4.6, Leading zero omitted, Abs format (unit mm)*
G04 Created by KiCad (PCBNEW 7.0.2) date 2023-05-24 20:20:14*
%MOMM*%
%LPD*%
G01*
G04 APERTURE LIST*
%ADD10C,0.150000*%
%ADD11C,0.120000*%
%ADD12C,0.200000*%
%ADD13C,0.127000*%
G04 APERTURE END LIST*
D10*
X119435714Y-89705238D02*
X120673809Y-89705238D01*
X120673809Y-89705238D02*
X120007142Y-90467142D01*
X120007142Y-90467142D02*
X120292857Y-90467142D01*
X120292857Y-90467142D02*
X120483333Y-90562380D01*
X120483333Y-90562380D02*
X120578571Y-90657619D01*
X120578571Y-90657619D02*
X120673809Y-90848095D01*
X120673809Y-90848095D02*
X120673809Y-91324285D01*
X120673809Y-91324285D02*
X120578571Y-91514761D01*
X120578571Y-91514761D02*
X120483333Y-91610000D01*
X120483333Y-91610000D02*
X120292857Y-91705238D01*
X120292857Y-91705238D02*
X119721428Y-91705238D01*
X119721428Y-91705238D02*
X119530952Y-91610000D01*
X119530952Y-91610000D02*
X119435714Y-91514761D01*
X150530952Y-58645714D02*
X150626190Y-58550476D01*
X150626190Y-58550476D02*
X150816666Y-58455238D01*
X150816666Y-58455238D02*
X151292857Y-58455238D01*
X151292857Y-58455238D02*
X151483333Y-58550476D01*
X151483333Y-58550476D02*
X151578571Y-58645714D01*
X151578571Y-58645714D02*
X151673809Y-58836190D01*
X151673809Y-58836190D02*
X151673809Y-59026666D01*
X151673809Y-59026666D02*
X151578571Y-59312380D01*
X151578571Y-59312380D02*
X150435714Y-60455238D01*
X150435714Y-60455238D02*
X151673809Y-60455238D01*
X151423809Y-91555238D02*
X150280952Y-91555238D01*
X150852380Y-91555238D02*
X150852380Y-89555238D01*
X150852380Y-89555238D02*
X150661904Y-89840952D01*
X150661904Y-89840952D02*
X150471428Y-90031428D01*
X150471428Y-90031428D02*
X150280952Y-90126666D01*
X120283333Y-59021904D02*
X120283333Y-60355238D01*
X119807142Y-58260000D02*
X119330952Y-59688571D01*
X119330952Y-59688571D02*
X120569047Y-59688571D01*
D11*
%TO.C,TP8*%
X131975000Y-82025000D02*
G75*
G03*
X131975000Y-82025000I-700000J0D01*
G01*
%TO.C,TP7*%
X132000000Y-80025000D02*
G75*
G03*
X132000000Y-80025000I-700000J0D01*
G01*
%TO.C,TP6*%
X132450000Y-64175000D02*
G75*
G03*
X132450000Y-64175000I-700000J0D01*
G01*
%TO.C,TP5*%
X131925000Y-62175000D02*
G75*
G03*
X131925000Y-62175000I-700000J0D01*
G01*
%TO.C,TP4*%
X140350000Y-66925000D02*
G75*
G03*
X140350000Y-66925000I-700000J0D01*
G01*
%TO.C,TP3*%
X140275000Y-68450000D02*
G75*
G03*
X140275000Y-68450000I-700000J0D01*
G01*
%TO.C,TP2*%
X140500000Y-85300000D02*
G75*
G03*
X140500000Y-85300000I-700000J0D01*
G01*
%TO.C,TP1*%
X140525000Y-86850000D02*
G75*
G03*
X140525000Y-86850000I-700000J0D01*
G01*
%TO.C,RN24*%
X137455000Y-55925000D02*
X137455000Y-56425000D01*
X135895000Y-55925000D02*
X135895000Y-56425000D01*
%TO.C,RN8*%
X135070000Y-91975000D02*
X135070000Y-91475000D01*
X136630000Y-91975000D02*
X136630000Y-91475000D01*
D12*
%TO.C,Q14*%
X145350000Y-71725000D02*
G75*
G03*
X145350000Y-71725000I-100000J0D01*
G01*
D13*
X145650000Y-74750000D02*
X145650000Y-74605000D01*
X148950000Y-74750000D02*
X145650000Y-74750000D01*
X148950000Y-74605000D02*
X148950000Y-74750000D01*
X145650000Y-71595000D02*
X145650000Y-71450000D01*
X145650000Y-71450000D02*
X148950000Y-71450000D01*
X148950000Y-71450000D02*
X148950000Y-71595000D01*
D11*
%TO.C,C63*%
X126115000Y-80138748D02*
X126115000Y-81561252D01*
X127935000Y-80138748D02*
X127935000Y-81561252D01*
D12*
%TO.C,Q10*%
X125862500Y-70725000D02*
G75*
G03*
X125862500Y-70725000I-100000J0D01*
G01*
D13*
X125362500Y-67700000D02*
X125362500Y-67845000D01*
X122062500Y-67700000D02*
X125362500Y-67700000D01*
X122062500Y-67845000D02*
X122062500Y-67700000D01*
X125362500Y-70855000D02*
X125362500Y-71000000D01*
X125362500Y-71000000D02*
X122062500Y-71000000D01*
X122062500Y-71000000D02*
X122062500Y-70855000D01*
D11*
%TO.C,RN14*%
X132125000Y-70195000D02*
X132625000Y-70195000D01*
X132125000Y-71755000D02*
X132625000Y-71755000D01*
D12*
%TO.C,Q18*%
X145375000Y-59350000D02*
G75*
G03*
X145375000Y-59350000I-100000J0D01*
G01*
D13*
X145675000Y-62375000D02*
X145675000Y-62230000D01*
X148975000Y-62375000D02*
X145675000Y-62375000D01*
X148975000Y-62230000D02*
X148975000Y-62375000D01*
X145675000Y-59220000D02*
X145675000Y-59075000D01*
X145675000Y-59075000D02*
X148975000Y-59075000D01*
X148975000Y-59075000D02*
X148975000Y-59220000D01*
D11*
%TO.C,C32*%
X133640580Y-83040000D02*
X133359420Y-83040000D01*
X133640580Y-84060000D02*
X133359420Y-84060000D01*
%TO.C,C15*%
X131910000Y-58445336D02*
X131910000Y-58229664D01*
X131190000Y-58445336D02*
X131190000Y-58229664D01*
%TO.C,C57*%
X126115000Y-69861252D02*
X126115000Y-68438748D01*
X127935000Y-69861252D02*
X127935000Y-68438748D01*
%TO.C,C64*%
X127935000Y-77661252D02*
X127935000Y-76238748D01*
X126115000Y-77661252D02*
X126115000Y-76238748D01*
%TO.C,C49*%
X143065000Y-72338748D02*
X143065000Y-73761252D01*
X144885000Y-72338748D02*
X144885000Y-73761252D01*
%TO.C,C16*%
X138690000Y-60542164D02*
X138690000Y-60757836D01*
X139410000Y-60542164D02*
X139410000Y-60757836D01*
%TO.C,RN28*%
X132719503Y-73925000D02*
X132719503Y-74425000D01*
X134279503Y-73925000D02*
X134279503Y-74425000D01*
%TO.C,U1*%
X138210000Y-89560000D02*
X138210000Y-89010000D01*
X138210000Y-85340000D02*
X138210000Y-85890000D01*
X137660000Y-89560000D02*
X138210000Y-89560000D01*
X137660000Y-85340000D02*
X138210000Y-85340000D01*
X134540000Y-89560000D02*
X133990000Y-89560000D01*
X134540000Y-85340000D02*
X133990000Y-85340000D01*
X133990000Y-89560000D02*
X133990000Y-89010000D01*
%TO.C,C5*%
X138815000Y-71542164D02*
X138815000Y-71757836D01*
X139535000Y-71542164D02*
X139535000Y-71757836D01*
%TO.C,C1*%
X138865000Y-90042164D02*
X138865000Y-90257836D01*
X139585000Y-90042164D02*
X139585000Y-90257836D01*
%TO.C,C4*%
X132485000Y-87432836D02*
X132485000Y-87217164D01*
X131765000Y-87432836D02*
X131765000Y-87217164D01*
%TO.C,RN4*%
X132200000Y-89782500D02*
X132700000Y-89782500D01*
X132200000Y-91342500D02*
X132700000Y-91342500D01*
%TO.C,C23*%
X131189503Y-76457836D02*
X131189503Y-76242164D01*
X131909503Y-76457836D02*
X131909503Y-76242164D01*
%TO.C,C52*%
X145711252Y-91540000D02*
X144288748Y-91540000D01*
X145711252Y-93360000D02*
X144288748Y-93360000D01*
%TO.C,C58*%
X127935000Y-72338748D02*
X127935000Y-73761252D01*
X126115000Y-72338748D02*
X126115000Y-73761252D01*
%TO.C,C30*%
X133640580Y-81565000D02*
X133359420Y-81565000D01*
X133640580Y-82585000D02*
X133359420Y-82585000D01*
%TO.C,C18*%
X138492164Y-62435000D02*
X138707836Y-62435000D01*
X138492164Y-61715000D02*
X138707836Y-61715000D01*
D12*
%TO.C,Q22*%
X145362500Y-79325000D02*
G75*
G03*
X145362500Y-79325000I-100000J0D01*
G01*
D13*
X145662500Y-82350000D02*
X145662500Y-82205000D01*
X148962500Y-82350000D02*
X145662500Y-82350000D01*
X148962500Y-82205000D02*
X148962500Y-82350000D01*
X145662500Y-79195000D02*
X145662500Y-79050000D01*
X145662500Y-79050000D02*
X148962500Y-79050000D01*
X148962500Y-79050000D02*
X148962500Y-79195000D01*
D11*
%TO.C,RN30*%
X138724503Y-77430000D02*
X138224503Y-77430000D01*
X138724503Y-75870000D02*
X138224503Y-75870000D01*
%TO.C,C68*%
X145736252Y-56690000D02*
X144313748Y-56690000D01*
X145736252Y-58510000D02*
X144313748Y-58510000D01*
%TO.C,C55*%
X143165000Y-88613748D02*
X143165000Y-90036252D01*
X144985000Y-88613748D02*
X144985000Y-90036252D01*
D12*
%TO.C,Q24*%
X145362500Y-75525000D02*
G75*
G03*
X145362500Y-75525000I-100000J0D01*
G01*
D13*
X145662500Y-78550000D02*
X145662500Y-78405000D01*
X148962500Y-78550000D02*
X145662500Y-78550000D01*
X148962500Y-78405000D02*
X148962500Y-78550000D01*
X145662500Y-75395000D02*
X145662500Y-75250000D01*
X145662500Y-75250000D02*
X148962500Y-75250000D01*
X148962500Y-75250000D02*
X148962500Y-75395000D01*
D11*
%TO.C,C51*%
X125363748Y-93435000D02*
X126786252Y-93435000D01*
X125363748Y-91615000D02*
X126786252Y-91615000D01*
%TO.C,C48*%
X144885000Y-69861252D02*
X144885000Y-68438748D01*
X143065000Y-69861252D02*
X143065000Y-68438748D01*
D12*
%TO.C,Q16*%
X145325000Y-67975000D02*
G75*
G03*
X145325000Y-67975000I-100000J0D01*
G01*
D13*
X145625000Y-71000000D02*
X145625000Y-70855000D01*
X148925000Y-71000000D02*
X145625000Y-71000000D01*
X148925000Y-70855000D02*
X148925000Y-71000000D01*
X145625000Y-67845000D02*
X145625000Y-67700000D01*
X145625000Y-67700000D02*
X148925000Y-67700000D01*
X148925000Y-67700000D02*
X148925000Y-67845000D01*
D12*
%TO.C,Q20*%
X145337500Y-87925000D02*
G75*
G03*
X145337500Y-87925000I-100000J0D01*
G01*
D13*
X145637500Y-90950000D02*
X145637500Y-90805000D01*
X148937500Y-90950000D02*
X145637500Y-90950000D01*
X148937500Y-90805000D02*
X148937500Y-90950000D01*
X145637500Y-87795000D02*
X145637500Y-87650000D01*
X145637500Y-87650000D02*
X148937500Y-87650000D01*
X148937500Y-87650000D02*
X148937500Y-87795000D01*
D11*
%TO.C,C50*%
X143065000Y-80138748D02*
X143065000Y-81561252D01*
X144885000Y-80138748D02*
X144885000Y-81561252D01*
%TO.C,RN32*%
X135869503Y-73925000D02*
X135869503Y-74425000D01*
X137429503Y-73925000D02*
X137429503Y-74425000D01*
%TO.C,C25*%
X138266667Y-80310000D02*
X138482339Y-80310000D01*
X138266667Y-79590000D02*
X138482339Y-79590000D01*
%TO.C,RN6*%
X132200000Y-88232500D02*
X132700000Y-88232500D01*
X132200000Y-89792500D02*
X132700000Y-89792500D01*
%TO.C,RN7*%
X136670000Y-91975000D02*
X136670000Y-91475000D01*
X138230000Y-91975000D02*
X138230000Y-91475000D01*
%TO.C,C40*%
X125238748Y-58460000D02*
X126661252Y-58460000D01*
X125238748Y-56640000D02*
X126661252Y-56640000D01*
%TO.C,U9*%
X137925000Y-84410000D02*
X138725000Y-84410000D01*
X137925000Y-84410000D02*
X137125000Y-84410000D01*
X137925000Y-81290000D02*
X138725000Y-81290000D01*
X137925000Y-81290000D02*
X136125000Y-81290000D01*
D12*
%TO.C,Q4*%
X125850000Y-82075000D02*
G75*
G03*
X125850000Y-82075000I-100000J0D01*
G01*
D13*
X125350000Y-79050000D02*
X125350000Y-79195000D01*
X122050000Y-79050000D02*
X125350000Y-79050000D01*
X122050000Y-79195000D02*
X122050000Y-79050000D01*
X125350000Y-82205000D02*
X125350000Y-82350000D01*
X125350000Y-82350000D02*
X122050000Y-82350000D01*
X122050000Y-82350000D02*
X122050000Y-82205000D01*
D11*
%TO.C,RN29*%
X134294503Y-73925000D02*
X134294503Y-74425000D01*
X135854503Y-73925000D02*
X135854503Y-74425000D01*
%TO.C,C71*%
X144960000Y-61361252D02*
X144960000Y-59938748D01*
X143140000Y-61361252D02*
X143140000Y-59938748D01*
%TO.C,RN5*%
X133470000Y-91975000D02*
X133470000Y-91475000D01*
X135030000Y-91975000D02*
X135030000Y-91475000D01*
%TO.C,U3*%
X138160000Y-71460000D02*
X138160000Y-70910000D01*
X138160000Y-67240000D02*
X138160000Y-67790000D01*
X137610000Y-71460000D02*
X138160000Y-71460000D01*
X137610000Y-67240000D02*
X138160000Y-67240000D01*
X134490000Y-71460000D02*
X133940000Y-71460000D01*
X134490000Y-67240000D02*
X133940000Y-67240000D01*
X133940000Y-71460000D02*
X133940000Y-70910000D01*
%TO.C,U5*%
X132740000Y-58265000D02*
X132740000Y-58815000D01*
X132740000Y-62485000D02*
X132740000Y-61935000D01*
X133290000Y-58265000D02*
X132740000Y-58265000D01*
X133290000Y-62485000D02*
X132740000Y-62485000D01*
X136410000Y-58265000D02*
X136960000Y-58265000D01*
X136410000Y-62485000D02*
X136960000Y-62485000D01*
X136960000Y-58265000D02*
X136960000Y-58815000D01*
D13*
%TO.C,Q6*%
X122050000Y-90950000D02*
X122050000Y-90805000D01*
X125350000Y-90950000D02*
X122050000Y-90950000D01*
X125350000Y-90805000D02*
X125350000Y-90950000D01*
X122050000Y-87795000D02*
X122050000Y-87650000D01*
X122050000Y-87650000D02*
X125350000Y-87650000D01*
X125350000Y-87650000D02*
X125350000Y-87795000D01*
D12*
X125850000Y-90675000D02*
G75*
G03*
X125850000Y-90675000I-100000J0D01*
G01*
D11*
%TO.C,RN31*%
X138724503Y-75855000D02*
X138224503Y-75855000D01*
X138724503Y-74295000D02*
X138224503Y-74295000D01*
D12*
%TO.C,Q1*%
X125850000Y-78275000D02*
G75*
G03*
X125850000Y-78275000I-100000J0D01*
G01*
D13*
X125350000Y-75250000D02*
X125350000Y-75395000D01*
X122050000Y-75250000D02*
X125350000Y-75250000D01*
X122050000Y-75395000D02*
X122050000Y-75250000D01*
X125350000Y-78405000D02*
X125350000Y-78550000D01*
X125350000Y-78550000D02*
X122050000Y-78550000D01*
X122050000Y-78550000D02*
X122050000Y-78405000D01*
D11*
%TO.C,RN22*%
X138750000Y-59655000D02*
X138250000Y-59655000D01*
X138750000Y-58095000D02*
X138250000Y-58095000D01*
%TO.C,C8*%
X132407836Y-67465000D02*
X132192164Y-67465000D01*
X132407836Y-68185000D02*
X132192164Y-68185000D01*
%TO.C,RN21*%
X135880000Y-55925000D02*
X135880000Y-56425000D01*
X134320000Y-55925000D02*
X134320000Y-56425000D01*
%TO.C,C13*%
X132657836Y-85590000D02*
X132442164Y-85590000D01*
X132657836Y-86310000D02*
X132442164Y-86310000D01*
%TO.C,C38*%
X127835000Y-61386252D02*
X127835000Y-59963748D01*
X126015000Y-61386252D02*
X126015000Y-59963748D01*
D13*
%TO.C,Q8*%
X122012500Y-62325000D02*
X122012500Y-62180000D01*
X125312500Y-62325000D02*
X122012500Y-62325000D01*
X125312500Y-62180000D02*
X125312500Y-62325000D01*
X122012500Y-59170000D02*
X122012500Y-59025000D01*
X122012500Y-59025000D02*
X125312500Y-59025000D01*
X125312500Y-59025000D02*
X125312500Y-59170000D01*
D12*
X125812500Y-62050000D02*
G75*
G03*
X125812500Y-62050000I-100000J0D01*
G01*
D11*
%TO.C,C53*%
X125990000Y-88613748D02*
X125990000Y-90036252D01*
X127810000Y-88613748D02*
X127810000Y-90036252D01*
%TO.C,C6*%
X132210000Y-69332836D02*
X132210000Y-69117164D01*
X131490000Y-69332836D02*
X131490000Y-69117164D01*
D12*
%TO.C,Q12*%
X125850000Y-74400000D02*
G75*
G03*
X125850000Y-74400000I-100000J0D01*
G01*
D13*
X125350000Y-71375000D02*
X125350000Y-71520000D01*
X122050000Y-71375000D02*
X125350000Y-71375000D01*
X122050000Y-71520000D02*
X122050000Y-71375000D01*
X125350000Y-74530000D02*
X125350000Y-74675000D01*
X125350000Y-74675000D02*
X122050000Y-74675000D01*
X122050000Y-74675000D02*
X122050000Y-74530000D01*
D11*
%TO.C,RN20*%
X134305000Y-55925000D02*
X134305000Y-56425000D01*
X132745000Y-55925000D02*
X132745000Y-56425000D01*
%TO.C,RN23*%
X138750000Y-58080000D02*
X138250000Y-58080000D01*
X138750000Y-56520000D02*
X138250000Y-56520000D01*
%TO.C,C22*%
X138614503Y-78317164D02*
X138614503Y-78532836D01*
X139334503Y-78317164D02*
X139334503Y-78532836D01*
%TO.C,U7*%
X132690000Y-76215000D02*
X132690000Y-76765000D01*
X132690000Y-80435000D02*
X132690000Y-79885000D01*
X133240000Y-76215000D02*
X132690000Y-76215000D01*
X133240000Y-80435000D02*
X132690000Y-80435000D01*
X136360000Y-76215000D02*
X136910000Y-76215000D01*
X136360000Y-80435000D02*
X136910000Y-80435000D01*
X136910000Y-76215000D02*
X136910000Y-76765000D01*
%TO.C,C43*%
X144885000Y-77661252D02*
X144885000Y-76238748D01*
X143065000Y-77661252D02*
X143065000Y-76238748D01*
%TO.C,C31*%
X134035000Y-65109420D02*
X134035000Y-65390580D01*
X133015000Y-65109420D02*
X133015000Y-65390580D01*
%TO.C,C29*%
X140135000Y-64584420D02*
X140135000Y-64865580D01*
X139115000Y-64584420D02*
X139115000Y-64865580D01*
%TO.C,U11*%
X136400000Y-63365000D02*
X137200000Y-63365000D01*
X136400000Y-63365000D02*
X134600000Y-63365000D01*
X136400000Y-66485000D02*
X137200000Y-66485000D01*
X136400000Y-66485000D02*
X135600000Y-66485000D01*
%TD*%
M02*
