%TF.GenerationSoftware,KiCad,Pcbnew,7.0.2*%
%TF.CreationDate,2023-05-24T20:20:14+03:00*%
%TF.ProjectId,Slimmeri_GD32,536c696d-6d65-4726-995f-474433322e6b,rev?*%
%TF.SameCoordinates,Original*%
%TF.FileFunction,Paste,Top*%
%TF.FilePolarity,Positive*%
%FSLAX46Y46*%
G04 Gerber Fmt 4.6, Leading zero omitted, Abs format (unit mm)*
G04 Created by KiCad (PCBNEW 7.0.2) date 2023-05-24 20:20:14*
%MOMM*%
%LPD*%
G01*
G04 APERTURE LIST*
G04 Aperture macros list*
%AMRoundRect*
0 Rectangle with rounded corners*
0 $1 Rounding radius*
0 $2 $3 $4 $5 $6 $7 $8 $9 X,Y pos of 4 corners*
0 Add a 4 corners polygon primitive as box body*
4,1,4,$2,$3,$4,$5,$6,$7,$8,$9,$2,$3,0*
0 Add four circle primitives for the rounded corners*
1,1,$1+$1,$2,$3*
1,1,$1+$1,$4,$5*
1,1,$1+$1,$6,$7*
1,1,$1+$1,$8,$9*
0 Add four rect primitives between the rounded corners*
20,1,$1+$1,$2,$3,$4,$5,0*
20,1,$1+$1,$4,$5,$6,$7,0*
20,1,$1+$1,$6,$7,$8,$9,0*
20,1,$1+$1,$8,$9,$2,$3,0*%
G04 Aperture macros list end*
%ADD10C,0.010000*%
%ADD11C,0.120000*%
%ADD12R,0.400000X0.500000*%
%ADD13R,0.700000X0.420000*%
%ADD14RoundRect,0.250000X-0.650000X0.325000X-0.650000X-0.325000X0.650000X-0.325000X0.650000X0.325000X0*%
%ADD15R,0.500000X0.400000*%
%ADD16RoundRect,0.225000X0.225000X0.250000X-0.225000X0.250000X-0.225000X-0.250000X0.225000X-0.250000X0*%
%ADD17RoundRect,0.140000X0.170000X-0.140000X0.170000X0.140000X-0.170000X0.140000X-0.170000X-0.140000X0*%
%ADD18RoundRect,0.250000X0.650000X-0.325000X0.650000X0.325000X-0.650000X0.325000X-0.650000X-0.325000X0*%
%ADD19RoundRect,0.140000X-0.170000X0.140000X-0.170000X-0.140000X0.170000X-0.140000X0.170000X0.140000X0*%
%ADD20RoundRect,0.050000X-0.050000X-0.387500X0.050000X-0.387500X0.050000X0.387500X-0.050000X0.387500X0*%
%ADD21RoundRect,0.050000X-0.387500X-0.050000X0.387500X-0.050000X0.387500X0.050000X-0.387500X0.050000X0*%
%ADD22RoundRect,0.250000X-0.275000X-0.275000X0.275000X-0.275000X0.275000X0.275000X-0.275000X0.275000X0*%
%ADD23RoundRect,0.250000X0.325000X0.650000X-0.325000X0.650000X-0.325000X-0.650000X0.325000X-0.650000X0*%
%ADD24RoundRect,0.140000X-0.140000X-0.170000X0.140000X-0.170000X0.140000X0.170000X-0.140000X0.170000X0*%
%ADD25RoundRect,0.250000X-0.325000X-0.650000X0.325000X-0.650000X0.325000X0.650000X-0.325000X0.650000X0*%
%ADD26RoundRect,0.150000X-0.512500X-0.150000X0.512500X-0.150000X0.512500X0.150000X-0.512500X0.150000X0*%
%ADD27RoundRect,0.050000X0.050000X0.387500X-0.050000X0.387500X-0.050000X-0.387500X0.050000X-0.387500X0*%
%ADD28RoundRect,0.050000X0.387500X0.050000X-0.387500X0.050000X-0.387500X-0.050000X0.387500X-0.050000X0*%
%ADD29RoundRect,0.250000X0.275000X0.275000X-0.275000X0.275000X-0.275000X-0.275000X0.275000X-0.275000X0*%
%ADD30RoundRect,0.140000X0.140000X0.170000X-0.140000X0.170000X-0.140000X-0.170000X0.140000X-0.170000X0*%
%ADD31RoundRect,0.225000X-0.250000X0.225000X-0.250000X-0.225000X0.250000X-0.225000X0.250000X0.225000X0*%
G04 APERTURE END LIST*
%TO.C,Q14*%
D10*
X149050000Y-72335000D02*
X148600000Y-72335000D01*
X148600000Y-72565000D01*
X149050000Y-72565000D01*
X149050000Y-72985000D01*
X148600000Y-72985000D01*
X148600000Y-73215000D01*
X149050000Y-73215000D01*
X149050000Y-73635000D01*
X148600000Y-73635000D01*
X148600000Y-73865000D01*
X149050000Y-73865000D01*
X149050000Y-74285000D01*
X146900000Y-74285000D01*
X146900000Y-71915000D01*
X149050000Y-71915000D01*
X149050000Y-72335000D01*
G36*
X149050000Y-72335000D02*
G01*
X148600000Y-72335000D01*
X148600000Y-72565000D01*
X149050000Y-72565000D01*
X149050000Y-72985000D01*
X148600000Y-72985000D01*
X148600000Y-73215000D01*
X149050000Y-73215000D01*
X149050000Y-73635000D01*
X148600000Y-73635000D01*
X148600000Y-73865000D01*
X149050000Y-73865000D01*
X149050000Y-74285000D01*
X146900000Y-74285000D01*
X146900000Y-71915000D01*
X149050000Y-71915000D01*
X149050000Y-72335000D01*
G37*
%TO.C,Q10*%
X124112500Y-70535000D02*
X121962500Y-70535000D01*
X121962500Y-70115000D01*
X122412500Y-70115000D01*
X122412500Y-69885000D01*
X121962500Y-69885000D01*
X121962500Y-69465000D01*
X122412500Y-69465000D01*
X122412500Y-69235000D01*
X121962500Y-69235000D01*
X121962500Y-68815000D01*
X122412500Y-68815000D01*
X122412500Y-68585000D01*
X121962500Y-68585000D01*
X121962500Y-68165000D01*
X124112500Y-68165000D01*
X124112500Y-70535000D01*
G36*
X124112500Y-70535000D02*
G01*
X121962500Y-70535000D01*
X121962500Y-70115000D01*
X122412500Y-70115000D01*
X122412500Y-69885000D01*
X121962500Y-69885000D01*
X121962500Y-69465000D01*
X122412500Y-69465000D01*
X122412500Y-69235000D01*
X121962500Y-69235000D01*
X121962500Y-68815000D01*
X122412500Y-68815000D01*
X122412500Y-68585000D01*
X121962500Y-68585000D01*
X121962500Y-68165000D01*
X124112500Y-68165000D01*
X124112500Y-70535000D01*
G37*
%TO.C,Q18*%
X149075000Y-59960000D02*
X148625000Y-59960000D01*
X148625000Y-60190000D01*
X149075000Y-60190000D01*
X149075000Y-60610000D01*
X148625000Y-60610000D01*
X148625000Y-60840000D01*
X149075000Y-60840000D01*
X149075000Y-61260000D01*
X148625000Y-61260000D01*
X148625000Y-61490000D01*
X149075000Y-61490000D01*
X149075000Y-61910000D01*
X146925000Y-61910000D01*
X146925000Y-59540000D01*
X149075000Y-59540000D01*
X149075000Y-59960000D01*
G36*
X149075000Y-59960000D02*
G01*
X148625000Y-59960000D01*
X148625000Y-60190000D01*
X149075000Y-60190000D01*
X149075000Y-60610000D01*
X148625000Y-60610000D01*
X148625000Y-60840000D01*
X149075000Y-60840000D01*
X149075000Y-61260000D01*
X148625000Y-61260000D01*
X148625000Y-61490000D01*
X149075000Y-61490000D01*
X149075000Y-61910000D01*
X146925000Y-61910000D01*
X146925000Y-59540000D01*
X149075000Y-59540000D01*
X149075000Y-59960000D01*
G37*
%TO.C,Q22*%
X149062500Y-79935000D02*
X148612500Y-79935000D01*
X148612500Y-80165000D01*
X149062500Y-80165000D01*
X149062500Y-80585000D01*
X148612500Y-80585000D01*
X148612500Y-80815000D01*
X149062500Y-80815000D01*
X149062500Y-81235000D01*
X148612500Y-81235000D01*
X148612500Y-81465000D01*
X149062500Y-81465000D01*
X149062500Y-81885000D01*
X146912500Y-81885000D01*
X146912500Y-79515000D01*
X149062500Y-79515000D01*
X149062500Y-79935000D01*
G36*
X149062500Y-79935000D02*
G01*
X148612500Y-79935000D01*
X148612500Y-80165000D01*
X149062500Y-80165000D01*
X149062500Y-80585000D01*
X148612500Y-80585000D01*
X148612500Y-80815000D01*
X149062500Y-80815000D01*
X149062500Y-81235000D01*
X148612500Y-81235000D01*
X148612500Y-81465000D01*
X149062500Y-81465000D01*
X149062500Y-81885000D01*
X146912500Y-81885000D01*
X146912500Y-79515000D01*
X149062500Y-79515000D01*
X149062500Y-79935000D01*
G37*
D11*
%TO.C,TP11*%
X128850000Y-57700000D02*
X129650000Y-57700000D01*
X129650000Y-57700000D02*
X129650000Y-58500000D01*
X129650000Y-58500000D02*
X128850000Y-58500000D01*
X128850000Y-58500000D02*
X128850000Y-57700000D01*
G36*
X128850000Y-57700000D02*
G01*
X129650000Y-57700000D01*
X129650000Y-58500000D01*
X128850000Y-58500000D01*
X128850000Y-57700000D01*
G37*
X128850000Y-58950000D02*
X129650000Y-58950000D01*
X129650000Y-58950000D02*
X129650000Y-59750000D01*
X129650000Y-59750000D02*
X128850000Y-59750000D01*
X128850000Y-59750000D02*
X128850000Y-58950000D01*
G36*
X128850000Y-58950000D02*
G01*
X129650000Y-58950000D01*
X129650000Y-59750000D01*
X128850000Y-59750000D01*
X128850000Y-58950000D01*
G37*
X128850000Y-60200000D02*
X129650000Y-60200000D01*
X129650000Y-60200000D02*
X129650000Y-61000000D01*
X129650000Y-61000000D02*
X128850000Y-61000000D01*
X128850000Y-61000000D02*
X128850000Y-60200000D01*
G36*
X128850000Y-60200000D02*
G01*
X129650000Y-60200000D01*
X129650000Y-61000000D01*
X128850000Y-61000000D01*
X128850000Y-60200000D01*
G37*
X128850000Y-61450000D02*
X129650000Y-61450000D01*
X129650000Y-61450000D02*
X129650000Y-62250000D01*
X129650000Y-62250000D02*
X128850000Y-62250000D01*
X128850000Y-62250000D02*
X128850000Y-61450000D01*
G36*
X128850000Y-61450000D02*
G01*
X129650000Y-61450000D01*
X129650000Y-62250000D01*
X128850000Y-62250000D01*
X128850000Y-61450000D01*
G37*
X128850000Y-62700000D02*
X129650000Y-62700000D01*
X129650000Y-62700000D02*
X129650000Y-63500000D01*
X129650000Y-63500000D02*
X128850000Y-63500000D01*
X128850000Y-63500000D02*
X128850000Y-62700000D01*
G36*
X128850000Y-62700000D02*
G01*
X129650000Y-62700000D01*
X129650000Y-63500000D01*
X128850000Y-63500000D01*
X128850000Y-62700000D01*
G37*
X128850000Y-63950000D02*
X129650000Y-63950000D01*
X129650000Y-63950000D02*
X129650000Y-64750000D01*
X129650000Y-64750000D02*
X128850000Y-64750000D01*
X128850000Y-64750000D02*
X128850000Y-63950000D01*
G36*
X128850000Y-63950000D02*
G01*
X129650000Y-63950000D01*
X129650000Y-64750000D01*
X128850000Y-64750000D01*
X128850000Y-63950000D01*
G37*
X128850000Y-65200000D02*
X129650000Y-65200000D01*
X129650000Y-65200000D02*
X129650000Y-66000000D01*
X129650000Y-66000000D02*
X128850000Y-66000000D01*
X128850000Y-66000000D02*
X128850000Y-65200000D01*
G36*
X128850000Y-65200000D02*
G01*
X129650000Y-65200000D01*
X129650000Y-66000000D01*
X128850000Y-66000000D01*
X128850000Y-65200000D01*
G37*
X128850000Y-66450000D02*
X129650000Y-66450000D01*
X129650000Y-66450000D02*
X129650000Y-67250000D01*
X129650000Y-67250000D02*
X128850000Y-67250000D01*
X128850000Y-67250000D02*
X128850000Y-66450000D01*
G36*
X128850000Y-66450000D02*
G01*
X129650000Y-66450000D01*
X129650000Y-67250000D01*
X128850000Y-67250000D01*
X128850000Y-66450000D01*
G37*
X128850000Y-67700000D02*
X129650000Y-67700000D01*
X129650000Y-67700000D02*
X129650000Y-68500000D01*
X129650000Y-68500000D02*
X128850000Y-68500000D01*
X128850000Y-68500000D02*
X128850000Y-67700000D01*
G36*
X128850000Y-67700000D02*
G01*
X129650000Y-67700000D01*
X129650000Y-68500000D01*
X128850000Y-68500000D01*
X128850000Y-67700000D01*
G37*
X128850000Y-68950000D02*
X129650000Y-68950000D01*
X129650000Y-68950000D02*
X129650000Y-69750000D01*
X129650000Y-69750000D02*
X128850000Y-69750000D01*
X128850000Y-69750000D02*
X128850000Y-68950000D01*
G36*
X128850000Y-68950000D02*
G01*
X129650000Y-68950000D01*
X129650000Y-69750000D01*
X128850000Y-69750000D01*
X128850000Y-68950000D01*
G37*
X128850000Y-70200000D02*
X129650000Y-70200000D01*
X129650000Y-70200000D02*
X129650000Y-71000000D01*
X129650000Y-71000000D02*
X128850000Y-71000000D01*
X128850000Y-71000000D02*
X128850000Y-70200000D01*
G36*
X128850000Y-70200000D02*
G01*
X129650000Y-70200000D01*
X129650000Y-71000000D01*
X128850000Y-71000000D01*
X128850000Y-70200000D01*
G37*
X128850000Y-71450000D02*
X129650000Y-71450000D01*
X129650000Y-71450000D02*
X129650000Y-72250000D01*
X129650000Y-72250000D02*
X128850000Y-72250000D01*
X128850000Y-72250000D02*
X128850000Y-71450000D01*
G36*
X128850000Y-71450000D02*
G01*
X129650000Y-71450000D01*
X129650000Y-72250000D01*
X128850000Y-72250000D01*
X128850000Y-71450000D01*
G37*
X128850000Y-72700000D02*
X129650000Y-72700000D01*
X129650000Y-72700000D02*
X129650000Y-73500000D01*
X129650000Y-73500000D02*
X128850000Y-73500000D01*
X128850000Y-73500000D02*
X128850000Y-72700000D01*
G36*
X128850000Y-72700000D02*
G01*
X129650000Y-72700000D01*
X129650000Y-73500000D01*
X128850000Y-73500000D01*
X128850000Y-72700000D01*
G37*
X128850000Y-73950000D02*
X129650000Y-73950000D01*
X129650000Y-73950000D02*
X129650000Y-74750000D01*
X129650000Y-74750000D02*
X128850000Y-74750000D01*
X128850000Y-74750000D02*
X128850000Y-73950000D01*
G36*
X128850000Y-73950000D02*
G01*
X129650000Y-73950000D01*
X129650000Y-74750000D01*
X128850000Y-74750000D01*
X128850000Y-73950000D01*
G37*
X128850000Y-75200000D02*
X129650000Y-75200000D01*
X129650000Y-75200000D02*
X129650000Y-76000000D01*
X129650000Y-76000000D02*
X128850000Y-76000000D01*
X128850000Y-76000000D02*
X128850000Y-75200000D01*
G36*
X128850000Y-75200000D02*
G01*
X129650000Y-75200000D01*
X129650000Y-76000000D01*
X128850000Y-76000000D01*
X128850000Y-75200000D01*
G37*
X128850000Y-76450000D02*
X129650000Y-76450000D01*
X129650000Y-76450000D02*
X129650000Y-77250000D01*
X129650000Y-77250000D02*
X128850000Y-77250000D01*
X128850000Y-77250000D02*
X128850000Y-76450000D01*
G36*
X128850000Y-76450000D02*
G01*
X129650000Y-76450000D01*
X129650000Y-77250000D01*
X128850000Y-77250000D01*
X128850000Y-76450000D01*
G37*
X128850000Y-77700000D02*
X129650000Y-77700000D01*
X129650000Y-77700000D02*
X129650000Y-78500000D01*
X129650000Y-78500000D02*
X128850000Y-78500000D01*
X128850000Y-78500000D02*
X128850000Y-77700000D01*
G36*
X128850000Y-77700000D02*
G01*
X129650000Y-77700000D01*
X129650000Y-78500000D01*
X128850000Y-78500000D01*
X128850000Y-77700000D01*
G37*
X128850000Y-78950000D02*
X129650000Y-78950000D01*
X129650000Y-78950000D02*
X129650000Y-79750000D01*
X129650000Y-79750000D02*
X128850000Y-79750000D01*
X128850000Y-79750000D02*
X128850000Y-78950000D01*
G36*
X128850000Y-78950000D02*
G01*
X129650000Y-78950000D01*
X129650000Y-79750000D01*
X128850000Y-79750000D01*
X128850000Y-78950000D01*
G37*
X128850000Y-80200000D02*
X129650000Y-80200000D01*
X129650000Y-80200000D02*
X129650000Y-81000000D01*
X129650000Y-81000000D02*
X128850000Y-81000000D01*
X128850000Y-81000000D02*
X128850000Y-80200000D01*
G36*
X128850000Y-80200000D02*
G01*
X129650000Y-80200000D01*
X129650000Y-81000000D01*
X128850000Y-81000000D01*
X128850000Y-80200000D01*
G37*
X128850000Y-81450000D02*
X129650000Y-81450000D01*
X129650000Y-81450000D02*
X129650000Y-82250000D01*
X129650000Y-82250000D02*
X128850000Y-82250000D01*
X128850000Y-82250000D02*
X128850000Y-81450000D01*
G36*
X128850000Y-81450000D02*
G01*
X129650000Y-81450000D01*
X129650000Y-82250000D01*
X128850000Y-82250000D01*
X128850000Y-81450000D01*
G37*
X128850000Y-82700000D02*
X129650000Y-82700000D01*
X129650000Y-82700000D02*
X129650000Y-83500000D01*
X129650000Y-83500000D02*
X128850000Y-83500000D01*
X128850000Y-83500000D02*
X128850000Y-82700000D01*
G36*
X128850000Y-82700000D02*
G01*
X129650000Y-82700000D01*
X129650000Y-83500000D01*
X128850000Y-83500000D01*
X128850000Y-82700000D01*
G37*
X128850000Y-83950000D02*
X129650000Y-83950000D01*
X129650000Y-83950000D02*
X129650000Y-84750000D01*
X129650000Y-84750000D02*
X128850000Y-84750000D01*
X128850000Y-84750000D02*
X128850000Y-83950000D01*
G36*
X128850000Y-83950000D02*
G01*
X129650000Y-83950000D01*
X129650000Y-84750000D01*
X128850000Y-84750000D01*
X128850000Y-83950000D01*
G37*
X128850000Y-85200000D02*
X129650000Y-85200000D01*
X129650000Y-85200000D02*
X129650000Y-86000000D01*
X129650000Y-86000000D02*
X128850000Y-86000000D01*
X128850000Y-86000000D02*
X128850000Y-85200000D01*
G36*
X128850000Y-85200000D02*
G01*
X129650000Y-85200000D01*
X129650000Y-86000000D01*
X128850000Y-86000000D01*
X128850000Y-85200000D01*
G37*
X128850000Y-86450000D02*
X129650000Y-86450000D01*
X129650000Y-86450000D02*
X129650000Y-87250000D01*
X129650000Y-87250000D02*
X128850000Y-87250000D01*
X128850000Y-87250000D02*
X128850000Y-86450000D01*
G36*
X128850000Y-86450000D02*
G01*
X129650000Y-86450000D01*
X129650000Y-87250000D01*
X128850000Y-87250000D01*
X128850000Y-86450000D01*
G37*
X128850000Y-87700000D02*
X129650000Y-87700000D01*
X129650000Y-87700000D02*
X129650000Y-88500000D01*
X129650000Y-88500000D02*
X128850000Y-88500000D01*
X128850000Y-88500000D02*
X128850000Y-87700000D01*
G36*
X128850000Y-87700000D02*
G01*
X129650000Y-87700000D01*
X129650000Y-88500000D01*
X128850000Y-88500000D01*
X128850000Y-87700000D01*
G37*
X128850000Y-88950000D02*
X129650000Y-88950000D01*
X129650000Y-88950000D02*
X129650000Y-89750000D01*
X129650000Y-89750000D02*
X128850000Y-89750000D01*
X128850000Y-89750000D02*
X128850000Y-88950000D01*
G36*
X128850000Y-88950000D02*
G01*
X129650000Y-88950000D01*
X129650000Y-89750000D01*
X128850000Y-89750000D01*
X128850000Y-88950000D01*
G37*
X128850000Y-90200000D02*
X129650000Y-90200000D01*
X129650000Y-90200000D02*
X129650000Y-91000000D01*
X129650000Y-91000000D02*
X128850000Y-91000000D01*
X128850000Y-91000000D02*
X128850000Y-90200000D01*
G36*
X128850000Y-90200000D02*
G01*
X129650000Y-90200000D01*
X129650000Y-91000000D01*
X128850000Y-91000000D01*
X128850000Y-90200000D01*
G37*
X128850000Y-91450000D02*
X129650000Y-91450000D01*
X129650000Y-91450000D02*
X129650000Y-92250000D01*
X129650000Y-92250000D02*
X128850000Y-92250000D01*
X128850000Y-92250000D02*
X128850000Y-91450000D01*
G36*
X128850000Y-91450000D02*
G01*
X129650000Y-91450000D01*
X129650000Y-92250000D01*
X128850000Y-92250000D01*
X128850000Y-91450000D01*
G37*
%TO.C,Q24*%
D10*
X149062500Y-76135000D02*
X148612500Y-76135000D01*
X148612500Y-76365000D01*
X149062500Y-76365000D01*
X149062500Y-76785000D01*
X148612500Y-76785000D01*
X148612500Y-77015000D01*
X149062500Y-77015000D01*
X149062500Y-77435000D01*
X148612500Y-77435000D01*
X148612500Y-77665000D01*
X149062500Y-77665000D01*
X149062500Y-78085000D01*
X146912500Y-78085000D01*
X146912500Y-75715000D01*
X149062500Y-75715000D01*
X149062500Y-76135000D01*
G36*
X149062500Y-76135000D02*
G01*
X148612500Y-76135000D01*
X148612500Y-76365000D01*
X149062500Y-76365000D01*
X149062500Y-76785000D01*
X148612500Y-76785000D01*
X148612500Y-77015000D01*
X149062500Y-77015000D01*
X149062500Y-77435000D01*
X148612500Y-77435000D01*
X148612500Y-77665000D01*
X149062500Y-77665000D01*
X149062500Y-78085000D01*
X146912500Y-78085000D01*
X146912500Y-75715000D01*
X149062500Y-75715000D01*
X149062500Y-76135000D01*
G37*
%TO.C,Q16*%
X149025000Y-68585000D02*
X148575000Y-68585000D01*
X148575000Y-68815000D01*
X149025000Y-68815000D01*
X149025000Y-69235000D01*
X148575000Y-69235000D01*
X148575000Y-69465000D01*
X149025000Y-69465000D01*
X149025000Y-69885000D01*
X148575000Y-69885000D01*
X148575000Y-70115000D01*
X149025000Y-70115000D01*
X149025000Y-70535000D01*
X146875000Y-70535000D01*
X146875000Y-68165000D01*
X149025000Y-68165000D01*
X149025000Y-68585000D01*
G36*
X149025000Y-68585000D02*
G01*
X148575000Y-68585000D01*
X148575000Y-68815000D01*
X149025000Y-68815000D01*
X149025000Y-69235000D01*
X148575000Y-69235000D01*
X148575000Y-69465000D01*
X149025000Y-69465000D01*
X149025000Y-69885000D01*
X148575000Y-69885000D01*
X148575000Y-70115000D01*
X149025000Y-70115000D01*
X149025000Y-70535000D01*
X146875000Y-70535000D01*
X146875000Y-68165000D01*
X149025000Y-68165000D01*
X149025000Y-68585000D01*
G37*
%TO.C,Q20*%
X149037500Y-88535000D02*
X148587500Y-88535000D01*
X148587500Y-88765000D01*
X149037500Y-88765000D01*
X149037500Y-89185000D01*
X148587500Y-89185000D01*
X148587500Y-89415000D01*
X149037500Y-89415000D01*
X149037500Y-89835000D01*
X148587500Y-89835000D01*
X148587500Y-90065000D01*
X149037500Y-90065000D01*
X149037500Y-90485000D01*
X146887500Y-90485000D01*
X146887500Y-88115000D01*
X149037500Y-88115000D01*
X149037500Y-88535000D01*
G36*
X149037500Y-88535000D02*
G01*
X148587500Y-88535000D01*
X148587500Y-88765000D01*
X149037500Y-88765000D01*
X149037500Y-89185000D01*
X148587500Y-89185000D01*
X148587500Y-89415000D01*
X149037500Y-89415000D01*
X149037500Y-89835000D01*
X148587500Y-89835000D01*
X148587500Y-90065000D01*
X149037500Y-90065000D01*
X149037500Y-90485000D01*
X146887500Y-90485000D01*
X146887500Y-88115000D01*
X149037500Y-88115000D01*
X149037500Y-88535000D01*
G37*
%TO.C,Q4*%
X124100000Y-81885000D02*
X121950000Y-81885000D01*
X121950000Y-81465000D01*
X122400000Y-81465000D01*
X122400000Y-81235000D01*
X121950000Y-81235000D01*
X121950000Y-80815000D01*
X122400000Y-80815000D01*
X122400000Y-80585000D01*
X121950000Y-80585000D01*
X121950000Y-80165000D01*
X122400000Y-80165000D01*
X122400000Y-79935000D01*
X121950000Y-79935000D01*
X121950000Y-79515000D01*
X124100000Y-79515000D01*
X124100000Y-81885000D01*
G36*
X124100000Y-81885000D02*
G01*
X121950000Y-81885000D01*
X121950000Y-81465000D01*
X122400000Y-81465000D01*
X122400000Y-81235000D01*
X121950000Y-81235000D01*
X121950000Y-80815000D01*
X122400000Y-80815000D01*
X122400000Y-80585000D01*
X121950000Y-80585000D01*
X121950000Y-80165000D01*
X122400000Y-80165000D01*
X122400000Y-79935000D01*
X121950000Y-79935000D01*
X121950000Y-79515000D01*
X124100000Y-79515000D01*
X124100000Y-81885000D01*
G37*
D11*
%TO.C,TP12*%
X141350000Y-91450000D02*
X142150000Y-91450000D01*
X142150000Y-91450000D02*
X142150000Y-92250000D01*
X142150000Y-92250000D02*
X141350000Y-92250000D01*
X141350000Y-92250000D02*
X141350000Y-91450000D01*
G36*
X141350000Y-91450000D02*
G01*
X142150000Y-91450000D01*
X142150000Y-92250000D01*
X141350000Y-92250000D01*
X141350000Y-91450000D01*
G37*
X141350000Y-90200000D02*
X142150000Y-90200000D01*
X142150000Y-90200000D02*
X142150000Y-91000000D01*
X142150000Y-91000000D02*
X141350000Y-91000000D01*
X141350000Y-91000000D02*
X141350000Y-90200000D01*
G36*
X141350000Y-90200000D02*
G01*
X142150000Y-90200000D01*
X142150000Y-91000000D01*
X141350000Y-91000000D01*
X141350000Y-90200000D01*
G37*
X141350000Y-88950000D02*
X142150000Y-88950000D01*
X142150000Y-88950000D02*
X142150000Y-89750000D01*
X142150000Y-89750000D02*
X141350000Y-89750000D01*
X141350000Y-89750000D02*
X141350000Y-88950000D01*
G36*
X141350000Y-88950000D02*
G01*
X142150000Y-88950000D01*
X142150000Y-89750000D01*
X141350000Y-89750000D01*
X141350000Y-88950000D01*
G37*
X141350000Y-87700000D02*
X142150000Y-87700000D01*
X142150000Y-87700000D02*
X142150000Y-88500000D01*
X142150000Y-88500000D02*
X141350000Y-88500000D01*
X141350000Y-88500000D02*
X141350000Y-87700000D01*
G36*
X141350000Y-87700000D02*
G01*
X142150000Y-87700000D01*
X142150000Y-88500000D01*
X141350000Y-88500000D01*
X141350000Y-87700000D01*
G37*
X141350000Y-86450000D02*
X142150000Y-86450000D01*
X142150000Y-86450000D02*
X142150000Y-87250000D01*
X142150000Y-87250000D02*
X141350000Y-87250000D01*
X141350000Y-87250000D02*
X141350000Y-86450000D01*
G36*
X141350000Y-86450000D02*
G01*
X142150000Y-86450000D01*
X142150000Y-87250000D01*
X141350000Y-87250000D01*
X141350000Y-86450000D01*
G37*
X141350000Y-85200000D02*
X142150000Y-85200000D01*
X142150000Y-85200000D02*
X142150000Y-86000000D01*
X142150000Y-86000000D02*
X141350000Y-86000000D01*
X141350000Y-86000000D02*
X141350000Y-85200000D01*
G36*
X141350000Y-85200000D02*
G01*
X142150000Y-85200000D01*
X142150000Y-86000000D01*
X141350000Y-86000000D01*
X141350000Y-85200000D01*
G37*
X141350000Y-83950000D02*
X142150000Y-83950000D01*
X142150000Y-83950000D02*
X142150000Y-84750000D01*
X142150000Y-84750000D02*
X141350000Y-84750000D01*
X141350000Y-84750000D02*
X141350000Y-83950000D01*
G36*
X141350000Y-83950000D02*
G01*
X142150000Y-83950000D01*
X142150000Y-84750000D01*
X141350000Y-84750000D01*
X141350000Y-83950000D01*
G37*
X141350000Y-82700000D02*
X142150000Y-82700000D01*
X142150000Y-82700000D02*
X142150000Y-83500000D01*
X142150000Y-83500000D02*
X141350000Y-83500000D01*
X141350000Y-83500000D02*
X141350000Y-82700000D01*
G36*
X141350000Y-82700000D02*
G01*
X142150000Y-82700000D01*
X142150000Y-83500000D01*
X141350000Y-83500000D01*
X141350000Y-82700000D01*
G37*
X141350000Y-81450000D02*
X142150000Y-81450000D01*
X142150000Y-81450000D02*
X142150000Y-82250000D01*
X142150000Y-82250000D02*
X141350000Y-82250000D01*
X141350000Y-82250000D02*
X141350000Y-81450000D01*
G36*
X141350000Y-81450000D02*
G01*
X142150000Y-81450000D01*
X142150000Y-82250000D01*
X141350000Y-82250000D01*
X141350000Y-81450000D01*
G37*
X141350000Y-80200000D02*
X142150000Y-80200000D01*
X142150000Y-80200000D02*
X142150000Y-81000000D01*
X142150000Y-81000000D02*
X141350000Y-81000000D01*
X141350000Y-81000000D02*
X141350000Y-80200000D01*
G36*
X141350000Y-80200000D02*
G01*
X142150000Y-80200000D01*
X142150000Y-81000000D01*
X141350000Y-81000000D01*
X141350000Y-80200000D01*
G37*
X141350000Y-78950000D02*
X142150000Y-78950000D01*
X142150000Y-78950000D02*
X142150000Y-79750000D01*
X142150000Y-79750000D02*
X141350000Y-79750000D01*
X141350000Y-79750000D02*
X141350000Y-78950000D01*
G36*
X141350000Y-78950000D02*
G01*
X142150000Y-78950000D01*
X142150000Y-79750000D01*
X141350000Y-79750000D01*
X141350000Y-78950000D01*
G37*
X141350000Y-77700000D02*
X142150000Y-77700000D01*
X142150000Y-77700000D02*
X142150000Y-78500000D01*
X142150000Y-78500000D02*
X141350000Y-78500000D01*
X141350000Y-78500000D02*
X141350000Y-77700000D01*
G36*
X141350000Y-77700000D02*
G01*
X142150000Y-77700000D01*
X142150000Y-78500000D01*
X141350000Y-78500000D01*
X141350000Y-77700000D01*
G37*
X141350000Y-76450000D02*
X142150000Y-76450000D01*
X142150000Y-76450000D02*
X142150000Y-77250000D01*
X142150000Y-77250000D02*
X141350000Y-77250000D01*
X141350000Y-77250000D02*
X141350000Y-76450000D01*
G36*
X141350000Y-76450000D02*
G01*
X142150000Y-76450000D01*
X142150000Y-77250000D01*
X141350000Y-77250000D01*
X141350000Y-76450000D01*
G37*
X141350000Y-75200000D02*
X142150000Y-75200000D01*
X142150000Y-75200000D02*
X142150000Y-76000000D01*
X142150000Y-76000000D02*
X141350000Y-76000000D01*
X141350000Y-76000000D02*
X141350000Y-75200000D01*
G36*
X141350000Y-75200000D02*
G01*
X142150000Y-75200000D01*
X142150000Y-76000000D01*
X141350000Y-76000000D01*
X141350000Y-75200000D01*
G37*
X141350000Y-73950000D02*
X142150000Y-73950000D01*
X142150000Y-73950000D02*
X142150000Y-74750000D01*
X142150000Y-74750000D02*
X141350000Y-74750000D01*
X141350000Y-74750000D02*
X141350000Y-73950000D01*
G36*
X141350000Y-73950000D02*
G01*
X142150000Y-73950000D01*
X142150000Y-74750000D01*
X141350000Y-74750000D01*
X141350000Y-73950000D01*
G37*
X141350000Y-72700000D02*
X142150000Y-72700000D01*
X142150000Y-72700000D02*
X142150000Y-73500000D01*
X142150000Y-73500000D02*
X141350000Y-73500000D01*
X141350000Y-73500000D02*
X141350000Y-72700000D01*
G36*
X141350000Y-72700000D02*
G01*
X142150000Y-72700000D01*
X142150000Y-73500000D01*
X141350000Y-73500000D01*
X141350000Y-72700000D01*
G37*
X141350000Y-71450000D02*
X142150000Y-71450000D01*
X142150000Y-71450000D02*
X142150000Y-72250000D01*
X142150000Y-72250000D02*
X141350000Y-72250000D01*
X141350000Y-72250000D02*
X141350000Y-71450000D01*
G36*
X141350000Y-71450000D02*
G01*
X142150000Y-71450000D01*
X142150000Y-72250000D01*
X141350000Y-72250000D01*
X141350000Y-71450000D01*
G37*
X141350000Y-70200000D02*
X142150000Y-70200000D01*
X142150000Y-70200000D02*
X142150000Y-71000000D01*
X142150000Y-71000000D02*
X141350000Y-71000000D01*
X141350000Y-71000000D02*
X141350000Y-70200000D01*
G36*
X141350000Y-70200000D02*
G01*
X142150000Y-70200000D01*
X142150000Y-71000000D01*
X141350000Y-71000000D01*
X141350000Y-70200000D01*
G37*
X141350000Y-68950000D02*
X142150000Y-68950000D01*
X142150000Y-68950000D02*
X142150000Y-69750000D01*
X142150000Y-69750000D02*
X141350000Y-69750000D01*
X141350000Y-69750000D02*
X141350000Y-68950000D01*
G36*
X141350000Y-68950000D02*
G01*
X142150000Y-68950000D01*
X142150000Y-69750000D01*
X141350000Y-69750000D01*
X141350000Y-68950000D01*
G37*
X141350000Y-67700000D02*
X142150000Y-67700000D01*
X142150000Y-67700000D02*
X142150000Y-68500000D01*
X142150000Y-68500000D02*
X141350000Y-68500000D01*
X141350000Y-68500000D02*
X141350000Y-67700000D01*
G36*
X141350000Y-67700000D02*
G01*
X142150000Y-67700000D01*
X142150000Y-68500000D01*
X141350000Y-68500000D01*
X141350000Y-67700000D01*
G37*
X141350000Y-66450000D02*
X142150000Y-66450000D01*
X142150000Y-66450000D02*
X142150000Y-67250000D01*
X142150000Y-67250000D02*
X141350000Y-67250000D01*
X141350000Y-67250000D02*
X141350000Y-66450000D01*
G36*
X141350000Y-66450000D02*
G01*
X142150000Y-66450000D01*
X142150000Y-67250000D01*
X141350000Y-67250000D01*
X141350000Y-66450000D01*
G37*
X141350000Y-65200000D02*
X142150000Y-65200000D01*
X142150000Y-65200000D02*
X142150000Y-66000000D01*
X142150000Y-66000000D02*
X141350000Y-66000000D01*
X141350000Y-66000000D02*
X141350000Y-65200000D01*
G36*
X141350000Y-65200000D02*
G01*
X142150000Y-65200000D01*
X142150000Y-66000000D01*
X141350000Y-66000000D01*
X141350000Y-65200000D01*
G37*
X141350000Y-63950000D02*
X142150000Y-63950000D01*
X142150000Y-63950000D02*
X142150000Y-64750000D01*
X142150000Y-64750000D02*
X141350000Y-64750000D01*
X141350000Y-64750000D02*
X141350000Y-63950000D01*
G36*
X141350000Y-63950000D02*
G01*
X142150000Y-63950000D01*
X142150000Y-64750000D01*
X141350000Y-64750000D01*
X141350000Y-63950000D01*
G37*
X141350000Y-62700000D02*
X142150000Y-62700000D01*
X142150000Y-62700000D02*
X142150000Y-63500000D01*
X142150000Y-63500000D02*
X141350000Y-63500000D01*
X141350000Y-63500000D02*
X141350000Y-62700000D01*
G36*
X141350000Y-62700000D02*
G01*
X142150000Y-62700000D01*
X142150000Y-63500000D01*
X141350000Y-63500000D01*
X141350000Y-62700000D01*
G37*
X141350000Y-61450000D02*
X142150000Y-61450000D01*
X142150000Y-61450000D02*
X142150000Y-62250000D01*
X142150000Y-62250000D02*
X141350000Y-62250000D01*
X141350000Y-62250000D02*
X141350000Y-61450000D01*
G36*
X141350000Y-61450000D02*
G01*
X142150000Y-61450000D01*
X142150000Y-62250000D01*
X141350000Y-62250000D01*
X141350000Y-61450000D01*
G37*
X141350000Y-60200000D02*
X142150000Y-60200000D01*
X142150000Y-60200000D02*
X142150000Y-61000000D01*
X142150000Y-61000000D02*
X141350000Y-61000000D01*
X141350000Y-61000000D02*
X141350000Y-60200000D01*
G36*
X141350000Y-60200000D02*
G01*
X142150000Y-60200000D01*
X142150000Y-61000000D01*
X141350000Y-61000000D01*
X141350000Y-60200000D01*
G37*
X141350000Y-58950000D02*
X142150000Y-58950000D01*
X142150000Y-58950000D02*
X142150000Y-59750000D01*
X142150000Y-59750000D02*
X141350000Y-59750000D01*
X141350000Y-59750000D02*
X141350000Y-58950000D01*
G36*
X141350000Y-58950000D02*
G01*
X142150000Y-58950000D01*
X142150000Y-59750000D01*
X141350000Y-59750000D01*
X141350000Y-58950000D01*
G37*
X141350000Y-57700000D02*
X142150000Y-57700000D01*
X142150000Y-57700000D02*
X142150000Y-58500000D01*
X142150000Y-58500000D02*
X141350000Y-58500000D01*
X141350000Y-58500000D02*
X141350000Y-57700000D01*
G36*
X141350000Y-57700000D02*
G01*
X142150000Y-57700000D01*
X142150000Y-58500000D01*
X141350000Y-58500000D01*
X141350000Y-57700000D01*
G37*
%TO.C,Q6*%
D10*
X124100000Y-90485000D02*
X121950000Y-90485000D01*
X121950000Y-90065000D01*
X122400000Y-90065000D01*
X122400000Y-89835000D01*
X121950000Y-89835000D01*
X121950000Y-89415000D01*
X122400000Y-89415000D01*
X122400000Y-89185000D01*
X121950000Y-89185000D01*
X121950000Y-88765000D01*
X122400000Y-88765000D01*
X122400000Y-88535000D01*
X121950000Y-88535000D01*
X121950000Y-88115000D01*
X124100000Y-88115000D01*
X124100000Y-90485000D01*
G36*
X124100000Y-90485000D02*
G01*
X121950000Y-90485000D01*
X121950000Y-90065000D01*
X122400000Y-90065000D01*
X122400000Y-89835000D01*
X121950000Y-89835000D01*
X121950000Y-89415000D01*
X122400000Y-89415000D01*
X122400000Y-89185000D01*
X121950000Y-89185000D01*
X121950000Y-88765000D01*
X122400000Y-88765000D01*
X122400000Y-88535000D01*
X121950000Y-88535000D01*
X121950000Y-88115000D01*
X124100000Y-88115000D01*
X124100000Y-90485000D01*
G37*
%TO.C,Q1*%
X124100000Y-78085000D02*
X121950000Y-78085000D01*
X121950000Y-77665000D01*
X122400000Y-77665000D01*
X122400000Y-77435000D01*
X121950000Y-77435000D01*
X121950000Y-77015000D01*
X122400000Y-77015000D01*
X122400000Y-76785000D01*
X121950000Y-76785000D01*
X121950000Y-76365000D01*
X122400000Y-76365000D01*
X122400000Y-76135000D01*
X121950000Y-76135000D01*
X121950000Y-75715000D01*
X124100000Y-75715000D01*
X124100000Y-78085000D01*
G36*
X124100000Y-78085000D02*
G01*
X121950000Y-78085000D01*
X121950000Y-77665000D01*
X122400000Y-77665000D01*
X122400000Y-77435000D01*
X121950000Y-77435000D01*
X121950000Y-77015000D01*
X122400000Y-77015000D01*
X122400000Y-76785000D01*
X121950000Y-76785000D01*
X121950000Y-76365000D01*
X122400000Y-76365000D01*
X122400000Y-76135000D01*
X121950000Y-76135000D01*
X121950000Y-75715000D01*
X124100000Y-75715000D01*
X124100000Y-78085000D01*
G37*
%TO.C,Q8*%
X124062500Y-61860000D02*
X121912500Y-61860000D01*
X121912500Y-61440000D01*
X122362500Y-61440000D01*
X122362500Y-61210000D01*
X121912500Y-61210000D01*
X121912500Y-60790000D01*
X122362500Y-60790000D01*
X122362500Y-60560000D01*
X121912500Y-60560000D01*
X121912500Y-60140000D01*
X122362500Y-60140000D01*
X122362500Y-59910000D01*
X121912500Y-59910000D01*
X121912500Y-59490000D01*
X124062500Y-59490000D01*
X124062500Y-61860000D01*
G36*
X124062500Y-61860000D02*
G01*
X121912500Y-61860000D01*
X121912500Y-61440000D01*
X122362500Y-61440000D01*
X122362500Y-61210000D01*
X121912500Y-61210000D01*
X121912500Y-60790000D01*
X122362500Y-60790000D01*
X122362500Y-60560000D01*
X121912500Y-60560000D01*
X121912500Y-60140000D01*
X122362500Y-60140000D01*
X122362500Y-59910000D01*
X121912500Y-59910000D01*
X121912500Y-59490000D01*
X124062500Y-59490000D01*
X124062500Y-61860000D01*
G37*
%TO.C,Q12*%
X124100000Y-74210000D02*
X121950000Y-74210000D01*
X121950000Y-73790000D01*
X122400000Y-73790000D01*
X122400000Y-73560000D01*
X121950000Y-73560000D01*
X121950000Y-73140000D01*
X122400000Y-73140000D01*
X122400000Y-72910000D01*
X121950000Y-72910000D01*
X121950000Y-72490000D01*
X122400000Y-72490000D01*
X122400000Y-72260000D01*
X121950000Y-72260000D01*
X121950000Y-71840000D01*
X124100000Y-71840000D01*
X124100000Y-74210000D01*
G36*
X124100000Y-74210000D02*
G01*
X121950000Y-74210000D01*
X121950000Y-73790000D01*
X122400000Y-73790000D01*
X122400000Y-73560000D01*
X121950000Y-73560000D01*
X121950000Y-73140000D01*
X122400000Y-73140000D01*
X122400000Y-72910000D01*
X121950000Y-72910000D01*
X121950000Y-72490000D01*
X122400000Y-72490000D01*
X122400000Y-72260000D01*
X121950000Y-72260000D01*
X121950000Y-71840000D01*
X124100000Y-71840000D01*
X124100000Y-74210000D01*
G37*
%TD*%
D12*
%TO.C,RN24*%
X136325000Y-55675000D03*
X137025000Y-55675000D03*
X137025000Y-56675000D03*
X136325000Y-56675000D03*
%TD*%
%TO.C,RN8*%
X136200000Y-92225000D03*
X135500000Y-92225000D03*
X135500000Y-91225000D03*
X136200000Y-91225000D03*
%TD*%
D13*
%TO.C,Q14*%
X145900000Y-74075000D03*
X145900000Y-73425000D03*
X145900000Y-72775000D03*
X145900000Y-72125000D03*
%TD*%
D14*
%TO.C,C63*%
X127025000Y-82150000D03*
X127025000Y-79550000D03*
%TD*%
D13*
%TO.C,Q10*%
X125112500Y-68375000D03*
X125112500Y-69025000D03*
X125112500Y-69675000D03*
X125112500Y-70325000D03*
%TD*%
D15*
%TO.C,RN14*%
X131875000Y-71325000D03*
X131875000Y-70625000D03*
X132875000Y-70625000D03*
X132875000Y-71325000D03*
%TD*%
D13*
%TO.C,Q18*%
X145925000Y-61700000D03*
X145925000Y-61050000D03*
X145925000Y-60400000D03*
X145925000Y-59750000D03*
%TD*%
D16*
%TO.C,C32*%
X132725000Y-83550000D03*
X134275000Y-83550000D03*
%TD*%
D17*
%TO.C,C15*%
X131550000Y-57857500D03*
X131550000Y-58817500D03*
%TD*%
D18*
%TO.C,C57*%
X127025000Y-70450000D03*
X127025000Y-67850000D03*
%TD*%
%TO.C,C64*%
X127025000Y-75650000D03*
X127025000Y-78250000D03*
%TD*%
D14*
%TO.C,C49*%
X143975000Y-74350000D03*
X143975000Y-71750000D03*
%TD*%
D19*
%TO.C,C16*%
X139050000Y-61130000D03*
X139050000Y-60170000D03*
%TD*%
D12*
%TO.C,RN28*%
X133149503Y-74675000D03*
X133849503Y-74675000D03*
X133849503Y-73675000D03*
X133149503Y-73675000D03*
%TD*%
D20*
%TO.C,U1*%
X134900000Y-85512500D03*
X135300000Y-85512500D03*
X135700000Y-85512500D03*
X136100000Y-85512500D03*
X136500000Y-85512500D03*
X136900000Y-85512500D03*
X137300000Y-85512500D03*
D21*
X138037500Y-86250000D03*
X138037500Y-86650000D03*
X138037500Y-87050000D03*
X138037500Y-87450000D03*
X138037500Y-87850000D03*
X138037500Y-88250000D03*
X138037500Y-88650000D03*
D20*
X137300000Y-89387500D03*
X136900000Y-89387500D03*
X136500000Y-89387500D03*
X136100000Y-89387500D03*
X135700000Y-89387500D03*
X135300000Y-89387500D03*
X134900000Y-89387500D03*
D21*
X134162500Y-88650000D03*
X134162500Y-88250000D03*
X134162500Y-87850000D03*
X134162500Y-87450000D03*
X134162500Y-87050000D03*
X134162500Y-86650000D03*
X134162500Y-86250000D03*
D22*
X136750000Y-88100000D03*
X136750000Y-86800000D03*
X135450000Y-88100000D03*
X135450000Y-86800000D03*
%TD*%
D19*
%TO.C,C5*%
X139175000Y-72130000D03*
X139175000Y-71170000D03*
%TD*%
%TO.C,C1*%
X139225000Y-90630000D03*
X139225000Y-89670000D03*
%TD*%
D17*
%TO.C,C4*%
X132125000Y-86845000D03*
X132125000Y-87805000D03*
%TD*%
D15*
%TO.C,RN4*%
X131950000Y-90912500D03*
X131950000Y-90212500D03*
X132950000Y-90212500D03*
X132950000Y-90912500D03*
%TD*%
D17*
%TO.C,C23*%
X131549503Y-76830000D03*
X131549503Y-75870000D03*
%TD*%
D23*
%TO.C,C52*%
X143700000Y-92450000D03*
X146300000Y-92450000D03*
%TD*%
D14*
%TO.C,C58*%
X127025000Y-71750000D03*
X127025000Y-74350000D03*
%TD*%
D16*
%TO.C,C30*%
X132725000Y-82075000D03*
X134275000Y-82075000D03*
%TD*%
D24*
%TO.C,C18*%
X139080000Y-62075000D03*
X138120000Y-62075000D03*
%TD*%
D13*
%TO.C,Q22*%
X145912500Y-81675000D03*
X145912500Y-81025000D03*
X145912500Y-80375000D03*
X145912500Y-79725000D03*
%TD*%
D15*
%TO.C,RN30*%
X138974503Y-76300000D03*
X138974503Y-77000000D03*
X137974503Y-77000000D03*
X137974503Y-76300000D03*
%TD*%
D23*
%TO.C,C68*%
X143725000Y-57600000D03*
X146325000Y-57600000D03*
%TD*%
D14*
%TO.C,C55*%
X144075000Y-90625000D03*
X144075000Y-88025000D03*
%TD*%
D13*
%TO.C,Q24*%
X145912500Y-77875000D03*
X145912500Y-77225000D03*
X145912500Y-76575000D03*
X145912500Y-75925000D03*
%TD*%
D25*
%TO.C,C51*%
X127375000Y-92525000D03*
X124775000Y-92525000D03*
%TD*%
D18*
%TO.C,C48*%
X143975000Y-67850000D03*
X143975000Y-70450000D03*
%TD*%
D13*
%TO.C,Q16*%
X145875000Y-70325000D03*
X145875000Y-69675000D03*
X145875000Y-69025000D03*
X145875000Y-68375000D03*
%TD*%
%TO.C,Q20*%
X145887500Y-90275000D03*
X145887500Y-89625000D03*
X145887500Y-88975000D03*
X145887500Y-88325000D03*
%TD*%
D14*
%TO.C,C50*%
X143975000Y-82150000D03*
X143975000Y-79550000D03*
%TD*%
D12*
%TO.C,RN32*%
X136299503Y-74675000D03*
X136999503Y-74675000D03*
X136999503Y-73675000D03*
X136299503Y-73675000D03*
%TD*%
D24*
%TO.C,C25*%
X138854503Y-79950000D03*
X137894503Y-79950000D03*
%TD*%
D15*
%TO.C,RN6*%
X131950000Y-89362500D03*
X131950000Y-88662500D03*
X132950000Y-88662500D03*
X132950000Y-89362500D03*
%TD*%
D12*
%TO.C,RN7*%
X137800000Y-92225000D03*
X137100000Y-92225000D03*
X137100000Y-91225000D03*
X137800000Y-91225000D03*
%TD*%
D25*
%TO.C,C40*%
X127250000Y-57550000D03*
X124650000Y-57550000D03*
%TD*%
D26*
%TO.C,U9*%
X139062500Y-81900000D03*
X139062500Y-83800000D03*
X136787500Y-83800000D03*
X136787500Y-82850000D03*
X136787500Y-81900000D03*
%TD*%
D13*
%TO.C,Q4*%
X125100000Y-79725000D03*
X125100000Y-80375000D03*
X125100000Y-81025000D03*
X125100000Y-81675000D03*
%TD*%
D12*
%TO.C,RN29*%
X134724503Y-74675000D03*
X135424503Y-74675000D03*
X135424503Y-73675000D03*
X134724503Y-73675000D03*
%TD*%
D18*
%TO.C,C71*%
X144050000Y-59350000D03*
X144050000Y-61950000D03*
%TD*%
D12*
%TO.C,RN5*%
X134600000Y-92225000D03*
X133900000Y-92225000D03*
X133900000Y-91225000D03*
X134600000Y-91225000D03*
%TD*%
D20*
%TO.C,U3*%
X134850000Y-67412500D03*
X135250000Y-67412500D03*
X135650000Y-67412500D03*
X136050000Y-67412500D03*
X136450000Y-67412500D03*
X136850000Y-67412500D03*
X137250000Y-67412500D03*
D21*
X137987500Y-68150000D03*
X137987500Y-68550000D03*
X137987500Y-68950000D03*
X137987500Y-69350000D03*
X137987500Y-69750000D03*
X137987500Y-70150000D03*
X137987500Y-70550000D03*
D20*
X137250000Y-71287500D03*
X136850000Y-71287500D03*
X136450000Y-71287500D03*
X136050000Y-71287500D03*
X135650000Y-71287500D03*
X135250000Y-71287500D03*
X134850000Y-71287500D03*
D21*
X134112500Y-70550000D03*
X134112500Y-70150000D03*
X134112500Y-69750000D03*
X134112500Y-69350000D03*
X134112500Y-68950000D03*
X134112500Y-68550000D03*
X134112500Y-68150000D03*
D22*
X136700000Y-70000000D03*
X136700000Y-68700000D03*
X135400000Y-70000000D03*
X135400000Y-68700000D03*
%TD*%
D27*
%TO.C,U5*%
X136050000Y-62312500D03*
X135650000Y-62312500D03*
X135250000Y-62312500D03*
X134850000Y-62312500D03*
X134450000Y-62312500D03*
X134050000Y-62312500D03*
X133650000Y-62312500D03*
D28*
X132912500Y-61575000D03*
X132912500Y-61175000D03*
X132912500Y-60775000D03*
X132912500Y-60375000D03*
X132912500Y-59975000D03*
X132912500Y-59575000D03*
X132912500Y-59175000D03*
D27*
X133650000Y-58437500D03*
X134050000Y-58437500D03*
X134450000Y-58437500D03*
X134850000Y-58437500D03*
X135250000Y-58437500D03*
X135650000Y-58437500D03*
X136050000Y-58437500D03*
D28*
X136787500Y-59175000D03*
X136787500Y-59575000D03*
X136787500Y-59975000D03*
X136787500Y-60375000D03*
X136787500Y-60775000D03*
X136787500Y-61175000D03*
X136787500Y-61575000D03*
D29*
X134200000Y-59725000D03*
X134200000Y-61025000D03*
X135500000Y-59725000D03*
X135500000Y-61025000D03*
%TD*%
D13*
%TO.C,Q6*%
X125100000Y-90275000D03*
X125100000Y-89625000D03*
X125100000Y-88975000D03*
X125100000Y-88325000D03*
%TD*%
D15*
%TO.C,RN31*%
X138974503Y-74725000D03*
X138974503Y-75425000D03*
X137974503Y-75425000D03*
X137974503Y-74725000D03*
%TD*%
D13*
%TO.C,Q1*%
X125100000Y-75925000D03*
X125100000Y-76575000D03*
X125100000Y-77225000D03*
X125100000Y-77875000D03*
%TD*%
D15*
%TO.C,RN22*%
X139000000Y-58525000D03*
X139000000Y-59225000D03*
X138000000Y-59225000D03*
X138000000Y-58525000D03*
%TD*%
D30*
%TO.C,C8*%
X131820000Y-67825000D03*
X132780000Y-67825000D03*
%TD*%
D12*
%TO.C,RN21*%
X134750000Y-55675000D03*
X135450000Y-55675000D03*
X135450000Y-56675000D03*
X134750000Y-56675000D03*
%TD*%
D30*
%TO.C,C13*%
X132070000Y-85950000D03*
X133030000Y-85950000D03*
%TD*%
D18*
%TO.C,C38*%
X126925000Y-59375000D03*
X126925000Y-61975000D03*
%TD*%
D13*
%TO.C,Q8*%
X125062500Y-61650000D03*
X125062500Y-61000000D03*
X125062500Y-60350000D03*
X125062500Y-59700000D03*
%TD*%
D14*
%TO.C,C53*%
X126900000Y-90625000D03*
X126900000Y-88025000D03*
%TD*%
D17*
%TO.C,C6*%
X131850000Y-68745000D03*
X131850000Y-69705000D03*
%TD*%
D13*
%TO.C,Q12*%
X125100000Y-72050000D03*
X125100000Y-72700000D03*
X125100000Y-73350000D03*
X125100000Y-74000000D03*
%TD*%
D12*
%TO.C,RN20*%
X133175000Y-55675000D03*
X133875000Y-55675000D03*
X133875000Y-56675000D03*
X133175000Y-56675000D03*
%TD*%
D15*
%TO.C,RN23*%
X139000000Y-56950000D03*
X139000000Y-57650000D03*
X138000000Y-57650000D03*
X138000000Y-56950000D03*
%TD*%
D19*
%TO.C,C22*%
X138974503Y-78905000D03*
X138974503Y-77945000D03*
%TD*%
D27*
%TO.C,U7*%
X136000000Y-80262500D03*
X135600000Y-80262500D03*
X135200000Y-80262500D03*
X134800000Y-80262500D03*
X134400000Y-80262500D03*
X134000000Y-80262500D03*
X133600000Y-80262500D03*
D28*
X132862500Y-79525000D03*
X132862500Y-79125000D03*
X132862500Y-78725000D03*
X132862500Y-78325000D03*
X132862500Y-77925000D03*
X132862500Y-77525000D03*
X132862500Y-77125000D03*
D27*
X133600000Y-76387500D03*
X134000000Y-76387500D03*
X134400000Y-76387500D03*
X134800000Y-76387500D03*
X135200000Y-76387500D03*
X135600000Y-76387500D03*
X136000000Y-76387500D03*
D28*
X136737500Y-77125000D03*
X136737500Y-77525000D03*
X136737500Y-77925000D03*
X136737500Y-78325000D03*
X136737500Y-78725000D03*
X136737500Y-79125000D03*
X136737500Y-79525000D03*
D29*
X134150000Y-77675000D03*
X134150000Y-78975000D03*
X135450000Y-77675000D03*
X135450000Y-78975000D03*
%TD*%
D18*
%TO.C,C43*%
X143975000Y-75650000D03*
X143975000Y-78250000D03*
%TD*%
D31*
%TO.C,C31*%
X133525000Y-66025000D03*
X133525000Y-64475000D03*
%TD*%
%TO.C,C29*%
X139625000Y-65500000D03*
X139625000Y-63950000D03*
%TD*%
D26*
%TO.C,U11*%
X137537500Y-63975000D03*
X137537500Y-65875000D03*
X135262500Y-65875000D03*
X135262500Y-64925000D03*
X135262500Y-63975000D03*
%TD*%
M02*
