%TF.GenerationSoftware,KiCad,Pcbnew,7.0.2*%
%TF.CreationDate,2023-05-24T20:20:13+03:00*%
%TF.ProjectId,Slimmeri_GD32,536c696d-6d65-4726-995f-474433322e6b,rev?*%
%TF.SameCoordinates,Original*%
%TF.FileFunction,Copper,L4,Inr*%
%TF.FilePolarity,Positive*%
%FSLAX46Y46*%
G04 Gerber Fmt 4.6, Leading zero omitted, Abs format (unit mm)*
G04 Created by KiCad (PCBNEW 7.0.2) date 2023-05-24 20:20:13*
%MOMM*%
%LPD*%
G01*
G04 APERTURE LIST*
G04 Aperture macros list*
%AMRoundRect*
0 Rectangle with rounded corners*
0 $1 Rounding radius*
0 $2 $3 $4 $5 $6 $7 $8 $9 X,Y pos of 4 corners*
0 Add a 4 corners polygon primitive as box body*
4,1,4,$2,$3,$4,$5,$6,$7,$8,$9,$2,$3,0*
0 Add four circle primitives for the rounded corners*
1,1,$1+$1,$2,$3*
1,1,$1+$1,$4,$5*
1,1,$1+$1,$6,$7*
1,1,$1+$1,$8,$9*
0 Add four rect primitives between the rounded corners*
20,1,$1+$1,$2,$3,$4,$5,0*
20,1,$1+$1,$4,$5,$6,$7,0*
20,1,$1+$1,$6,$7,$8,$9,0*
20,1,$1+$1,$8,$9,$2,$3,0*%
G04 Aperture macros list end*
%TA.AperFunction,ComponentPad*%
%ADD10O,1.000000X2.000000*%
%TD*%
%TA.AperFunction,ComponentPad*%
%ADD11C,1.000000*%
%TD*%
%TA.AperFunction,ComponentPad*%
%ADD12RoundRect,0.750000X-0.750000X0.750000X-0.750000X-0.750000X0.750000X-0.750000X0.750000X0.750000X0*%
%TD*%
%TA.AperFunction,ComponentPad*%
%ADD13RoundRect,0.750000X0.750000X-0.750000X0.750000X0.750000X-0.750000X0.750000X-0.750000X-0.750000X0*%
%TD*%
%TA.AperFunction,ComponentPad*%
%ADD14RoundRect,1.000000X-2.000000X-1.000000X2.000000X-1.000000X2.000000X1.000000X-2.000000X1.000000X0*%
%TD*%
%TA.AperFunction,ViaPad*%
%ADD15C,0.550000*%
%TD*%
%TA.AperFunction,Conductor*%
%ADD16C,0.150000*%
%TD*%
G04 APERTURE END LIST*
D10*
%TO.N,/M4*%
%TO.C,J13*%
X138590000Y-53637500D03*
%TO.N,/M3*%
X137320000Y-53637500D03*
%TO.N,/M2*%
X136050000Y-53637500D03*
%TO.N,/M1*%
X134780000Y-53637500D03*
%TO.N,/VBAT*%
X133510000Y-53637500D03*
%TO.N,GND*%
X132240000Y-53637500D03*
%TD*%
D11*
%TO.N,/Motor3/MotorOutA*%
%TO.C,J7*%
X151000000Y-72650000D03*
X152500000Y-72650000D03*
D12*
X151750000Y-71900000D03*
D11*
X151000000Y-71150000D03*
X152500000Y-71150000D03*
%TD*%
%TO.N,/Motor2/MotorOutA*%
%TO.C,J4*%
X118500000Y-63250000D03*
X120000000Y-63250000D03*
D12*
X119250000Y-62500000D03*
D11*
X118500000Y-61750000D03*
X120000000Y-61750000D03*
%TD*%
%TO.N,/Motor3/MotorOutB*%
%TO.C,J8*%
X151000000Y-67950000D03*
X152500000Y-67950000D03*
D12*
X151750000Y-67200000D03*
D11*
X151000000Y-66450000D03*
X152500000Y-66450000D03*
%TD*%
%TO.N,/Motor4/MotorOutC*%
%TO.C,J12*%
X152500000Y-77350000D03*
X151000000Y-77350000D03*
D13*
X151750000Y-78100000D03*
D11*
X152500000Y-78850000D03*
X151000000Y-78850000D03*
%TD*%
D14*
%TO.N,/VBAT*%
%TO.C,TP14*%
X139300000Y-97400000D03*
%TD*%
D11*
%TO.N,/Motor2/MotorOutB*%
%TO.C,J5*%
X118500000Y-67950000D03*
X120000000Y-67950000D03*
D12*
X119250000Y-67200000D03*
D11*
X118500000Y-66450000D03*
X120000000Y-66450000D03*
%TD*%
%TO.N,/Motor3/MotorOutC*%
%TO.C,J9*%
X151000000Y-63250000D03*
X152500000Y-63250000D03*
D12*
X151750000Y-62500000D03*
D11*
X151000000Y-61750000D03*
X152500000Y-61750000D03*
%TD*%
%TO.N,/Motor4/MotorOutB*%
%TO.C,J11*%
X152500000Y-82050000D03*
X151000000Y-82050000D03*
D13*
X151750000Y-82800000D03*
D11*
X152500000Y-83550000D03*
X151000000Y-83550000D03*
%TD*%
D14*
%TO.N,GND*%
%TO.C,TP13*%
X131700000Y-97400000D03*
%TD*%
D11*
%TO.N,/Motor1/MotorOutA*%
%TO.C,J1*%
X120000000Y-77350000D03*
X118500000Y-77350000D03*
D13*
X119250000Y-78100000D03*
D11*
X120000000Y-78850000D03*
X118500000Y-78850000D03*
%TD*%
%TO.N,/Motor4/MotorOutA*%
%TO.C,J10*%
X152500000Y-86750000D03*
X151000000Y-86750000D03*
D13*
X151750000Y-87500000D03*
D11*
X152500000Y-88250000D03*
X151000000Y-88250000D03*
%TD*%
%TO.N,/Motor1/MotorOutB*%
%TO.C,J2*%
X120000000Y-82050000D03*
X118500000Y-82050000D03*
D13*
X119250000Y-82800000D03*
D11*
X120000000Y-83550000D03*
X118500000Y-83550000D03*
%TD*%
%TO.N,/Motor2/MotorOutC*%
%TO.C,J6*%
X118500000Y-72650000D03*
X120000000Y-72650000D03*
D12*
X119250000Y-71900000D03*
D11*
X118500000Y-71150000D03*
X120000000Y-71150000D03*
%TD*%
%TO.N,/Motor1/MotorOutC*%
%TO.C,J3*%
X120000000Y-86750000D03*
X118500000Y-86750000D03*
D13*
X119250000Y-87500000D03*
D11*
X120000000Y-88250000D03*
X118500000Y-88250000D03*
%TD*%
D15*
%TO.N,GND*%
X138000000Y-83150000D03*
X135100000Y-55600000D03*
%TO.N,/M2*%
X136659239Y-57327718D03*
%TO.N,/M3*%
X134200000Y-54975000D03*
%TO.N,GND*%
X136250000Y-64800000D03*
X130900000Y-72700000D03*
X140600000Y-56100000D03*
X139950000Y-55450000D03*
X131050000Y-55400000D03*
X134650000Y-72749500D03*
%TO.N,/Motor4/BEMF_COMMON*%
X136580632Y-76525500D03*
%TO.N,GND*%
X146475000Y-87675000D03*
%TO.N,/5V*%
X134668246Y-90325500D03*
%TO.N,/3.3V*%
X138725000Y-89500000D03*
%TO.N,GND*%
X132250000Y-82250000D03*
X140225000Y-57475000D03*
%TO.N,/Motor3/MotorOutB*%
X138925000Y-64750000D03*
%TO.N,GND*%
X131910150Y-57231529D03*
X139875000Y-65025000D03*
X140200000Y-73850000D03*
X140000000Y-90325000D03*
X135150000Y-60350000D03*
X135125000Y-61250000D03*
X134225000Y-59525000D03*
X134225000Y-61250000D03*
X135150000Y-59525000D03*
X134225000Y-60350000D03*
X136650000Y-69350000D03*
X136625000Y-70250000D03*
X135725000Y-68525000D03*
X135725000Y-70250000D03*
X136650000Y-68525000D03*
X135725000Y-69350000D03*
X136175000Y-86575000D03*
X137100000Y-87400000D03*
X136175000Y-87400000D03*
X137100000Y-86575000D03*
X137075000Y-88300000D03*
X136175000Y-88300000D03*
X134625000Y-79075500D03*
X133850000Y-78350000D03*
X135525000Y-78325000D03*
X134625000Y-78325000D03*
X137101760Y-76058885D03*
X135525000Y-77425000D03*
X134625000Y-77400000D03*
X133850000Y-77400000D03*
X130674500Y-78075000D03*
X130850000Y-75875000D03*
X131277911Y-83788804D03*
X130755746Y-83244254D03*
X132814926Y-82427719D03*
%TO.N,/3.3V*%
X131642300Y-84385900D03*
%TO.N,/5V*%
X133646479Y-83347485D03*
%TO.N,/VBAT*%
X135700000Y-82875000D03*
%TO.N,GND*%
X138646800Y-82853200D03*
X140149003Y-80413160D03*
%TO.N,/3.3V*%
X139824957Y-78109154D03*
X130900000Y-76825000D03*
%TO.N,/5V*%
X136499500Y-75450000D03*
%TO.N,/3.3V*%
X139550000Y-71400000D03*
%TO.N,GND*%
X139975000Y-72125000D03*
X131000000Y-65700000D03*
%TO.N,/3.3V*%
X130950000Y-66400000D03*
%TO.N,GND*%
X137150000Y-64700000D03*
X138916052Y-63215676D03*
%TO.N,/3.3V*%
X131550000Y-58817500D03*
%TO.N,/5V*%
X136696364Y-58196390D03*
%TO.N,/3.3V*%
X137774324Y-65015468D03*
%TO.N,/VBAT*%
X130874500Y-64955900D03*
X143450000Y-88325000D03*
X144075000Y-88325000D03*
X144700000Y-88325000D03*
X144700000Y-87725000D03*
X143450000Y-87725000D03*
X144075000Y-87725000D03*
%TO.N,GND*%
X144700000Y-90325000D03*
X144075000Y-90325000D03*
X143450000Y-90325000D03*
X143450000Y-90925000D03*
X144700000Y-90925000D03*
X144075000Y-90925000D03*
X144000000Y-93075000D03*
X144000000Y-92450000D03*
X144000000Y-91825000D03*
X143400000Y-91825000D03*
X143400000Y-93075000D03*
X143400000Y-92450000D03*
%TO.N,/VBAT*%
X146600000Y-93075000D03*
X146600000Y-92450000D03*
X146600000Y-91825000D03*
X146000000Y-91825000D03*
X146000000Y-93075000D03*
X146000000Y-92450000D03*
X143350000Y-78550000D03*
X143975000Y-78550000D03*
X144600000Y-78550000D03*
X144600000Y-77950000D03*
X143350000Y-77950000D03*
X143975000Y-77950000D03*
X143350000Y-79850000D03*
X143975000Y-79850000D03*
X144600000Y-79850000D03*
X144600000Y-79250000D03*
X143350000Y-79250000D03*
X143975000Y-79250000D03*
%TO.N,GND*%
X143350000Y-82450000D03*
X143975000Y-82450000D03*
X144600000Y-82450000D03*
X144600000Y-81850000D03*
X143350000Y-81850000D03*
X143975000Y-81850000D03*
X143350000Y-75950000D03*
X143975000Y-75950000D03*
X144600000Y-75950000D03*
X144600000Y-75350000D03*
X143350000Y-75350000D03*
X143975000Y-75350000D03*
X143975000Y-74050000D03*
X143350000Y-74650000D03*
X144600000Y-74050000D03*
X143975000Y-74650000D03*
X143350000Y-74050000D03*
X144600000Y-74650000D03*
%TO.N,/VBAT*%
X143975000Y-71450000D03*
X144600000Y-72050000D03*
X143350000Y-72050000D03*
X144600000Y-71450000D03*
X143975000Y-72050000D03*
X143350000Y-71450000D03*
X143975000Y-70150000D03*
X144600000Y-70750000D03*
X143350000Y-70750000D03*
X144600000Y-70150000D03*
X143975000Y-70750000D03*
X143350000Y-70150000D03*
%TO.N,GND*%
X143975000Y-67550000D03*
X144600000Y-68150000D03*
X143350000Y-68150000D03*
X144600000Y-67550000D03*
X143975000Y-68150000D03*
X143350000Y-67550000D03*
%TO.N,/VBAT*%
X146025000Y-57600000D03*
X146025000Y-58225000D03*
X146625000Y-57600000D03*
X146625000Y-56975000D03*
X146025000Y-56975000D03*
X146625000Y-58225000D03*
%TO.N,GND*%
X143425000Y-57600000D03*
X143425000Y-58225000D03*
X144025000Y-57600000D03*
X144025000Y-56975000D03*
X143425000Y-56975000D03*
X144025000Y-58225000D03*
X144050000Y-59050000D03*
X143425000Y-59050000D03*
X144050000Y-59650000D03*
X144675000Y-59650000D03*
X144675000Y-59050000D03*
X143425000Y-59650000D03*
%TO.N,/VBAT*%
X144050000Y-61650000D03*
X143425000Y-61650000D03*
X144050000Y-62250000D03*
X144675000Y-62250000D03*
X144675000Y-61650000D03*
X143425000Y-62250000D03*
X126925000Y-61675000D03*
X126300000Y-61675000D03*
X126925000Y-62275000D03*
X127550000Y-62275000D03*
X127550000Y-61675000D03*
X126300000Y-62275000D03*
%TO.N,GND*%
X126925000Y-59075000D03*
X126925000Y-59675000D03*
X127550000Y-59075000D03*
X127550000Y-59675000D03*
X126300000Y-59675000D03*
X126300000Y-59075000D03*
%TO.N,/VBAT*%
X124950000Y-57550000D03*
X124350000Y-57550000D03*
X124950000Y-58175000D03*
X124350000Y-58175000D03*
X124350000Y-56925000D03*
X124950000Y-56925000D03*
%TO.N,GND*%
X126950000Y-57550000D03*
X127550000Y-57550000D03*
X126950000Y-56925000D03*
X127550000Y-56925000D03*
X127550000Y-58175000D03*
X126950000Y-58175000D03*
X127025000Y-67550000D03*
X127025000Y-68150500D03*
X126400000Y-68150000D03*
X127650000Y-67550000D03*
X126400000Y-67550000D03*
X127650000Y-68150000D03*
%TO.N,/VBAT*%
X127025000Y-70150000D03*
X127025000Y-70750000D03*
X126400000Y-70750000D03*
X127650000Y-70150000D03*
X126400000Y-70150000D03*
X127650000Y-70750000D03*
X127025000Y-71450000D03*
X127025000Y-72050000D03*
X126400000Y-72050000D03*
X127650000Y-71450000D03*
X126400000Y-71450000D03*
X127650000Y-72050000D03*
%TO.N,GND*%
X127025000Y-74050000D03*
X127050000Y-74650000D03*
X126400000Y-74650000D03*
X127650000Y-74050000D03*
X126400000Y-74050000D03*
X127650000Y-74650000D03*
X127025000Y-75350000D03*
X127025000Y-75950000D03*
X126400000Y-75950000D03*
X127650000Y-75350000D03*
X126400000Y-75350000D03*
X127650000Y-75950000D03*
%TO.N,/VBAT*%
X127025000Y-77950000D03*
X127025000Y-78550000D03*
X126400000Y-78550000D03*
X127650000Y-77950000D03*
X126400000Y-77950000D03*
X127650000Y-78550000D03*
X127025000Y-79250000D03*
X127025000Y-79850000D03*
X126400000Y-79850000D03*
X127650000Y-79250000D03*
X126400000Y-79250000D03*
X127650000Y-79850000D03*
%TO.N,GND*%
X127025000Y-81850000D03*
X127025000Y-82450000D03*
X126400000Y-82450000D03*
X127650000Y-81850000D03*
X126400000Y-81850000D03*
X127650000Y-82450000D03*
X127075000Y-92550000D03*
X127675000Y-92525000D03*
X127075000Y-91900000D03*
X127675000Y-91900000D03*
X127675000Y-93150000D03*
X127075000Y-93150000D03*
X126900000Y-90325000D03*
X126900000Y-90925000D03*
X127525000Y-90325000D03*
X127525000Y-90925000D03*
X126275000Y-90925000D03*
X126275000Y-90325000D03*
%TO.N,/VBAT*%
X126900000Y-87725000D03*
X126900000Y-88325000D03*
X127525000Y-87725000D03*
X127525000Y-88325000D03*
X126275000Y-88325000D03*
X126275000Y-87725000D03*
X125075000Y-92525000D03*
X124475000Y-92525000D03*
X124475000Y-93150000D03*
X125075000Y-93150000D03*
X125075000Y-91900000D03*
X124475000Y-91900000D03*
%TO.N,/Motor1/MotorOutC*%
X121075000Y-87800000D03*
X121375000Y-89400000D03*
X120575000Y-90200000D03*
X120575000Y-89400000D03*
%TO.N,/Motor1/MotorOutA*%
X121375000Y-75900000D03*
X119000000Y-79900000D03*
X120775000Y-79700000D03*
%TO.N,/Motor1/MotorOutC*%
X119000000Y-85700000D03*
X121375000Y-90200000D03*
X119775000Y-89500000D03*
X119775000Y-85700000D03*
%TO.N,/Motor1/MotorOutA*%
X120575000Y-75900000D03*
%TO.N,/Motor1/MotorOutB*%
X121575000Y-80400000D03*
X120575000Y-84400000D03*
%TO.N,/Motor1/MotorOutA*%
X121375000Y-78300000D03*
%TO.N,/Motor1/MotorOutC*%
X119000000Y-90200000D03*
X119775000Y-90200000D03*
X119000000Y-89500000D03*
%TO.N,/Motor1/MotorOutB*%
X119775000Y-81000000D03*
%TO.N,/Motor1/MotorOutA*%
X119000000Y-75900000D03*
%TO.N,/Motor1/MotorOutC*%
X120675000Y-86000000D03*
%TO.N,/Motor1/MotorOutB*%
X121175000Y-83000000D03*
X119000000Y-81000000D03*
X121575000Y-81200000D03*
%TO.N,/Motor1/MotorOutA*%
X121375000Y-79100000D03*
%TO.N,/Motor1/MotorOutB*%
X119000000Y-84600000D03*
%TO.N,/Motor1/MotorOutA*%
X121375000Y-77500000D03*
X120675000Y-76600000D03*
%TO.N,/Motor1/MotorOutC*%
X121375000Y-88600000D03*
%TO.N,/Motor1/MotorOutB*%
X119775000Y-84600000D03*
%TO.N,/Motor1/MotorOutC*%
X121075000Y-86900000D03*
%TO.N,/Motor1/MotorOutB*%
X120875000Y-81700000D03*
%TO.N,/Motor1/MotorOutA*%
X119775000Y-79900000D03*
%TO.N,/Motor1/MotorOutB*%
X120575000Y-81000000D03*
%TO.N,/Motor1/MotorOutA*%
X119775000Y-75900000D03*
X121375000Y-76700000D03*
%TO.N,/Motor1/MotorOutB*%
X121575000Y-82100000D03*
%TO.N,/Motor4/MotorOutC*%
X149625000Y-79100000D03*
X149625000Y-78300000D03*
X151225000Y-75900000D03*
X151225000Y-79900000D03*
%TO.N,/Motor4/MotorOutA*%
X149625000Y-88600000D03*
X152000000Y-90200000D03*
X149925000Y-86900000D03*
X150325000Y-86000000D03*
X152000000Y-89500000D03*
X151225000Y-90200000D03*
%TO.N,/Motor4/MotorOutB*%
X150425000Y-81000000D03*
X152000000Y-84600000D03*
X149425000Y-81200000D03*
X149425000Y-80400000D03*
X150425000Y-84400000D03*
X150125000Y-81700000D03*
X149825000Y-83000000D03*
X151225000Y-84600000D03*
X151225000Y-81000000D03*
X149425000Y-82100000D03*
%TO.N,/Motor4/MotorOutC*%
X152000000Y-75900000D03*
X149625000Y-76700000D03*
%TO.N,/Motor4/MotorOutB*%
X152000000Y-81000000D03*
%TO.N,/Motor4/MotorOutC*%
X149625000Y-77500000D03*
X150325000Y-76600000D03*
X150425000Y-75900000D03*
X149625000Y-75900000D03*
X152000000Y-79900000D03*
X150225000Y-79700000D03*
%TO.N,/Motor4/MotorOutA*%
X149925000Y-87800000D03*
X149625000Y-89400000D03*
X150425000Y-90200000D03*
X150425000Y-89400000D03*
X152000000Y-85700000D03*
X149625000Y-90200000D03*
X151225000Y-89500000D03*
X151225000Y-85700000D03*
%TO.N,/Motor3/MotorOutA*%
X140125500Y-58253609D03*
%TO.N,Net-(Q18-G)*%
X147025000Y-62339500D03*
%TO.N,Net-(Q17-G)*%
X148650000Y-62400000D03*
%TO.N,Net-(Q16-G)*%
X147725000Y-71000000D03*
%TO.N,Net-(Q15-G)*%
X147150000Y-71485500D03*
%TO.N,Net-(Q14-G)*%
X146825000Y-74800000D03*
%TO.N,Net-(Q13-G)*%
X148800000Y-74950000D03*
%TO.N,/M2*%
X132875500Y-63525000D03*
%TO.N,/M3*%
X134193294Y-84975145D03*
%TO.N,/M1*%
X136525000Y-81000000D03*
%TO.N,/M4*%
X134325500Y-66875997D03*
%TO.N,/Motor2/MotorOutB*%
X136349500Y-65880637D03*
%TO.N,/Motor3/MotorOutB*%
X135256007Y-63243993D03*
%TO.N,/Motor3/CHIGH*%
X131399500Y-59640514D03*
%TO.N,/Motor3/AHIGH*%
X131781605Y-61030163D03*
%TO.N,/Motor3/BHIGH*%
X131471997Y-60340016D03*
%TO.N,/Motor3/ALOW*%
X132950000Y-58500000D03*
%TO.N,/Motor3/BLOW*%
X133000000Y-57550000D03*
%TO.N,/Motor3/CLOW*%
X133785897Y-57349502D03*
%TO.N,/Motor3/MotorOutB*%
X138875000Y-56225000D03*
%TO.N,/Motor3/MotorOutC*%
X132550498Y-56950000D03*
%TO.N,/Motor3/V_SENSE*%
X134484800Y-57378449D03*
%TO.N,Net-(Q13-G)*%
X140175000Y-62625000D03*
%TO.N,Net-(Q14-G)*%
X140175000Y-61925000D03*
%TO.N,Net-(Q15-G)*%
X140175000Y-61050000D03*
%TO.N,Net-(Q16-G)*%
X140175000Y-60350000D03*
%TO.N,Net-(Q17-G)*%
X140200008Y-59650945D03*
%TO.N,Net-(Q18-G)*%
X140225044Y-58951891D03*
%TO.N,/Motor3/MotorOutA*%
X131875000Y-63050000D03*
%TO.N,/Motor3/MotorOutC*%
X136626347Y-62215578D03*
%TO.N,/Motor3/BEMF_COMMON*%
X137675000Y-56275000D03*
X137192765Y-58689228D03*
%TO.N,/Motor3/GHC*%
X137907289Y-59899500D03*
%TO.N,/Motor3/GHB*%
X138038139Y-61097109D03*
%TO.N,/Motor3/GHA*%
X137334156Y-62302754D03*
X132825500Y-62099500D03*
%TO.N,/Motor3/GHB*%
X134031743Y-63206243D03*
%TO.N,/Motor3/GHC*%
X136526521Y-62907921D03*
%TO.N,/Motor2/MotorOutC*%
X133588984Y-67572300D03*
%TO.N,/Motor2/MotorOutA*%
X138075000Y-66599500D03*
%TO.N,Net-(Q7-G)*%
X122450000Y-58775000D03*
%TO.N,Net-(Q8-G)*%
X123225000Y-58775000D03*
%TO.N,Net-(Q9-G)*%
X122875000Y-67475000D03*
%TO.N,Net-(Q10-G)*%
X124300000Y-67725000D03*
%TO.N,Net-(Q11-G)*%
X122875000Y-71150000D03*
%TO.N,Net-(Q12-G)*%
X124450000Y-71250000D03*
%TO.N,/Motor2/MotorOutC*%
X121325000Y-70900000D03*
X121325000Y-71700000D03*
X119725000Y-74100000D03*
X119725000Y-70100000D03*
%TO.N,/Motor2/MotorOutA*%
X121325000Y-61400000D03*
X119050000Y-59800000D03*
X121025000Y-63100000D03*
X120625000Y-64000000D03*
X119050000Y-60500000D03*
X119725000Y-59800000D03*
%TO.N,/Motor2/MotorOutB*%
X120525000Y-69000000D03*
X119000000Y-65400000D03*
X120525000Y-65600000D03*
X120825000Y-68300000D03*
X121125000Y-67000000D03*
X119725000Y-65400000D03*
X119725000Y-69000000D03*
%TO.N,/Motor2/MotorOutC*%
X119000000Y-74100000D03*
X121325000Y-73300000D03*
%TO.N,/Motor2/MotorOutB*%
X119000000Y-69000000D03*
%TO.N,/Motor2/MotorOutC*%
X121325000Y-72500000D03*
X120625000Y-73400000D03*
X120525000Y-74100000D03*
X121325000Y-74100000D03*
X119000000Y-70100000D03*
X120725000Y-70300000D03*
%TO.N,/Motor2/MotorOutA*%
X121025000Y-62200000D03*
X121325000Y-60600000D03*
X120525000Y-59800000D03*
X120525000Y-60600000D03*
X119000000Y-64300000D03*
X121325000Y-59800000D03*
X119725000Y-60500000D03*
X119725000Y-64300000D03*
%TO.N,GND*%
X136300000Y-72650000D03*
%TO.N,/Motor2/V_SENSE*%
X138532041Y-72578173D03*
%TO.N,GND*%
X133304851Y-72751549D03*
%TO.N,/Motor2/MotorOutC*%
X135484016Y-72749500D03*
%TO.N,/Motor2/MotorOutA*%
X130692344Y-71405860D03*
%TO.N,/Motor2/MotorOutB*%
X130750000Y-73575000D03*
%TO.N,/Motor2/BEMF_COMMON*%
X131075000Y-74900000D03*
%TO.N,/Motor2/BEMFA_1*%
X132900000Y-71650000D03*
%TO.N,/Motor2/BEMFB_1*%
X133925000Y-71225000D03*
%TO.N,/Motor2/BEMFC_1*%
X133941124Y-72115277D03*
%TO.N,GND*%
X124500000Y-62325000D03*
X125200000Y-62325000D03*
X145750000Y-87675000D03*
%TO.N,/Motor1/BEMF_COMMON*%
X130950000Y-89625000D03*
X133808012Y-89177717D03*
%TO.N,/Motor1/V_SENSE*%
X136600000Y-90500000D03*
%TO.N,/Motor1/CLOW*%
X137378231Y-90557769D03*
%TO.N,/Motor1/BLOW*%
X138091149Y-90034942D03*
%TO.N,/Motor1/MotorOutA*%
X131262827Y-90250654D03*
X138225000Y-84650000D03*
%TO.N,/Motor1/ALOW*%
X138037500Y-89337500D03*
%TO.N,/Motor1/MotorOutB*%
X135509082Y-84208375D03*
X132029559Y-91582185D03*
%TO.N,/Motor1/MotorOutC*%
X133325000Y-84400000D03*
X138424502Y-91450000D03*
%TO.N,/Motor1/CHIGH*%
X139273200Y-88891800D03*
%TO.N,/Motor1/BHIGH*%
X139971022Y-88843331D03*
%TO.N,/Motor1/AHIGH*%
X140019655Y-88145521D03*
%TO.N,/Motor3/MotorOutC*%
X152000000Y-59800000D03*
X149900000Y-63100000D03*
X149600000Y-61400000D03*
X151200000Y-59800000D03*
X152000000Y-60500000D03*
X150300000Y-64000000D03*
X149900000Y-62200000D03*
X151200000Y-64300000D03*
X149600000Y-59800000D03*
X150400000Y-59800000D03*
X149600000Y-60600000D03*
X152000000Y-64300000D03*
X151200000Y-60500000D03*
X150400000Y-60600000D03*
%TO.N,/Motor3/MotorOutB*%
X151200000Y-69000000D03*
X151200000Y-65400000D03*
X149400000Y-68800000D03*
X149800000Y-67000000D03*
X150100000Y-68300000D03*
X150400000Y-65600000D03*
X149400000Y-69600000D03*
X152000000Y-65400000D03*
X150400000Y-69000000D03*
X149400000Y-67900000D03*
X152000000Y-69000000D03*
%TO.N,/Motor3/MotorOutA*%
X150200000Y-70300000D03*
X149600000Y-72500000D03*
X150300000Y-73400000D03*
X150400000Y-74100000D03*
X152000000Y-70100000D03*
X149600000Y-73300000D03*
X152000000Y-74100000D03*
X149600000Y-74100000D03*
X149600000Y-71700000D03*
X151200000Y-74100000D03*
X151200000Y-70100000D03*
X149600000Y-70900000D03*
%TO.N,Net-(Q1-G)*%
X130875000Y-85850000D03*
X125125000Y-75100000D03*
%TO.N,Net-(Q2-G)*%
X130900000Y-85150000D03*
X122775000Y-75025000D03*
%TO.N,Net-(Q3-G)*%
X130825000Y-86725000D03*
X122575000Y-78950000D03*
%TO.N,Net-(Q4-G)*%
X124987500Y-79085500D03*
X130825000Y-87425000D03*
%TO.N,Net-(Q5-G)*%
X130850000Y-88200000D03*
X123325000Y-87600000D03*
%TO.N,Net-(Q6-G)*%
X130824621Y-88899042D03*
X124175000Y-87600000D03*
%TO.N,/Motor4/MotorOutA*%
X132400000Y-81125000D03*
X139775000Y-75350000D03*
%TO.N,/Motor4/MotorOutB*%
X139541810Y-74243011D03*
X135575000Y-81750000D03*
%TO.N,/Motor4/MotorOutC*%
X132103518Y-75316245D03*
X140078200Y-82871800D03*
X137214500Y-80314904D03*
%TO.N,Net-(Q7-G)*%
X130725000Y-67150000D03*
%TO.N,/Motor1/GHA*%
X133025000Y-85150000D03*
X138225000Y-85725500D03*
%TO.N,/Motor1/GHB*%
X136609773Y-84654279D03*
X132900500Y-86850834D03*
%TO.N,/Motor1/GHC*%
X134375500Y-85650500D03*
X133173063Y-88037998D03*
%TO.N,Net-(Q8-G)*%
X130725000Y-67875497D03*
%TO.N,Net-(Q9-G)*%
X130725000Y-68575000D03*
%TO.N,Net-(Q10-G)*%
X130725000Y-69274503D03*
%TO.N,Net-(Q11-G)*%
X130725000Y-69975000D03*
%TO.N,Net-(Q12-G)*%
X130700000Y-70700000D03*
%TO.N,Net-(Q19-G)*%
X140149500Y-82100000D03*
X147372650Y-91609407D03*
%TO.N,Net-(Q20-G)*%
X139788364Y-81216590D03*
X147776464Y-91038235D03*
%TO.N,Net-(Q21-G)*%
X139825000Y-79325000D03*
X147875500Y-82314500D03*
%TO.N,Net-(Q22-G)*%
X140173803Y-78715462D03*
X147175997Y-82314500D03*
%TO.N,Net-(Q23-G)*%
X148350000Y-78650000D03*
X139927481Y-77386292D03*
%TO.N,Net-(Q24-G)*%
X147225000Y-78514500D03*
X140170509Y-76679491D03*
%TO.N,/Motor2/GHA*%
X132897485Y-66778521D03*
X138350000Y-67625500D03*
%TO.N,/Motor2/GHB*%
X136544030Y-66552546D03*
X132853200Y-68728200D03*
%TO.N,/Motor2/GHC*%
X134325500Y-67575500D03*
X132964843Y-69979685D03*
%TO.N,/Motor4/GHA*%
X132750500Y-80049500D03*
X138250000Y-81000500D03*
%TO.N,/Motor4/GHB*%
X137795903Y-79215000D03*
X134321584Y-81123649D03*
%TO.N,/Motor4/GHC*%
X138124503Y-77825498D03*
X136524500Y-80200000D03*
%TO.N,/Motor4/BEMF_COMMON*%
X140151684Y-75939418D03*
%TO.N,/Motor2/CLOW*%
X137840266Y-72474500D03*
%TO.N,/Motor2/BLOW*%
X138266760Y-71873212D03*
%TO.N,/Motor2/ALOW*%
X138300000Y-71174500D03*
%TO.N,/Motor2/CHIGH*%
X140017942Y-70880064D03*
%TO.N,/Motor2/BHIGH*%
X139624500Y-70125500D03*
%TO.N,/Motor2/AHIGH*%
X139673707Y-69427730D03*
%TO.N,/Motor4/V_SENSE*%
X134486987Y-75347840D03*
%TO.N,/Motor4/CLOW*%
X133787486Y-75349500D03*
%TO.N,/Motor4/BLOW*%
X132399500Y-75982048D03*
%TO.N,/Motor4/ALOW*%
X132934450Y-76525500D03*
%TO.N,/Motor4/CHIGH*%
X131299403Y-77584170D03*
%TO.N,/Motor4/BHIGH*%
X131366161Y-78280480D03*
%TO.N,/Motor4/AHIGH*%
X131449503Y-78975000D03*
%TD*%
D16*
%TO.N,Net-(Q19-G)*%
X145263243Y-89500000D02*
X143100000Y-89500000D01*
X143100000Y-89500000D02*
X141250000Y-87650000D01*
X147372650Y-91609407D02*
X145263243Y-89500000D01*
X141250000Y-87650000D02*
X141250000Y-83200500D01*
X141250000Y-83200500D02*
X140149500Y-82100000D01*
%TO.N,Net-(Q20-G)*%
X145500000Y-89100000D02*
X147438235Y-91038235D01*
X141700000Y-87525736D02*
X143274264Y-89100000D01*
X147438235Y-91038235D02*
X147776464Y-91038235D01*
X141700000Y-82943393D02*
X141700000Y-87525736D01*
X139973197Y-81216590D02*
X141700000Y-82943393D01*
X143274264Y-89100000D02*
X145500000Y-89100000D01*
X139788364Y-81216590D02*
X139973197Y-81216590D01*
%TO.N,Net-(Q13-G)*%
X146800000Y-75500000D02*
X148250000Y-75500000D01*
X148250000Y-75500000D02*
X148800000Y-74950000D01*
X144525000Y-73225000D02*
X146800000Y-75500000D01*
X140475000Y-62925000D02*
X140475000Y-70675000D01*
X143025000Y-73225000D02*
X144525000Y-73225000D01*
X140175000Y-62625000D02*
X140475000Y-62925000D01*
X140475000Y-70675000D02*
X143025000Y-73225000D01*
%TO.N,/M3*%
X133368439Y-85800000D02*
X134193294Y-84975145D01*
X132350000Y-85800000D02*
X133368439Y-85800000D01*
X130100000Y-83550000D02*
X132350000Y-85800000D01*
X130100000Y-72650000D02*
X130100000Y-83550000D01*
X130899451Y-71905860D02*
X130844140Y-71905860D01*
X130000000Y-63375000D02*
X131500000Y-64875000D01*
X131500000Y-71305311D02*
X130899451Y-71905860D01*
X134025000Y-55150000D02*
X132075736Y-55150000D01*
X130000000Y-57225736D02*
X130000000Y-63375000D01*
X134200000Y-54975000D02*
X134025000Y-55150000D01*
X132075736Y-55150000D02*
X130000000Y-57225736D01*
X131500000Y-64875000D02*
X131500000Y-71305311D01*
X130844140Y-71905860D02*
X130100000Y-72650000D01*
%TO.N,/M1*%
X134600000Y-55392893D02*
X134780000Y-55212893D01*
X134600000Y-55400000D02*
X134600000Y-55392893D01*
X131900000Y-55750000D02*
X134250000Y-55750000D01*
X130450000Y-57200000D02*
X131900000Y-55750000D01*
X130450000Y-63200000D02*
X130450000Y-57200000D01*
X131875000Y-64625000D02*
X130450000Y-63200000D01*
X131875000Y-73157107D02*
X131875000Y-64625000D01*
X133425000Y-80934172D02*
X133425000Y-79002660D01*
X133425000Y-79002660D02*
X131600000Y-77177660D01*
X134625000Y-81775000D02*
X134265828Y-81775000D01*
X134265828Y-81775000D02*
X133425000Y-80934172D01*
X134250000Y-55750000D02*
X134600000Y-55400000D01*
X135400000Y-81000000D02*
X134625000Y-81775000D01*
X131600000Y-77177660D02*
X131600000Y-73432107D01*
X136525000Y-81000000D02*
X135400000Y-81000000D01*
X134780000Y-55212893D02*
X134780000Y-53750000D01*
X131600000Y-73432107D02*
X131875000Y-73157107D01*
%TO.N,/M2*%
X132875500Y-62856607D02*
X132875500Y-63525000D01*
X132325500Y-62306607D02*
X132875500Y-62856607D01*
X133600000Y-58750000D02*
X132325500Y-60024500D01*
X134925000Y-58750000D02*
X133600000Y-58750000D01*
X136347282Y-57327718D02*
X134925000Y-58750000D01*
X136659239Y-57327718D02*
X136347282Y-57327718D01*
X132325500Y-60024500D02*
X132325500Y-62306607D01*
%TO.N,/Motor3/BEMF_COMMON*%
X137675000Y-58206993D02*
X137675000Y-56275000D01*
X137192765Y-58689228D02*
X137675000Y-58206993D01*
%TO.N,/M4*%
X138590000Y-54250000D02*
X138590000Y-53750000D01*
X136590000Y-56250000D02*
X138590000Y-54250000D01*
X132175000Y-56250000D02*
X136590000Y-56250000D01*
X130900000Y-63075000D02*
X130900000Y-57525000D01*
X130900000Y-57525000D02*
X132175000Y-56250000D01*
X132681942Y-67306942D02*
X132275000Y-66900000D01*
X133147942Y-67306942D02*
X132681942Y-67306942D01*
X133578887Y-66875997D02*
X133147942Y-67306942D01*
X132275000Y-66900000D02*
X132275000Y-64450000D01*
X132275000Y-64450000D02*
X130900000Y-63075000D01*
X134325500Y-66875997D02*
X133578887Y-66875997D01*
%TO.N,/Motor4/BEMF_COMMON*%
X136855132Y-76800000D02*
X139291102Y-76800000D01*
X139291102Y-76800000D02*
X140151684Y-75939418D01*
X136580632Y-76525500D02*
X136855132Y-76800000D01*
%TO.N,/Motor1/MotorOutA*%
X135475000Y-90825000D02*
X131837173Y-90825000D01*
X138725000Y-85150000D02*
X138725000Y-87575000D01*
X138725000Y-87575000D02*
X135475000Y-90825000D01*
X138225000Y-84650000D02*
X138725000Y-85150000D01*
X131837173Y-90825000D02*
X131262827Y-90250654D01*
%TO.N,/Motor3/MotorOutB*%
X139200000Y-56550000D02*
X138875000Y-56225000D01*
X139200000Y-61825000D02*
X139200000Y-56550000D01*
X138925000Y-64750000D02*
X139450000Y-64225000D01*
X139450000Y-64225000D02*
X139450000Y-62075000D01*
X139450000Y-62075000D02*
X139200000Y-61825000D01*
%TO.N,Net-(Q15-G)*%
X145014500Y-69350000D02*
X147150000Y-71485500D01*
X141325000Y-68150000D02*
X142525000Y-69350000D01*
X141325000Y-62042157D02*
X141325000Y-68150000D01*
X140332843Y-61050000D02*
X141325000Y-62042157D01*
X140175000Y-61050000D02*
X140332843Y-61050000D01*
X142525000Y-69350000D02*
X145014500Y-69350000D01*
%TO.N,Net-(Q14-G)*%
X143225000Y-72775000D02*
X144800000Y-72775000D01*
X144800000Y-72775000D02*
X146825000Y-74800000D01*
X140850000Y-62425000D02*
X140850000Y-70400000D01*
X140850000Y-70400000D02*
X143225000Y-72775000D01*
X140350000Y-61925000D02*
X140850000Y-62425000D01*
X140175000Y-61925000D02*
X140350000Y-61925000D01*
%TO.N,/Motor1/GHA*%
X138225000Y-85525000D02*
X138225000Y-85725500D01*
X136854279Y-84154279D02*
X138225000Y-85525000D01*
X136345721Y-84154279D02*
X136854279Y-84154279D01*
X135318393Y-84775000D02*
X135725000Y-84775000D01*
X135725000Y-84775000D02*
X136345721Y-84154279D01*
X133532107Y-84900000D02*
X133957107Y-84475000D01*
X133275000Y-84900000D02*
X133532107Y-84900000D01*
X133025000Y-85150000D02*
X133275000Y-84900000D01*
X133957107Y-84475000D02*
X135018393Y-84475000D01*
X135018393Y-84475000D02*
X135318393Y-84775000D01*
%TO.N,/Motor4/MotorOutB*%
X145375000Y-81275000D02*
X147300000Y-83200000D01*
X142075000Y-81275000D02*
X145375000Y-81275000D01*
X147300000Y-83200000D02*
X149625000Y-83200000D01*
X140700000Y-79900000D02*
X142075000Y-81275000D01*
X149625000Y-83200000D02*
X149825000Y-83000000D01*
X136775736Y-81750000D02*
X138625736Y-79900000D01*
X138625736Y-79900000D02*
X140700000Y-79900000D01*
X135575000Y-81750000D02*
X136775736Y-81750000D01*
%TO.N,Net-(Q21-G)*%
X147875500Y-82000500D02*
X147875500Y-82314500D01*
X142500000Y-80875000D02*
X146750000Y-80875000D01*
X140950000Y-79325000D02*
X142500000Y-80875000D01*
X139825000Y-79325000D02*
X140950000Y-79325000D01*
X146750000Y-80875000D02*
X147875500Y-82000500D01*
%TO.N,Net-(Q22-G)*%
X147175997Y-82322104D02*
X147175997Y-82314500D01*
X147668393Y-82814500D02*
X147175997Y-82322104D01*
X148085500Y-82814500D02*
X147668393Y-82814500D01*
X148375000Y-81675000D02*
X148375000Y-82525000D01*
X148375000Y-82525000D02*
X148085500Y-82814500D01*
X142700000Y-80425000D02*
X147125000Y-80425000D01*
X140173803Y-78715462D02*
X140990462Y-78715462D01*
X140990462Y-78715462D02*
X142700000Y-80425000D01*
X147125000Y-80425000D02*
X148375000Y-81675000D01*
%TO.N,Net-(Q24-G)*%
X145715621Y-77005121D02*
X147225000Y-78514500D01*
X140170509Y-76679491D02*
X140496139Y-77005121D01*
X140496139Y-77005121D02*
X145715621Y-77005121D01*
%TO.N,Net-(Q23-G)*%
X146589500Y-79014500D02*
X147985500Y-79014500D01*
X147985500Y-79014500D02*
X148350000Y-78650000D01*
X144900000Y-77325000D02*
X146589500Y-79014500D01*
X140174250Y-77386292D02*
X140235542Y-77325000D01*
X139927481Y-77386292D02*
X140174250Y-77386292D01*
X140235542Y-77325000D02*
X144900000Y-77325000D01*
%TO.N,Net-(Q7-G)*%
X125550000Y-60325000D02*
X123475000Y-58250000D01*
X122975000Y-58250000D02*
X122450000Y-58775000D01*
X127825000Y-60325000D02*
X125550000Y-60325000D01*
X128750000Y-65200000D02*
X128750000Y-61250000D01*
X123475000Y-58250000D02*
X122975000Y-58250000D01*
X130700000Y-67150000D02*
X128750000Y-65200000D01*
X128750000Y-61250000D02*
X127825000Y-60325000D01*
X130725000Y-67150000D02*
X130700000Y-67150000D01*
%TO.N,Net-(Q8-G)*%
X125425000Y-60825000D02*
X123375000Y-58775000D01*
X128275000Y-61600000D02*
X127500000Y-60825000D01*
X127500000Y-60825000D02*
X125425000Y-60825000D01*
X123375000Y-58775000D02*
X123225000Y-58775000D01*
X128275000Y-65575000D02*
X128275000Y-61600000D01*
X130575497Y-67875497D02*
X128275000Y-65575000D01*
X130725000Y-67875497D02*
X130575497Y-67875497D01*
%TO.N,Net-(Q9-G)*%
X123225000Y-67125000D02*
X122875000Y-67475000D01*
X126150000Y-68650000D02*
X124625000Y-67125000D01*
X124625000Y-67125000D02*
X123225000Y-67125000D01*
X130725000Y-68575000D02*
X130650000Y-68650000D01*
X130650000Y-68650000D02*
X126150000Y-68650000D01*
%TO.N,Net-(Q10-G)*%
X130025000Y-68975000D02*
X125550000Y-68975000D01*
X130324503Y-69274503D02*
X130025000Y-68975000D01*
X125550000Y-68975000D02*
X124300000Y-67725000D01*
X130725000Y-69274503D02*
X130324503Y-69274503D01*
%TO.N,Net-(Q11-G)*%
X129575000Y-69300000D02*
X124725000Y-69300000D01*
X130250000Y-69975000D02*
X129575000Y-69300000D01*
X130725000Y-69975000D02*
X130250000Y-69975000D01*
X124725000Y-69300000D02*
X122875000Y-71150000D01*
%TO.N,Net-(Q12-G)*%
X125625000Y-69625000D02*
X124450000Y-70800000D01*
X124450000Y-70800000D02*
X124450000Y-71250000D01*
X130475000Y-70475000D02*
X129975000Y-70475000D01*
X129125000Y-69625000D02*
X125625000Y-69625000D01*
X130700000Y-70700000D02*
X130475000Y-70475000D01*
X129975000Y-70475000D02*
X129125000Y-69625000D01*
%TO.N,Net-(Q18-G)*%
X145385500Y-60700000D02*
X147025000Y-62339500D01*
X142175000Y-60700000D02*
X145385500Y-60700000D01*
X140225044Y-58951891D02*
X140426891Y-58951891D01*
X140426891Y-58951891D02*
X142175000Y-60700000D01*
%TO.N,Net-(Q17-G)*%
X148150000Y-62900000D02*
X148650000Y-62400000D01*
X144962500Y-61125000D02*
X146737500Y-62900000D01*
X141900000Y-61125000D02*
X144962500Y-61125000D01*
X140425945Y-59650945D02*
X141900000Y-61125000D01*
X140200008Y-59650945D02*
X140425945Y-59650945D01*
X146737500Y-62900000D02*
X148150000Y-62900000D01*
%TO.N,Net-(Q16-G)*%
X147525000Y-71000000D02*
X147725000Y-71000000D01*
X141800000Y-67875000D02*
X142800000Y-68875000D01*
X142800000Y-68875000D02*
X145400000Y-68875000D01*
X141800000Y-61850000D02*
X141800000Y-67875000D01*
X145400000Y-68875000D02*
X147525000Y-71000000D01*
X140300000Y-60350000D02*
X141800000Y-61850000D01*
X140175000Y-60350000D02*
X140300000Y-60350000D01*
%TO.N,/Motor3/GHA*%
X133531743Y-62805743D02*
X132825500Y-62099500D01*
X133531743Y-63413350D02*
X133531743Y-62805743D01*
X133862386Y-63743993D02*
X133531743Y-63413350D01*
X137334156Y-62807393D02*
X136397556Y-63743993D01*
X136397556Y-63743993D02*
X133862386Y-63743993D01*
X137334156Y-62302754D02*
X137334156Y-62807393D01*
%TO.N,/Motor3/GHB*%
X138038139Y-61097109D02*
X136140877Y-61097109D01*
X136140877Y-61097109D02*
X134031743Y-63206243D01*
%TO.N,Net-(Q1-G)*%
X129200000Y-84175000D02*
X130875000Y-85850000D01*
X127875000Y-77275000D02*
X129200000Y-78600000D01*
X125125000Y-76525000D02*
X125875000Y-77275000D01*
X125875000Y-77275000D02*
X127875000Y-77275000D01*
X125125000Y-75100000D02*
X125125000Y-76525000D01*
X129200000Y-78600000D02*
X129200000Y-84175000D01*
%TO.N,Net-(Q2-G)*%
X129625000Y-83875000D02*
X130900000Y-85150000D01*
X129625000Y-78450000D02*
X129625000Y-83875000D01*
X126275000Y-76850000D02*
X128025000Y-76850000D01*
X128025000Y-76850000D02*
X129625000Y-78450000D01*
X125625000Y-74892893D02*
X125625000Y-76200000D01*
X125257107Y-74525000D02*
X125625000Y-74892893D01*
X123275000Y-74525000D02*
X125257107Y-74525000D01*
X125625000Y-76200000D02*
X126275000Y-76850000D01*
X122775000Y-75025000D02*
X123275000Y-74525000D01*
%TO.N,Net-(Q3-G)*%
X128800000Y-84700000D02*
X130825000Y-86725000D01*
X126050000Y-80750000D02*
X128075000Y-80750000D01*
X128075000Y-80750000D02*
X128800000Y-81475000D01*
X123100000Y-78425000D02*
X125200000Y-78425000D01*
X128800000Y-81475000D02*
X128800000Y-84700000D01*
X122575000Y-78950000D02*
X123100000Y-78425000D01*
X125200000Y-78425000D02*
X125650000Y-78875000D01*
X125650000Y-80350000D02*
X126050000Y-80750000D01*
X125650000Y-78875000D02*
X125650000Y-80350000D01*
%TO.N,Net-(Q4-G)*%
X130817893Y-87425000D02*
X130825000Y-87425000D01*
X128400000Y-85007107D02*
X130817893Y-87425000D01*
X127900000Y-81200000D02*
X128400000Y-81700000D01*
X124987500Y-80437500D02*
X125750000Y-81200000D01*
X124987500Y-79085500D02*
X124987500Y-80437500D01*
X125750000Y-81200000D02*
X127900000Y-81200000D01*
X128400000Y-81700000D02*
X128400000Y-85007107D01*
%TO.N,Net-(Q5-G)*%
X123850000Y-87075000D02*
X123325000Y-87600000D01*
X124425000Y-87075000D02*
X123850000Y-87075000D01*
X124825000Y-87475000D02*
X124425000Y-87075000D01*
X124825000Y-87825000D02*
X124825000Y-87475000D01*
X130816556Y-88200000D02*
X129991556Y-89025000D01*
X129991556Y-89025000D02*
X126025000Y-89025000D01*
X126025000Y-89025000D02*
X124825000Y-87825000D01*
X130850000Y-88200000D02*
X130816556Y-88200000D01*
%TO.N,Net-(Q6-G)*%
X130123663Y-89600000D02*
X130824621Y-88899042D01*
X125900000Y-89600000D02*
X130123663Y-89600000D01*
X124175000Y-87875000D02*
X125900000Y-89600000D01*
X124175000Y-87600000D02*
X124175000Y-87875000D01*
%TO.N,/Motor2/GHC*%
X132350000Y-69364842D02*
X132964843Y-69979685D01*
X132350000Y-68525000D02*
X132350000Y-69364842D01*
X133676000Y-68225000D02*
X132650000Y-68225000D01*
X132650000Y-68225000D02*
X132350000Y-68525000D01*
X134325500Y-67575500D02*
X133676000Y-68225000D01*
%TO.N,/Motor4/GHA*%
X132900000Y-80917893D02*
X132750500Y-80768393D01*
X133925000Y-82325000D02*
X132900000Y-81300000D01*
X136625000Y-82325000D02*
X133925000Y-82325000D01*
X132900000Y-81300000D02*
X132900000Y-80917893D01*
X132750500Y-80768393D02*
X132750500Y-80049500D01*
X137949500Y-81000500D02*
X136625000Y-82325000D01*
X138250000Y-81000500D02*
X137949500Y-81000500D01*
%TO.N,/Motor1/GHC*%
X132275000Y-86525000D02*
X132275000Y-87139935D01*
X132275000Y-87139935D02*
X133173063Y-88037998D01*
X132575000Y-86225000D02*
X132275000Y-86525000D01*
X133900000Y-86225000D02*
X132575000Y-86225000D01*
X134375500Y-85749500D02*
X133900000Y-86225000D01*
X134375500Y-85650500D02*
X134375500Y-85749500D01*
%TO.N,/Motor3/GHC*%
X138725000Y-60717211D02*
X137907289Y-59899500D01*
X138725000Y-61310078D02*
X138725000Y-60717211D01*
X136126347Y-61998653D02*
X136501361Y-61623639D01*
X138411439Y-61623639D02*
X138725000Y-61310078D01*
X136526521Y-62907921D02*
X136126347Y-62507747D01*
X136126347Y-62507747D02*
X136126347Y-61998653D01*
X136501361Y-61623639D02*
X138411439Y-61623639D01*
%TO.N,/Motor1/GHB*%
X136545721Y-84654279D02*
X136609773Y-84654279D01*
X134349166Y-86850834D02*
X136545721Y-84654279D01*
X132900500Y-86850834D02*
X134349166Y-86850834D01*
%TO.N,/Motor2/GHB*%
X133946800Y-68728200D02*
X136122454Y-66552546D01*
X136122454Y-66552546D02*
X136544030Y-66552546D01*
X132853200Y-68728200D02*
X133946800Y-68728200D01*
%TO.N,/Motor4/GHB*%
X135685000Y-79215000D02*
X134321584Y-80578416D01*
X134321584Y-80578416D02*
X134321584Y-81123649D01*
X137795903Y-79215000D02*
X135685000Y-79215000D01*
%TO.N,/Motor4/GHC*%
X138174503Y-79725000D02*
X136999500Y-79725000D01*
X138124503Y-77825498D02*
X138374503Y-78075498D01*
X136999500Y-79725000D02*
X136524500Y-80200000D01*
X138374503Y-78075498D02*
X138374503Y-79525000D01*
X138374503Y-79525000D02*
X138174503Y-79725000D01*
%TD*%
M02*
