%TF.GenerationSoftware,KiCad,Pcbnew,7.0.2*%
%TF.CreationDate,2023-05-24T20:20:14+03:00*%
%TF.ProjectId,Slimmeri_GD32,536c696d-6d65-4726-995f-474433322e6b,rev?*%
%TF.SameCoordinates,Original*%
%TF.FileFunction,Profile,NP*%
%FSLAX46Y46*%
G04 Gerber Fmt 4.6, Leading zero omitted, Abs format (unit mm)*
G04 Created by KiCad (PCBNEW 7.0.2) date 2023-05-24 20:20:14*
%MOMM*%
%LPD*%
G01*
G04 APERTURE LIST*
%TA.AperFunction,Profile*%
%ADD10C,0.100000*%
%TD*%
G04 APERTURE END LIST*
D10*
X147150000Y-57000000D02*
G75*
G03*
X148150000Y-58000000I999999J-1D01*
G01*
X151500000Y-58000000D02*
X148150000Y-58000000D01*
X147150000Y-57000000D02*
G75*
G03*
X146150000Y-56000000I-999999J1D01*
G01*
X152500000Y-59000000D02*
G75*
G03*
X151500000Y-58000000I-999999J1D01*
G01*
X118500000Y-91000000D02*
G75*
G03*
X119500000Y-92000000I1000000J0D01*
G01*
X123850000Y-93000000D02*
G75*
G03*
X122850000Y-92000000I-999999J1D01*
G01*
X119500000Y-92000000D02*
X122850000Y-92000000D01*
X123850000Y-93000000D02*
G75*
G03*
X124850000Y-94000000I999999J-1D01*
G01*
X151500000Y-92000000D02*
G75*
G03*
X152500000Y-91000000I1J999999D01*
G01*
X148150000Y-92000000D02*
G75*
G03*
X147150000Y-93000000I0J-1000000D01*
G01*
X146150000Y-94000000D02*
G75*
G03*
X147150000Y-93000000I0J1000000D01*
G01*
X151500000Y-92000000D02*
X148150000Y-92000000D01*
X124850000Y-56000000D02*
G75*
G03*
X123850000Y-57000000I-1J-999999D01*
G01*
X122850000Y-58000000D02*
G75*
G03*
X123850000Y-57000000I1J999999D01*
G01*
X119500000Y-58000000D02*
X122850000Y-58000000D01*
X119500000Y-58000000D02*
G75*
G03*
X118500000Y-59000000I0J-1000000D01*
G01*
X132100000Y-52350000D02*
G75*
G03*
X130600000Y-53850000I0J-1500000D01*
G01*
X140400000Y-53850000D02*
G75*
G03*
X138900000Y-52350000I-1500000J0D01*
G01*
X140400000Y-54000000D02*
X140400000Y-53850000D01*
X130600000Y-54000000D02*
X130600000Y-53850000D01*
X118500000Y-81050000D02*
G75*
G03*
X117500000Y-82050000I0J-1000000D01*
G01*
X118500000Y-76350000D02*
G75*
G03*
X117500000Y-77350000I0J-1000000D01*
G01*
X118500000Y-65450000D02*
X118500000Y-64250000D01*
X138900000Y-52350000D02*
X132100000Y-52350000D01*
X153500000Y-61750000D02*
G75*
G03*
X152500000Y-60750000I-1000000J0D01*
G01*
X152500000Y-73650000D02*
G75*
G03*
X153500000Y-72650000I0J1000000D01*
G01*
X118500000Y-85750000D02*
G75*
G03*
X117500000Y-86750000I0J-1000000D01*
G01*
X152500000Y-68950000D02*
X152500000Y-70150000D01*
X141250000Y-99800000D02*
X129750000Y-99800000D01*
X118500000Y-68950000D02*
X118500000Y-70150000D01*
X153500000Y-72650000D02*
X153500000Y-71150000D01*
X153500000Y-67950000D02*
X153500000Y-66450000D01*
X153500000Y-77350000D02*
G75*
G03*
X152500000Y-76350000I-1000000J0D01*
G01*
X117500000Y-82050000D02*
X117500000Y-83550000D01*
X153500000Y-82050000D02*
G75*
G03*
X152500000Y-81050000I-1000000J0D01*
G01*
X118500000Y-91000000D02*
X118500000Y-89250000D01*
X153500000Y-78850000D02*
X153500000Y-77350000D01*
X127500000Y-85000000D02*
G75*
G03*
X127500000Y-85000000I-2000000J0D01*
G01*
X117500000Y-63250000D02*
G75*
G03*
X118500000Y-64250000I1000000J0D01*
G01*
X153500000Y-83550000D02*
X153500000Y-82050000D01*
X128250000Y-98300000D02*
X128250000Y-95500000D01*
X152500000Y-68950000D02*
G75*
G03*
X153500000Y-67950000I0J1000000D01*
G01*
X117500000Y-83550000D02*
G75*
G03*
X118500000Y-84550000I1000000J0D01*
G01*
X118500000Y-60750000D02*
X118500000Y-59000000D01*
X152500000Y-73650000D02*
X152500000Y-76350000D01*
X144250000Y-94000000D02*
G75*
G03*
X142750000Y-95500000I0J-1500000D01*
G01*
X117500000Y-88250000D02*
G75*
G03*
X118500000Y-89250000I1000000J0D01*
G01*
X153500000Y-86750000D02*
G75*
G03*
X152500000Y-85750000I-1000000J0D01*
G01*
X152500000Y-59000000D02*
X152500000Y-60750000D01*
X153500000Y-63250000D02*
X153500000Y-61750000D01*
X140400000Y-54000000D02*
G75*
G03*
X142400000Y-56000000I2000000J0D01*
G01*
X152500000Y-64250000D02*
X152500000Y-65450000D01*
X128250000Y-95500000D02*
G75*
G03*
X126750000Y-94000000I-1500000J0D01*
G01*
X147500000Y-65000000D02*
G75*
G03*
X147500000Y-65000000I-2000000J0D01*
G01*
X141250000Y-99800000D02*
G75*
G03*
X142750000Y-98300000I0J1500000D01*
G01*
X126750000Y-94000000D02*
X124850000Y-94000000D01*
X128250000Y-98300000D02*
G75*
G03*
X129750000Y-99800000I1500000J0D01*
G01*
X117500000Y-71150000D02*
X117500000Y-72650000D01*
X117500000Y-61750000D02*
X117500000Y-63250000D01*
X153500000Y-66450000D02*
G75*
G03*
X152500000Y-65450000I-1000000J0D01*
G01*
X152500000Y-89250000D02*
X152500000Y-91000000D01*
X153500000Y-88250000D02*
X153500000Y-86750000D01*
X118500000Y-85750000D02*
X118500000Y-84550000D01*
X127500000Y-65000000D02*
G75*
G03*
X127500000Y-65000000I-2000000J0D01*
G01*
X118500000Y-70150000D02*
G75*
G03*
X117500000Y-71150000I0J-1000000D01*
G01*
X117500000Y-77350000D02*
X117500000Y-78850000D01*
X117500000Y-67950000D02*
G75*
G03*
X118500000Y-68950000I1000000J0D01*
G01*
X117500000Y-86750000D02*
X117500000Y-88250000D01*
X128600000Y-56000000D02*
G75*
G03*
X130600000Y-54000000I0J2000000D01*
G01*
X146150000Y-94000000D02*
X144250000Y-94000000D01*
X153500000Y-71150000D02*
G75*
G03*
X152500000Y-70150000I-1000000J0D01*
G01*
X118500000Y-76350000D02*
X118500000Y-73650000D01*
X117500000Y-72650000D02*
G75*
G03*
X118500000Y-73650000I1000000J0D01*
G01*
X118500000Y-81050000D02*
X118500000Y-79850000D01*
X118500000Y-65450000D02*
G75*
G03*
X117500000Y-66450000I0J-1000000D01*
G01*
X117500000Y-78850000D02*
G75*
G03*
X118500000Y-79850000I1000000J0D01*
G01*
X152500000Y-81050000D02*
X152500000Y-79850000D01*
X152500000Y-79850000D02*
G75*
G03*
X153500000Y-78850000I0J1000000D01*
G01*
X152500000Y-89250000D02*
G75*
G03*
X153500000Y-88250000I0J1000000D01*
G01*
X117500000Y-66450000D02*
X117500000Y-67950000D01*
X147500000Y-85000000D02*
G75*
G03*
X147500000Y-85000000I-2000000J0D01*
G01*
X152500000Y-84550000D02*
G75*
G03*
X153500000Y-83550000I0J1000000D01*
G01*
X128600000Y-56000000D02*
X124850000Y-56000000D01*
X146150000Y-56000000D02*
X142400000Y-56000000D01*
X118500000Y-60750000D02*
G75*
G03*
X117500000Y-61750000I0J-1000000D01*
G01*
X142750000Y-95500000D02*
X142750000Y-98300000D01*
X152500000Y-84550000D02*
X152500000Y-85750000D01*
X152500000Y-64250000D02*
G75*
G03*
X153500000Y-63250000I0J1000000D01*
G01*
M02*
