%TF.GenerationSoftware,KiCad,Pcbnew,7.0.2*%
%TF.CreationDate,2023-05-24T20:20:14+03:00*%
%TF.ProjectId,Slimmeri_GD32,536c696d-6d65-4726-995f-474433322e6b,rev?*%
%TF.SameCoordinates,Original*%
%TF.FileFunction,Legend,Bot*%
%TF.FilePolarity,Positive*%
%FSLAX46Y46*%
G04 Gerber Fmt 4.6, Leading zero omitted, Abs format (unit mm)*
G04 Created by KiCad (PCBNEW 7.0.2) date 2023-05-24 20:20:14*
%MOMM*%
%LPD*%
G01*
G04 APERTURE LIST*
%ADD10C,0.150000*%
%ADD11C,0.120000*%
%ADD12C,0.200000*%
%ADD13C,0.127000*%
G04 APERTURE END LIST*
D10*
X119666666Y-58971904D02*
X119666666Y-60305238D01*
X120142857Y-58210000D02*
X120619047Y-59638571D01*
X120619047Y-59638571D02*
X119380952Y-59638571D01*
X150176190Y-91505238D02*
X151319047Y-91505238D01*
X150747619Y-91505238D02*
X150747619Y-89505238D01*
X150747619Y-89505238D02*
X150938095Y-89790952D01*
X150938095Y-89790952D02*
X151128571Y-89981428D01*
X151128571Y-89981428D02*
X151319047Y-90076666D01*
X151519047Y-58595714D02*
X151423809Y-58500476D01*
X151423809Y-58500476D02*
X151233333Y-58405238D01*
X151233333Y-58405238D02*
X150757142Y-58405238D01*
X150757142Y-58405238D02*
X150566666Y-58500476D01*
X150566666Y-58500476D02*
X150471428Y-58595714D01*
X150471428Y-58595714D02*
X150376190Y-58786190D01*
X150376190Y-58786190D02*
X150376190Y-58976666D01*
X150376190Y-58976666D02*
X150471428Y-59262380D01*
X150471428Y-59262380D02*
X151614285Y-60405238D01*
X151614285Y-60405238D02*
X150376190Y-60405238D01*
X120564285Y-89605238D02*
X119326190Y-89605238D01*
X119326190Y-89605238D02*
X119992857Y-90367142D01*
X119992857Y-90367142D02*
X119707142Y-90367142D01*
X119707142Y-90367142D02*
X119516666Y-90462380D01*
X119516666Y-90462380D02*
X119421428Y-90557619D01*
X119421428Y-90557619D02*
X119326190Y-90748095D01*
X119326190Y-90748095D02*
X119326190Y-91224285D01*
X119326190Y-91224285D02*
X119421428Y-91414761D01*
X119421428Y-91414761D02*
X119516666Y-91510000D01*
X119516666Y-91510000D02*
X119707142Y-91605238D01*
X119707142Y-91605238D02*
X120278571Y-91605238D01*
X120278571Y-91605238D02*
X120469047Y-91510000D01*
X120469047Y-91510000D02*
X120564285Y-91414761D01*
X128988095Y-93875238D02*
X129083333Y-93827619D01*
X129083333Y-93827619D02*
X129226190Y-93827619D01*
X129226190Y-93827619D02*
X129369047Y-93875238D01*
X129369047Y-93875238D02*
X129464285Y-93970476D01*
X129464285Y-93970476D02*
X129511904Y-94065714D01*
X129511904Y-94065714D02*
X129559523Y-94256190D01*
X129559523Y-94256190D02*
X129559523Y-94399047D01*
X129559523Y-94399047D02*
X129511904Y-94589523D01*
X129511904Y-94589523D02*
X129464285Y-94684761D01*
X129464285Y-94684761D02*
X129369047Y-94780000D01*
X129369047Y-94780000D02*
X129226190Y-94827619D01*
X129226190Y-94827619D02*
X129130952Y-94827619D01*
X129130952Y-94827619D02*
X128988095Y-94780000D01*
X128988095Y-94780000D02*
X128940476Y-94732380D01*
X128940476Y-94732380D02*
X128940476Y-94399047D01*
X128940476Y-94399047D02*
X129130952Y-94399047D01*
X141904761Y-93927619D02*
X141571428Y-94927619D01*
X141571428Y-94927619D02*
X141238095Y-93927619D01*
X138383333Y-55410952D02*
X138383333Y-56077619D01*
X138621428Y-55030000D02*
X138859523Y-55744285D01*
X138859523Y-55744285D02*
X138240476Y-55744285D01*
X137657142Y-55077619D02*
X137038095Y-55077619D01*
X137038095Y-55077619D02*
X137371428Y-55458571D01*
X137371428Y-55458571D02*
X137228571Y-55458571D01*
X137228571Y-55458571D02*
X137133333Y-55506190D01*
X137133333Y-55506190D02*
X137085714Y-55553809D01*
X137085714Y-55553809D02*
X137038095Y-55649047D01*
X137038095Y-55649047D02*
X137038095Y-55887142D01*
X137038095Y-55887142D02*
X137085714Y-55982380D01*
X137085714Y-55982380D02*
X137133333Y-56030000D01*
X137133333Y-56030000D02*
X137228571Y-56077619D01*
X137228571Y-56077619D02*
X137514285Y-56077619D01*
X137514285Y-56077619D02*
X137609523Y-56030000D01*
X137609523Y-56030000D02*
X137657142Y-55982380D01*
X136309523Y-55172857D02*
X136261904Y-55125238D01*
X136261904Y-55125238D02*
X136166666Y-55077619D01*
X136166666Y-55077619D02*
X135928571Y-55077619D01*
X135928571Y-55077619D02*
X135833333Y-55125238D01*
X135833333Y-55125238D02*
X135785714Y-55172857D01*
X135785714Y-55172857D02*
X135738095Y-55268095D01*
X135738095Y-55268095D02*
X135738095Y-55363333D01*
X135738095Y-55363333D02*
X135785714Y-55506190D01*
X135785714Y-55506190D02*
X136357142Y-56077619D01*
X136357142Y-56077619D02*
X135738095Y-56077619D01*
X134438095Y-56027619D02*
X135009523Y-56027619D01*
X134723809Y-56027619D02*
X134723809Y-55027619D01*
X134723809Y-55027619D02*
X134819047Y-55170476D01*
X134819047Y-55170476D02*
X134914285Y-55265714D01*
X134914285Y-55265714D02*
X135009523Y-55313333D01*
X133954761Y-55027619D02*
X133621428Y-56027619D01*
X133621428Y-56027619D02*
X133288095Y-55027619D01*
X132038095Y-55125238D02*
X132133333Y-55077619D01*
X132133333Y-55077619D02*
X132276190Y-55077619D01*
X132276190Y-55077619D02*
X132419047Y-55125238D01*
X132419047Y-55125238D02*
X132514285Y-55220476D01*
X132514285Y-55220476D02*
X132561904Y-55315714D01*
X132561904Y-55315714D02*
X132609523Y-55506190D01*
X132609523Y-55506190D02*
X132609523Y-55649047D01*
X132609523Y-55649047D02*
X132561904Y-55839523D01*
X132561904Y-55839523D02*
X132514285Y-55934761D01*
X132514285Y-55934761D02*
X132419047Y-56030000D01*
X132419047Y-56030000D02*
X132276190Y-56077619D01*
X132276190Y-56077619D02*
X132180952Y-56077619D01*
X132180952Y-56077619D02*
X132038095Y-56030000D01*
X132038095Y-56030000D02*
X131990476Y-55982380D01*
X131990476Y-55982380D02*
X131990476Y-55649047D01*
X131990476Y-55649047D02*
X132180952Y-55649047D01*
D11*
%TO.C,RN16*%
X131350000Y-74730000D02*
X131850000Y-74730000D01*
X131350000Y-73170000D02*
X131850000Y-73170000D01*
%TO.C,RN15*%
X131350000Y-73130000D02*
X131850000Y-73130000D01*
X131350000Y-71570000D02*
X131850000Y-71570000D01*
%TO.C,RN13*%
X135780000Y-74175000D02*
X135780000Y-73675000D01*
X134220000Y-74175000D02*
X134220000Y-73675000D01*
%TO.C,RN12*%
X134205000Y-74175000D02*
X134205000Y-73675000D01*
X132645000Y-74175000D02*
X132645000Y-73675000D01*
%TO.C,RN17*%
X138750000Y-63055000D02*
X139250000Y-63055000D01*
X138750000Y-61495000D02*
X139250000Y-61495000D01*
%TO.C,C12*%
X136409420Y-66385000D02*
X136690580Y-66385000D01*
X136409420Y-65365000D02*
X136690580Y-65365000D01*
%TO.C,C45*%
X144885000Y-77661252D02*
X144885000Y-76238748D01*
X143065000Y-77661252D02*
X143065000Y-76238748D01*
%TO.C,RN11*%
X132275000Y-71405000D02*
X131775000Y-71405000D01*
X132275000Y-69845000D02*
X131775000Y-69845000D01*
%TO.C,C11*%
X133865580Y-90315000D02*
X133584420Y-90315000D01*
X133865580Y-91335000D02*
X133584420Y-91335000D01*
D12*
%TO.C,Q15*%
X149437500Y-67975000D02*
G75*
G03*
X149437500Y-67975000I-100000J0D01*
G01*
D13*
X145637500Y-71000000D02*
X148937500Y-71000000D01*
X148937500Y-71000000D02*
X148937500Y-70855000D01*
X145637500Y-70855000D02*
X145637500Y-71000000D01*
X148937500Y-67845000D02*
X148937500Y-67700000D01*
X145637500Y-67700000D02*
X145637500Y-67845000D01*
X148937500Y-67700000D02*
X145637500Y-67700000D01*
D11*
%TO.C,C26*%
X131709503Y-81165580D02*
X131709503Y-80884420D01*
X130689503Y-81165580D02*
X130689503Y-80884420D01*
%TO.C,C21*%
X137515580Y-63315000D02*
X137234420Y-63315000D01*
X137515580Y-64335000D02*
X137234420Y-64335000D01*
%TO.C,U2*%
X138460000Y-85340000D02*
X137985000Y-85340000D01*
X134240000Y-85340000D02*
X134715000Y-85340000D01*
X138460000Y-85815000D02*
X138460000Y-85340000D01*
X134240000Y-85815000D02*
X134240000Y-85340000D01*
X138460000Y-89085000D02*
X138460000Y-89560000D01*
X134240000Y-89085000D02*
X134240000Y-89560000D01*
X134240000Y-89560000D02*
X134715000Y-89560000D01*
%TO.C,U8*%
X132440000Y-80435000D02*
X132915000Y-80435000D01*
X136660000Y-80435000D02*
X136185000Y-80435000D01*
X132440000Y-79960000D02*
X132440000Y-80435000D01*
X136660000Y-79960000D02*
X136660000Y-80435000D01*
X132440000Y-76690000D02*
X132440000Y-76215000D01*
X136660000Y-76690000D02*
X136660000Y-76215000D01*
X136660000Y-76215000D02*
X136185000Y-76215000D01*
%TO.C,RN3*%
X132200000Y-89430000D02*
X131700000Y-89430000D01*
X132200000Y-87870000D02*
X131700000Y-87870000D01*
%TO.C,C28*%
X137465083Y-81390000D02*
X137183923Y-81390000D01*
X137465083Y-82410000D02*
X137183923Y-82410000D01*
D12*
%TO.C,Q21*%
X149450000Y-79325000D02*
G75*
G03*
X149450000Y-79325000I-100000J0D01*
G01*
D13*
X145650000Y-82350000D02*
X148950000Y-82350000D01*
X148950000Y-82350000D02*
X148950000Y-82205000D01*
X145650000Y-82205000D02*
X145650000Y-82350000D01*
X148950000Y-79195000D02*
X148950000Y-79050000D01*
X145650000Y-79050000D02*
X145650000Y-79195000D01*
X148950000Y-79050000D02*
X145650000Y-79050000D01*
D12*
%TO.C,Q23*%
X149462500Y-75525000D02*
G75*
G03*
X149462500Y-75525000I-100000J0D01*
G01*
D13*
X145662500Y-78550000D02*
X148962500Y-78550000D01*
X148962500Y-78550000D02*
X148962500Y-78405000D01*
X145662500Y-78405000D02*
X145662500Y-78550000D01*
X148962500Y-75395000D02*
X148962500Y-75250000D01*
X145662500Y-75250000D02*
X145662500Y-75395000D01*
X148962500Y-75250000D02*
X145662500Y-75250000D01*
D11*
%TO.C,C37*%
X125238748Y-58460000D02*
X126661252Y-58460000D01*
X125238748Y-56640000D02*
X126661252Y-56640000D01*
%TO.C,C67*%
X125363748Y-93435000D02*
X126786252Y-93435000D01*
X125363748Y-91615000D02*
X126786252Y-91615000D01*
D12*
%TO.C,Q13*%
X149462500Y-71725000D02*
G75*
G03*
X149462500Y-71725000I-100000J0D01*
G01*
D13*
X145662500Y-74750000D02*
X148962500Y-74750000D01*
X148962500Y-74750000D02*
X148962500Y-74605000D01*
X145662500Y-74605000D02*
X145662500Y-74750000D01*
X148962500Y-71595000D02*
X148962500Y-71450000D01*
X145662500Y-71450000D02*
X145662500Y-71595000D01*
X148962500Y-71450000D02*
X145662500Y-71450000D01*
D12*
%TO.C,Q3*%
X121750000Y-82075000D02*
G75*
G03*
X121750000Y-82075000I-100000J0D01*
G01*
D13*
X125350000Y-79050000D02*
X122050000Y-79050000D01*
X122050000Y-79050000D02*
X122050000Y-79195000D01*
X125350000Y-79195000D02*
X125350000Y-79050000D01*
X122050000Y-82205000D02*
X122050000Y-82350000D01*
X125350000Y-82350000D02*
X125350000Y-82205000D01*
X122050000Y-82350000D02*
X125350000Y-82350000D01*
D11*
%TO.C,C24*%
X137759420Y-75460000D02*
X138040580Y-75460000D01*
X137759420Y-74440000D02*
X138040580Y-74440000D01*
%TO.C,C65*%
X125990000Y-88613748D02*
X125990000Y-90036252D01*
X127810000Y-88613748D02*
X127810000Y-90036252D01*
%TO.C,C61*%
X126115000Y-72338748D02*
X126115000Y-73761252D01*
X127935000Y-72338748D02*
X127935000Y-73761252D01*
%TO.C,C69*%
X144960000Y-61361252D02*
X144960000Y-59938748D01*
X143140000Y-61361252D02*
X143140000Y-59938748D01*
D12*
%TO.C,Q11*%
X121737500Y-74400000D02*
G75*
G03*
X121737500Y-74400000I-100000J0D01*
G01*
D13*
X125337500Y-71375000D02*
X122037500Y-71375000D01*
X122037500Y-71375000D02*
X122037500Y-71520000D01*
X125337500Y-71520000D02*
X125337500Y-71375000D01*
X122037500Y-74530000D02*
X122037500Y-74675000D01*
X125337500Y-74675000D02*
X125337500Y-74530000D01*
X122037500Y-74675000D02*
X125337500Y-74675000D01*
D11*
%TO.C,C60*%
X126115000Y-80138748D02*
X126115000Y-81561252D01*
X127935000Y-80138748D02*
X127935000Y-81561252D01*
%TO.C,C54*%
X143165000Y-88613748D02*
X143165000Y-90036252D01*
X144985000Y-88613748D02*
X144985000Y-90036252D01*
D12*
%TO.C,Q9*%
X121750000Y-70725000D02*
G75*
G03*
X121750000Y-70725000I-100000J0D01*
G01*
D13*
X125350000Y-67700000D02*
X122050000Y-67700000D01*
X122050000Y-67700000D02*
X122050000Y-67845000D01*
X125350000Y-67845000D02*
X125350000Y-67700000D01*
X122050000Y-70855000D02*
X122050000Y-71000000D01*
X125350000Y-71000000D02*
X125350000Y-70855000D01*
X122050000Y-71000000D02*
X125350000Y-71000000D01*
D11*
%TO.C,C3*%
X139190000Y-84909420D02*
X139190000Y-85190580D01*
X140210000Y-84909420D02*
X140210000Y-85190580D01*
%TO.C,C20*%
X134540580Y-63765000D02*
X134259420Y-63765000D01*
X134540580Y-64785000D02*
X134259420Y-64785000D01*
%TO.C,RN25*%
X138424503Y-79595000D02*
X138924503Y-79595000D01*
X138424503Y-81155000D02*
X138924503Y-81155000D01*
%TO.C,RN10*%
X132275000Y-69830000D02*
X131775000Y-69830000D01*
X132275000Y-68270000D02*
X131775000Y-68270000D01*
%TO.C,C2*%
X136459420Y-84510000D02*
X136740580Y-84510000D01*
X136459420Y-83490000D02*
X136740580Y-83490000D01*
%TO.C,C62*%
X127935000Y-69861252D02*
X127935000Y-68438748D01*
X126115000Y-69861252D02*
X126115000Y-68438748D01*
%TO.C,C10*%
X133484420Y-84485000D02*
X133765580Y-84485000D01*
X133484420Y-83465000D02*
X133765580Y-83465000D01*
D12*
%TO.C,Q2*%
X121750000Y-78275000D02*
G75*
G03*
X121750000Y-78275000I-100000J0D01*
G01*
D13*
X125350000Y-75250000D02*
X122050000Y-75250000D01*
X122050000Y-75250000D02*
X122050000Y-75395000D01*
X125350000Y-75395000D02*
X125350000Y-75250000D01*
X122050000Y-78405000D02*
X122050000Y-78550000D01*
X125350000Y-78550000D02*
X125350000Y-78405000D01*
X122050000Y-78550000D02*
X125350000Y-78550000D01*
D11*
%TO.C,RN9*%
X132275000Y-68255000D02*
X131775000Y-68255000D01*
X132275000Y-66695000D02*
X131775000Y-66695000D01*
D12*
%TO.C,Q5*%
X121750000Y-90675000D02*
G75*
G03*
X121750000Y-90675000I-100000J0D01*
G01*
D13*
X125350000Y-87650000D02*
X122050000Y-87650000D01*
X122050000Y-87650000D02*
X122050000Y-87795000D01*
X125350000Y-87795000D02*
X125350000Y-87650000D01*
X122050000Y-90805000D02*
X122050000Y-90950000D01*
X125350000Y-90950000D02*
X125350000Y-90805000D01*
X122050000Y-90950000D02*
X125350000Y-90950000D01*
D11*
%TO.C,C19*%
X131760000Y-62990580D02*
X131760000Y-62709420D01*
X130740000Y-62990580D02*
X130740000Y-62709420D01*
%TO.C,C9*%
X139140000Y-66559420D02*
X139140000Y-66840580D01*
X140160000Y-66559420D02*
X140160000Y-66840580D01*
%TO.C,C27*%
X134465083Y-81265000D02*
X134183923Y-81265000D01*
X134465083Y-82285000D02*
X134183923Y-82285000D01*
%TO.C,C39*%
X127835000Y-61386252D02*
X127835000Y-59963748D01*
X126015000Y-61386252D02*
X126015000Y-59963748D01*
%TO.C,C14*%
X133409420Y-66385000D02*
X133690580Y-66385000D01*
X133409420Y-65365000D02*
X133690580Y-65365000D01*
%TO.C,C7*%
X138009420Y-73985000D02*
X138290580Y-73985000D01*
X138009420Y-72965000D02*
X138290580Y-72965000D01*
%TO.C,RN18*%
X138750000Y-59920000D02*
X139250000Y-59920000D01*
X138750000Y-61480000D02*
X139250000Y-61480000D01*
%TO.C,C59*%
X127935000Y-77661252D02*
X127935000Y-76238748D01*
X126115000Y-77661252D02*
X126115000Y-76238748D01*
%TO.C,RN2*%
X132200000Y-87855000D02*
X131700000Y-87855000D01*
X132200000Y-86295000D02*
X131700000Y-86295000D01*
%TO.C,RN27*%
X138424503Y-76445000D02*
X138924503Y-76445000D01*
X138424503Y-78005000D02*
X138924503Y-78005000D01*
%TO.C,RN26*%
X138424503Y-78020000D02*
X138924503Y-78020000D01*
X138424503Y-79580000D02*
X138924503Y-79580000D01*
%TO.C,C70*%
X145736252Y-56690000D02*
X144313748Y-56690000D01*
X145736252Y-58510000D02*
X144313748Y-58510000D01*
%TO.C,U6*%
X132515000Y-62510000D02*
X132990000Y-62510000D01*
X136735000Y-62510000D02*
X136260000Y-62510000D01*
X132515000Y-62035000D02*
X132515000Y-62510000D01*
X136735000Y-62035000D02*
X136735000Y-62510000D01*
X132515000Y-58765000D02*
X132515000Y-58290000D01*
X136735000Y-58765000D02*
X136735000Y-58290000D01*
X136735000Y-58290000D02*
X136260000Y-58290000D01*
D12*
%TO.C,Q19*%
X149437500Y-87925000D02*
G75*
G03*
X149437500Y-87925000I-100000J0D01*
G01*
D13*
X145637500Y-90950000D02*
X148937500Y-90950000D01*
X148937500Y-90950000D02*
X148937500Y-90805000D01*
X145637500Y-90805000D02*
X145637500Y-90950000D01*
X148937500Y-87795000D02*
X148937500Y-87650000D01*
X145637500Y-87650000D02*
X145637500Y-87795000D01*
X148937500Y-87650000D02*
X145637500Y-87650000D01*
D11*
%TO.C,RN1*%
X132200000Y-86280000D02*
X131700000Y-86280000D01*
X132200000Y-84720000D02*
X131700000Y-84720000D01*
%TO.C,RN19*%
X138750000Y-58345000D02*
X139250000Y-58345000D01*
X138750000Y-59905000D02*
X139250000Y-59905000D01*
D12*
%TO.C,Q17*%
X149487500Y-59350000D02*
G75*
G03*
X149487500Y-59350000I-100000J0D01*
G01*
D13*
X145687500Y-62375000D02*
X148987500Y-62375000D01*
X148987500Y-62375000D02*
X148987500Y-62230000D01*
X145687500Y-62230000D02*
X145687500Y-62375000D01*
X148987500Y-59220000D02*
X148987500Y-59075000D01*
X145687500Y-59075000D02*
X145687500Y-59220000D01*
X148987500Y-59075000D02*
X145687500Y-59075000D01*
D11*
%TO.C,C47*%
X144885000Y-69861252D02*
X144885000Y-68438748D01*
X143065000Y-69861252D02*
X143065000Y-68438748D01*
%TO.C,C66*%
X145711252Y-91540000D02*
X144288748Y-91540000D01*
X145711252Y-93360000D02*
X144288748Y-93360000D01*
%TO.C,U4*%
X138410000Y-67265000D02*
X137935000Y-67265000D01*
X134190000Y-67265000D02*
X134665000Y-67265000D01*
X138410000Y-67740000D02*
X138410000Y-67265000D01*
X134190000Y-67740000D02*
X134190000Y-67265000D01*
X138410000Y-71010000D02*
X138410000Y-71485000D01*
X134190000Y-71010000D02*
X134190000Y-71485000D01*
X134190000Y-71485000D02*
X134665000Y-71485000D01*
%TO.C,C46*%
X143065000Y-72338748D02*
X143065000Y-73761252D01*
X144885000Y-72338748D02*
X144885000Y-73761252D01*
%TO.C,C17*%
X138609420Y-57935000D02*
X138890580Y-57935000D01*
X138609420Y-56915000D02*
X138890580Y-56915000D01*
%TO.C,C44*%
X143065000Y-80138748D02*
X143065000Y-81561252D01*
X144885000Y-80138748D02*
X144885000Y-81561252D01*
D12*
%TO.C,Q7*%
X121725000Y-62050000D02*
G75*
G03*
X121725000Y-62050000I-100000J0D01*
G01*
D13*
X125325000Y-59025000D02*
X122025000Y-59025000D01*
X122025000Y-59025000D02*
X122025000Y-59170000D01*
X125325000Y-59170000D02*
X125325000Y-59025000D01*
X122025000Y-62180000D02*
X122025000Y-62325000D01*
X125325000Y-62325000D02*
X125325000Y-62180000D01*
X122025000Y-62325000D02*
X125325000Y-62325000D01*
%TD*%
M02*
