M48
; DRILL file {KiCad 7.0.4} date Thu May 25 14:45:15 2023
; FORMAT={-:-/ absolute / inch / decimal}
; #@! TF.CreationDate,2023-05-25T14:45:15+03:00
; #@! TF.GenerationSoftware,Kicad,Pcbnew,7.0.4
; #@! TF.FileFunction,Plated,1,6,PTH
FMAT,2
INCH
; #@! TA.AperFunction,Plated,PTH,ViaDrill
T1C0.0098
; #@! TA.AperFunction,Plated,PTH,ComponentDrill
T2C0.0197
; #@! TA.AperFunction,Plated,PTH,ComponentDrill
T3C0.0256
; #@! TA.AperFunction,Plated,PTH,ComponentDrill
T4C0.0984
%
G90
G05
T1
X4.685Y-2.5315
X4.685Y-2.5748
X4.685Y-2.7165
X4.685Y-2.7598
X4.685Y-2.9173
X4.685Y-2.9882
X4.685Y-3.1457
X4.685Y-3.189
X4.685Y-3.3307
X4.685Y-3.374
X4.685Y-3.5236
X4.685Y-3.5512
X4.687Y-2.3543
X4.687Y-2.3819
X4.7136Y-2.3543
X4.7136Y-2.3819
X4.7136Y-2.5315
X4.7136Y-2.5748
X4.7136Y-2.7165
X4.7136Y-2.7598
X4.7136Y-2.9173
X4.7156Y-2.9882
X4.7156Y-3.1457
X4.7156Y-3.189
X4.7156Y-3.3307
X4.7156Y-3.374
X4.7156Y-3.5236
X4.7156Y-3.5512
X4.7451Y-2.3543
X4.7451Y-2.3858
X4.7451Y-2.5827
X4.7451Y-2.7165
X4.7451Y-2.9173
X4.747Y-2.9882
X4.747Y-3.189
X4.747Y-3.3228
X4.747Y-3.5197
X4.747Y-3.5512
X4.749Y-2.5197
X4.749Y-2.8898
X4.751Y-3.0157
X4.751Y-3.3858
X4.753Y-2.7677
X4.7549Y-3.1378
X4.7569Y-2.689
X4.7589Y-3.2165
X4.7667Y-3.4213
X4.7667Y-3.4567
X4.7677Y-2.6132
X4.7687Y-2.6447
X4.7687Y-3.2795
X4.7766Y-2.3543
X4.7766Y-2.3858
X4.7766Y-2.4173
X4.7766Y-2.7913
X4.7766Y-2.8228
X4.7766Y-2.8543
X4.7766Y-2.8858
X4.7766Y-2.9173
X4.7776Y-2.4488
X4.7776Y-2.4843
X4.7785Y-2.9882
X4.7785Y-3.0197
X4.7785Y-3.0512
X4.7785Y-3.0827
X4.7785Y-3.1142
X4.7785Y-3.4882
X4.7785Y-3.5197
X4.7785Y-3.5512
X4.7795Y-2.6703
X4.7795Y-2.7126
X4.7795Y-2.7431
X4.7805Y-3.1683
X4.7805Y-3.1998
X4.7805Y-3.2352
X4.8091Y-2.4488
X4.81Y-2.3888
X4.81Y-2.4144
X4.81Y-2.7835
X4.81Y-2.875
X4.81Y-2.9006
X4.811Y-2.7303
X4.811Y-2.7559
X4.811Y-3.0276
X4.811Y-3.0531
X4.811Y-3.1772
X4.811Y-3.2028
X4.811Y-3.5157
X4.811Y-3.5413
X4.8209Y-2.314
X4.8258Y-3.1083
X4.8337Y-2.9537
X4.8376Y-2.6565
X4.8376Y-2.8012
X4.8514Y-2.314
X4.8553Y-3.4488
X4.8888Y-3.4488
X4.8937Y-2.6663
X4.8957Y-2.2411
X4.8957Y-2.2657
X4.8957Y-2.2904
X4.8996Y-2.8051
X4.9006Y-3.6181
X4.9006Y-3.6427
X4.9006Y-3.6673
X4.9016Y-2.4537
X4.9193Y-2.2411
X4.9193Y-2.2657
X4.9193Y-2.2904
X4.9208Y-3.1136
X4.9242Y-3.6181
X4.9242Y-3.6427
X4.9242Y-3.6673
X4.9262Y-2.9567
X4.9291Y-2.4537
X4.9715Y-3.4537
X4.9715Y-3.4774
X4.9715Y-3.5561
X4.9715Y-3.5797
X4.9724Y-2.3258
X4.9724Y-2.3494
X4.9724Y-2.4281
X4.9724Y-2.4518
X4.9764Y-2.6594
X4.9764Y-2.6831
X4.9764Y-2.7618
X4.9764Y-2.7854
X4.9764Y-2.813
X4.9764Y-2.8366
X4.9764Y-2.9154
X4.9764Y-2.939
X4.9764Y-2.9665
X4.9764Y-2.9902
X4.9764Y-3.0689
X4.9764Y-3.0925
X4.9764Y-3.1201
X4.9764Y-3.1437
X4.9764Y-3.2224
X4.9764Y-3.2461
X4.9961Y-3.4537
X4.9961Y-3.4774
X4.9961Y-3.5561
X4.9961Y-3.5797
X4.997Y-2.3258
X4.997Y-2.3494
X4.997Y-2.4281
X4.997Y-2.4518
X4.998Y-2.2411
X4.998Y-2.2657
X4.998Y-2.2904
X5.001Y-2.6594
X5.001Y-2.6831
X5.001Y-2.7618
X5.001Y-2.7854
X5.001Y-2.813
X5.001Y-2.8366
X5.001Y-2.9154
X5.001Y-2.9665
X5.001Y-2.9902
X5.001Y-3.0689
X5.001Y-3.0925
X5.001Y-3.1201
X5.001Y-3.1437
X5.001Y-3.2224
X5.001Y-3.2461
X5.002Y-2.939
X5.003Y-3.6181
X5.003Y-3.6437
X5.003Y-3.6673
X5.0207Y-3.4537
X5.0207Y-3.4774
X5.0207Y-3.5561
X5.0207Y-3.5797
X5.0217Y-2.2411
X5.0217Y-2.2657
X5.0217Y-2.2904
X5.0217Y-2.3258
X5.0217Y-2.3494
X5.0217Y-2.4281
X5.0217Y-2.4518
X5.0256Y-2.6594
X5.0256Y-2.6831
X5.0256Y-2.7618
X5.0256Y-2.7854
X5.0256Y-2.813
X5.0256Y-2.8366
X5.0256Y-2.9154
X5.0256Y-2.939
X5.0256Y-2.9665
X5.0256Y-2.9902
X5.0256Y-3.0689
X5.0256Y-3.0925
X5.0256Y-3.1201
X5.0256Y-3.1437
X5.0256Y-3.2224
X5.0256Y-3.2461
X5.0266Y-3.6181
X5.0266Y-3.6427
X5.0266Y-3.6673
X5.06Y-2.2215
X5.0896Y-3.7717
X5.0896Y-3.7972
X5.0896Y-3.8209
X5.0896Y-3.8455
X5.0896Y-3.8711
X5.0896Y-3.8947
X5.1132Y-3.7717
X5.1132Y-3.7963
X5.1132Y-3.8209
X5.1132Y-3.8455
X5.1132Y-3.8701
X5.1132Y-3.8947
X5.1154Y-2.208
X5.1447Y-3.0738
X5.1454Y-2.8113
X5.1457Y-2.7835
X5.1467Y-2.6437
X5.1467Y-2.6723
X5.1467Y-2.6998
X5.1467Y-2.7273
X5.1467Y-2.7549
X5.1479Y-3.2773
X5.1486Y-2.8967
X5.1506Y-3.5
X5.1506Y-3.4144
X5.1506Y-3.4419
X5.1516Y-2.9872
X5.1516Y-3.4724
X5.1525Y-2.5573
X5.1526Y-3.3799
X5.1535Y-2.1831
X5.1535Y-2.8622
X5.1535Y-3.0246
X5.1535Y-3.3524
X5.1555Y-2.6142
X5.1555Y-3.5285
X5.1555Y-2.9478
X5.1575Y-2.5866
X5.1673Y-2.1417
X5.1678Y-3.5532
X5.1684Y-3.2988
X5.1693Y-3.0545
X5.1693Y-2.0994
X5.1693Y-3.5876
X5.1719Y-3.0819
X5.1732Y-2.3481
X5.1752Y-3.1093
X5.1761Y-2.3756
X5.1791Y-2.3156
X5.1828Y-3.3223
X5.1883Y-2.4028
X5.1919Y-2.4823
X5.1933Y-2.2532
X5.198Y-3.6056
X5.2018Y-2.9661
X5.2067Y-3.2382
X5.2126Y-2.9914
X5.2126Y-3.1939
X5.2185Y-2.2421
X5.2264Y-3.1516
X5.2289Y-3.2452
X5.2294Y-2.4449
X5.2304Y-2.7058
X5.2313Y-2.501
X5.2322Y-2.6291
X5.2323Y-2.8209
X5.2323Y-3.4193
X5.2336Y-3.0128
X5.2343Y-2.3031
X5.2348Y-2.7551
X5.2362Y-2.2657
X5.2372Y-3.3524
X5.243Y-3.4661
X5.2482Y-2.8642
X5.249Y-3.3228
X5.2579Y-3.7717
X5.2579Y-3.7972
X5.2579Y-3.8209
X5.2579Y-3.8455
X5.2579Y-3.8711
X5.2579Y-3.8947
X5.2594Y-2.6603
X5.2617Y-3.2814
X5.2672Y-2.2579
X5.2672Y-2.9665
X5.268Y-3.5109
X5.2697Y-3.0472
X5.2697Y-3.0846
X5.2726Y-2.8041
X5.2733Y-2.8392
X5.2768Y-2.4884
X5.2815Y-3.7717
X5.2815Y-3.7963
X5.2815Y-3.8209
X5.2815Y-3.8455
X5.2815Y-3.8701
X5.2815Y-3.8947
X5.2832Y-3.3455
X5.2835Y-2.1644
X5.2844Y-2.3435
X5.2844Y-2.376
X5.2844Y-2.4114
X5.2883Y-3.1938
X5.2884Y-2.6329
X5.2884Y-2.6605
X5.2904Y-3.3721
X5.2947Y-2.259
X5.2948Y-2.9665
X5.3002Y-3.0472
X5.3002Y-3.0837
X5.3002Y-3.1132
X5.3012Y-2.8642
X5.3019Y-3.5561
X5.3189Y-2.189
X5.3199Y-2.4114
X5.3209Y-2.3435
X5.3209Y-2.376
X5.325Y-2.4899
X5.334Y-2.8642
X5.335Y-3.3153
X5.3356Y-3.0482
X5.3356Y-3.0837
X5.3376Y-3.2185
X5.3425Y-3.2628
X5.3435Y-2.6978
X5.3435Y-2.7303
X5.3435Y-2.7657
X5.3612Y-3.4085
X5.3612Y-3.4409
X5.3612Y-3.4764
X5.3642Y-2.5512
X5.3661Y-2.8602
X5.3681Y-2.5937
X5.374Y-2.9705
X5.375Y-3.1575
X5.375Y-3.189
X5.3751Y-2.4767
X5.3757Y-2.6202
X5.3772Y-3.0128
X5.378Y-3.563
X5.3783Y-3.3328
X5.3789Y-2.7657
X5.379Y-2.4494
X5.3799Y-2.6978
X5.3799Y-2.7303
X5.3803Y-2.257
X5.3817Y-2.2912
X5.3858Y-3.7736
X5.3858Y-3.7992
X5.3858Y-3.8228
X5.3858Y-3.8474
X5.3858Y-3.873
X5.3858Y-3.8967
X5.3957Y-2.5482
X5.3967Y-3.4764
X5.3976Y-3.4085
X5.3976Y-3.4409
X5.3977Y-2.9944
X5.4013Y-2.3106
X5.4021Y-3.162
X5.4069Y-2.4529
X5.4086Y-3.5653
X5.4094Y-3.7736
X5.4094Y-3.7982
X5.4094Y-3.8228
X5.4094Y-3.8474
X5.4094Y-3.872
X5.4094Y-3.8967
X5.4203Y-2.2156
X5.4242Y-2.5597
X5.425Y-3.1187
X5.4268Y-2.8533
X5.4294Y-2.3582
X5.4331Y-3.2736
X5.4333Y-3.5465
X5.4345Y-3.5172
X5.4346Y-2.4054
X5.436Y-2.622
X5.438Y-3.064
X5.4419Y-3.3327
X5.4419Y-3.375
X5.4429Y-3.189
X5.4436Y-2.8297
X5.4449Y-2.8021
X5.4469Y-2.6624
X5.4498Y-3.5876
X5.454Y-2.8574
X5.4585Y-3.2619
X5.4635Y-3.5189
X5.4675Y-2.2136
X5.4691Y-2.4888
X5.4695Y-2.5492
X5.4715Y-2.1752
X5.4793Y-3.5797
X5.4828Y-3.4993
X5.4902Y-2.8553
X5.4938Y-2.923
X5.4941Y-2.811
X5.497Y-2.7608
X5.499Y-2.7334
X5.502Y-2.1033
X5.503Y-2.9665
X5.5035Y-3.1975
X5.5049Y-3.0752
X5.5049Y-3.123
X5.5059Y-2.2195
X5.5069Y-2.56
X5.5079Y-2.1673
X5.509Y-3.0467
X5.5107Y-3.4978
X5.5118Y-3.5561
X5.5125Y-2.7906
X5.5126Y-3.4703
X5.5149Y-3.2627
X5.5168Y-2.2934
X5.5177Y-3.1659
X5.5177Y-3.2323
X5.5177Y-2.8415
X5.5178Y-2.9897
X5.5185Y-3.0189
X5.5187Y-3.099
X5.5187Y-2.376
X5.5187Y-2.4035
X5.5187Y-2.438
X5.5187Y-2.4656
X5.5197Y-2.9075
X5.5197Y-2.3485
X5.5207Y-2.2628
X5.5207Y-2.3209
X5.5354Y-2.2087
X5.5591Y-3.7746
X5.5591Y-3.8002
X5.5591Y-3.8238
X5.5591Y-3.8484
X5.5591Y-3.874
X5.5591Y-3.8976
X5.5699Y-2.2185
X5.5827Y-3.7746
X5.5827Y-3.7992
X5.5827Y-3.8238
X5.5827Y-3.8484
X5.5827Y-3.873
X5.5827Y-3.8976
X5.626Y-2.2244
X5.6437Y-2.6594
X5.6437Y-2.6831
X5.6437Y-2.7618
X5.6437Y-2.7854
X5.6437Y-2.813
X5.6437Y-2.8366
X5.6437Y-2.9154
X5.6437Y-2.939
X5.6437Y-2.9665
X5.6437Y-2.9902
X5.6437Y-3.0689
X5.6437Y-3.0925
X5.6437Y-3.1201
X5.6437Y-3.1437
X5.6437Y-3.2224
X5.6437Y-3.2461
X5.6457Y-3.6152
X5.6457Y-3.6398
X5.6457Y-3.6644
X5.6467Y-2.2431
X5.6467Y-2.2677
X5.6467Y-2.2923
X5.6467Y-2.3248
X5.6467Y-2.3484
X5.6467Y-2.4272
X5.6467Y-2.4508
X5.6476Y-3.4537
X5.6476Y-3.4774
X5.6476Y-3.5561
X5.6476Y-3.5797
X5.6683Y-2.6594
X5.6683Y-2.6831
X5.6683Y-2.7618
X5.6683Y-2.7854
X5.6683Y-2.813
X5.6683Y-2.8366
X5.6683Y-2.9154
X5.6683Y-2.939
X5.6683Y-2.9665
X5.6683Y-2.9902
X5.6683Y-3.0689
X5.6683Y-3.0925
X5.6683Y-3.1201
X5.6683Y-3.1437
X5.6683Y-3.2224
X5.6683Y-3.2461
X5.6693Y-3.6152
X5.6693Y-3.6398
X5.6693Y-3.6644
X5.6703Y-2.2431
X5.6703Y-2.2677
X5.6703Y-2.2923
X5.6713Y-2.3248
X5.6713Y-2.3484
X5.6713Y-2.4272
X5.6713Y-2.4508
X5.6722Y-3.4537
X5.6722Y-3.4774
X5.6722Y-3.5561
X5.6722Y-3.5797
X5.6929Y-2.6594
X5.6929Y-2.6831
X5.6929Y-2.7618
X5.6929Y-2.7854
X5.6929Y-2.813
X5.6929Y-2.8366
X5.6929Y-2.9154
X5.6929Y-2.939
X5.6929Y-2.9665
X5.6929Y-2.9902
X5.6929Y-3.0689
X5.6929Y-3.0925
X5.6929Y-3.1201
X5.6929Y-3.1437
X5.6929Y-3.2224
X5.6929Y-3.2461
X5.6959Y-2.3248
X5.6959Y-2.3484
X5.6959Y-2.4272
X5.6959Y-2.4508
X5.6969Y-3.4537
X5.6969Y-3.4774
X5.6969Y-3.5561
X5.6969Y-3.5797
X5.7382Y-3.4518
X5.748Y-3.6152
X5.748Y-3.6398
X5.748Y-3.6644
X5.749Y-2.2431
X5.749Y-2.2677
X5.749Y-2.2923
X5.7667Y-3.4518
X5.7717Y-3.6152
X5.7717Y-3.6398
X5.7717Y-3.6644
X5.7726Y-2.2431
X5.7726Y-2.2677
X5.7726Y-2.2923
X5.7805Y-2.9449
X5.7884Y-2.4543
X5.7933Y-2.8144
X5.7943Y-3.2407
X5.7963Y-3.0911
X5.8021Y-3.6067
X5.8159Y-2.7953
X5.818Y-3.5842
X5.8219Y-3.2407
X5.8406Y-3.0965
X5.8524Y-2.4567
X5.8583Y-2.7047
X5.8583Y-2.7303
X5.8583Y-2.9508
X5.8583Y-3.125
X5.8583Y-3.1516
X5.8583Y-3.1772
X5.8583Y-3.4902
X5.8583Y-3.5157
X5.8593Y-2.8524
X5.8593Y-2.878
X5.8593Y-3.002
X5.8593Y-3.0276
X5.8593Y-3.4557
X5.8602Y-2.3652
X5.8602Y-2.3907
X5.876Y-3.435
X5.8839Y-2.6683
X5.8839Y-2.7037
X5.8839Y-2.7352
X5.8858Y-3.1575
X5.8858Y-3.189
X5.8858Y-3.2431
X5.8898Y-2.3543
X5.8898Y-2.3858
X5.8898Y-2.4173
X5.8898Y-2.7913
X5.8898Y-2.8228
X5.8898Y-2.8543
X5.8898Y-2.8858
X5.8898Y-2.9173
X5.8907Y-2.9882
X5.8907Y-3.0197
X5.8907Y-3.0512
X5.8907Y-3.0827
X5.8907Y-3.4596
X5.8907Y-3.4882
X5.8907Y-3.5197
X5.8907Y-3.5512
X5.8976Y-2.6378
X5.8976Y-3.1093
X5.8976Y-3.4124
X5.9016Y-2.4488
X5.9016Y-2.4843
X5.9026Y-2.686
X5.9026Y-3.2175
X5.9026Y-3.2677
X5.9134Y-2.7677
X5.9173Y-2.5197
X5.9173Y-2.8898
X5.9183Y-3.0157
X5.9183Y-3.3858
X5.9213Y-2.3543
X5.9213Y-2.3858
X5.9213Y-2.5827
X5.9213Y-2.7165
X5.9213Y-2.9173
X5.9213Y-3.1329
X5.9222Y-2.9882
X5.9222Y-3.189
X5.9222Y-3.3228
X5.9222Y-3.5197
X5.9222Y-3.5512
X5.9528Y-2.3543
X5.9528Y-2.3819
X5.9528Y-2.5315
X5.9528Y-2.5748
X5.9528Y-2.7165
X5.9528Y-2.7598
X5.9528Y-2.9173
X5.9537Y-2.9882
X5.9537Y-3.1457
X5.9537Y-3.189
X5.9537Y-3.3307
X5.9537Y-3.374
X5.9537Y-3.5236
X5.9537Y-3.5512
X5.9843Y-2.3543
X5.9843Y-2.3819
X5.9843Y-2.5315
X5.9843Y-2.5748
X5.9843Y-2.7165
X5.9843Y-2.7598
X5.9843Y-2.9173
X5.9843Y-2.9882
X5.9843Y-3.1457
X5.9843Y-3.189
X5.9843Y-3.3307
X5.9843Y-3.374
X5.9843Y-3.5236
X5.9843Y-3.5512
T2
X4.6654Y-2.4311
X4.6654Y-2.4902
X4.6654Y-2.6161
X4.6654Y-2.6752
X4.6654Y-2.8012
X4.6654Y-2.8602
X4.6654Y-3.0453
X4.6654Y-3.1043
X4.6654Y-3.2303
X4.6654Y-3.2894
X4.6654Y-3.4154
X4.6654Y-3.4744
X4.6949Y-2.4606
X4.6949Y-2.6457
X4.6949Y-2.8307
X4.6949Y-3.0748
X4.6949Y-3.2598
X4.6949Y-3.4449
X4.7244Y-2.4311
X4.7244Y-2.4902
X4.7244Y-2.6161
X4.7244Y-2.6752
X4.7244Y-2.8012
X4.7244Y-2.8602
X4.7244Y-3.0453
X4.7244Y-3.1043
X4.7244Y-3.2303
X4.7244Y-3.2894
X4.7244Y-3.4154
X4.7244Y-3.4744
X5.9449Y-2.4311
X5.9449Y-2.4902
X5.9449Y-2.6161
X5.9449Y-2.6752
X5.9449Y-2.8012
X5.9449Y-2.8602
X5.9449Y-3.0453
X5.9449Y-3.1043
X5.9449Y-3.2303
X5.9449Y-3.2894
X5.9449Y-3.4154
X5.9449Y-3.4744
X5.9744Y-2.4606
X5.9744Y-2.6457
X5.9744Y-2.8307
X5.9744Y-3.0748
X5.9744Y-3.2598
X5.9744Y-3.4449
X6.0039Y-2.4311
X6.0039Y-2.4902
X6.0039Y-2.6161
X6.0039Y-2.6752
X6.0039Y-2.8012
X6.0039Y-2.8602
X6.0039Y-3.0453
X6.0039Y-3.1043
X6.0039Y-3.2303
X6.0039Y-3.2894
X6.0039Y-3.4154
X6.0039Y-3.4744
T3
X5.2063Y-2.1117
X5.2563Y-2.1117
X5.3063Y-2.1117
X5.3563Y-2.1117
X5.4063Y-2.1117
X5.4563Y-2.1117
T4
X5.185Y-3.8346
X5.4843Y-3.8346
T0
M30
