%TF.GenerationSoftware,KiCad,Pcbnew,7.0.4*%
%TF.CreationDate,2023-05-25T14:45:12+03:00*%
%TF.ProjectId,fpv_findland_esc,6670765f-6669-46e6-946c-616e645f6573,Rev_0.2*%
%TF.SameCoordinates,Original*%
%TF.FileFunction,Copper,L2,Inr*%
%TF.FilePolarity,Positive*%
%FSLAX46Y46*%
G04 Gerber Fmt 4.6, Leading zero omitted, Abs format (unit mm)*
G04 Created by KiCad (PCBNEW 7.0.4) date 2023-05-25 14:45:12*
%MOMM*%
%LPD*%
G01*
G04 APERTURE LIST*
G04 Aperture macros list*
%AMRoundRect*
0 Rectangle with rounded corners*
0 $1 Rounding radius*
0 $2 $3 $4 $5 $6 $7 $8 $9 X,Y pos of 4 corners*
0 Add a 4 corners polygon primitive as box body*
4,1,4,$2,$3,$4,$5,$6,$7,$8,$9,$2,$3,0*
0 Add four circle primitives for the rounded corners*
1,1,$1+$1,$2,$3*
1,1,$1+$1,$4,$5*
1,1,$1+$1,$6,$7*
1,1,$1+$1,$8,$9*
0 Add four rect primitives between the rounded corners*
20,1,$1+$1,$2,$3,$4,$5,0*
20,1,$1+$1,$4,$5,$6,$7,0*
20,1,$1+$1,$6,$7,$8,$9,0*
20,1,$1+$1,$8,$9,$2,$3,0*%
G04 Aperture macros list end*
%TA.AperFunction,ComponentPad*%
%ADD10C,1.000000*%
%TD*%
%TA.AperFunction,ComponentPad*%
%ADD11RoundRect,0.750000X-0.750000X0.750000X-0.750000X-0.750000X0.750000X-0.750000X0.750000X0.750000X0*%
%TD*%
%TA.AperFunction,ComponentPad*%
%ADD12RoundRect,0.750000X0.750000X-0.750000X0.750000X0.750000X-0.750000X0.750000X-0.750000X-0.750000X0*%
%TD*%
%TA.AperFunction,ComponentPad*%
%ADD13RoundRect,1.000000X-2.000000X-1.000000X2.000000X-1.000000X2.000000X1.000000X-2.000000X1.000000X0*%
%TD*%
%TA.AperFunction,ComponentPad*%
%ADD14O,1.000000X2.000000*%
%TD*%
%TA.AperFunction,ViaPad*%
%ADD15C,0.550000*%
%TD*%
%TA.AperFunction,Conductor*%
%ADD16C,0.150000*%
%TD*%
G04 APERTURE END LIST*
D10*
%TO.N,/Motor3/MotorOutA*%
%TO.C,J7*%
X152500000Y-71150000D03*
X151000000Y-71150000D03*
D11*
X151750000Y-71900000D03*
D10*
X152500000Y-72650000D03*
X151000000Y-72650000D03*
%TD*%
%TO.N,/Motor2/MotorOutA*%
%TO.C,J4*%
X120000000Y-61750000D03*
X118500000Y-61750000D03*
D11*
X119250000Y-62500000D03*
D10*
X120000000Y-63250000D03*
X118500000Y-63250000D03*
%TD*%
%TO.N,/Motor3/MotorOutB*%
%TO.C,J8*%
X152500000Y-66450000D03*
X151000000Y-66450000D03*
D11*
X151750000Y-67200000D03*
D10*
X152500000Y-67950000D03*
X151000000Y-67950000D03*
%TD*%
%TO.N,/Motor4/MotorOutC*%
%TO.C,J12*%
X151000000Y-78850000D03*
X152500000Y-78850000D03*
D12*
X151750000Y-78100000D03*
D10*
X151000000Y-77350000D03*
X152500000Y-77350000D03*
%TD*%
D13*
%TO.N,/VBAT*%
%TO.C,TP14*%
X139300000Y-97400000D03*
%TD*%
D10*
%TO.N,/Motor2/MotorOutB*%
%TO.C,J5*%
X120000000Y-66450000D03*
X118500000Y-66450000D03*
D11*
X119250000Y-67200000D03*
D10*
X120000000Y-67950000D03*
X118500000Y-67950000D03*
%TD*%
%TO.N,/Motor3/MotorOutC*%
%TO.C,J9*%
X152500000Y-61750000D03*
X151000000Y-61750000D03*
D11*
X151750000Y-62500000D03*
D10*
X152500000Y-63250000D03*
X151000000Y-63250000D03*
%TD*%
%TO.N,/Motor4/MotorOutB*%
%TO.C,J11*%
X151000000Y-83550000D03*
X152500000Y-83550000D03*
D12*
X151750000Y-82800000D03*
D10*
X151000000Y-82050000D03*
X152500000Y-82050000D03*
%TD*%
D13*
%TO.N,GND*%
%TO.C,TP13*%
X131700000Y-97400000D03*
%TD*%
D10*
%TO.N,/Motor1/MotorOutA*%
%TO.C,J1*%
X118500000Y-78850000D03*
X120000000Y-78850000D03*
D12*
X119250000Y-78100000D03*
D10*
X118500000Y-77350000D03*
X120000000Y-77350000D03*
%TD*%
%TO.N,/Motor4/MotorOutA*%
%TO.C,J10*%
X151000000Y-88250000D03*
X152500000Y-88250000D03*
D12*
X151750000Y-87500000D03*
D10*
X151000000Y-86750000D03*
X152500000Y-86750000D03*
%TD*%
%TO.N,/Motor1/MotorOutB*%
%TO.C,J2*%
X118500000Y-83550000D03*
X120000000Y-83550000D03*
D12*
X119250000Y-82800000D03*
D10*
X118500000Y-82050000D03*
X120000000Y-82050000D03*
%TD*%
D14*
%TO.N,/M4*%
%TO.C,J13*%
X138590000Y-53637500D03*
%TO.N,/M3*%
X137320000Y-53637500D03*
%TO.N,/M2*%
X136050000Y-53637500D03*
%TO.N,/M1*%
X134780000Y-53637500D03*
%TO.N,/VBAT*%
X133510000Y-53637500D03*
%TO.N,GND*%
X132240000Y-53637500D03*
%TD*%
D10*
%TO.N,/Motor2/MotorOutC*%
%TO.C,J6*%
X120000000Y-71150000D03*
X118500000Y-71150000D03*
D11*
X119250000Y-71900000D03*
D10*
X120000000Y-72650000D03*
X118500000Y-72650000D03*
%TD*%
%TO.N,/Motor1/MotorOutC*%
%TO.C,J3*%
X118500000Y-88250000D03*
X120000000Y-88250000D03*
D12*
X119250000Y-87500000D03*
D10*
X118500000Y-86750000D03*
X120000000Y-86750000D03*
%TD*%
D15*
%TO.N,GND*%
X134150000Y-97675000D03*
X133550000Y-98325000D03*
X138916052Y-63215676D03*
X130900000Y-72700000D03*
X135525000Y-77425000D03*
X144600000Y-67550000D03*
X136175000Y-86575000D03*
X131300000Y-91125000D03*
X127025000Y-81850000D03*
X140149003Y-80413160D03*
X127025000Y-68150500D03*
X140600000Y-56100000D03*
X144050000Y-59050000D03*
X133550000Y-96450000D03*
X124500000Y-62325000D03*
X130850000Y-75875000D03*
X134225000Y-60350000D03*
X136175000Y-88300000D03*
X127025000Y-75350000D03*
X143975000Y-81850000D03*
X139900000Y-55050000D03*
X144075000Y-90925000D03*
X127675000Y-92525000D03*
X125200000Y-62325000D03*
X127650000Y-75950000D03*
X133550000Y-97675000D03*
X133550000Y-98925000D03*
X129875000Y-95800000D03*
X127650000Y-74650000D03*
X129875000Y-97050000D03*
X143975000Y-74650000D03*
X127550000Y-59075000D03*
X139875000Y-65025000D03*
X143425000Y-59050000D03*
X135525000Y-78325000D03*
X139175000Y-90925000D03*
X127025000Y-67550000D03*
X144000000Y-93075000D03*
X144675000Y-59650000D03*
X126925000Y-59675000D03*
X129930408Y-56083415D03*
X126275000Y-90325000D03*
X133550000Y-95800000D03*
X127675000Y-91900000D03*
X127550000Y-57550000D03*
X134150000Y-96425000D03*
X136250000Y-64800000D03*
X132814926Y-82427719D03*
X140200000Y-73850000D03*
X144050000Y-59650000D03*
X135725000Y-70250000D03*
X129275000Y-96450000D03*
X127650000Y-82450000D03*
X126950000Y-57550000D03*
X139750000Y-53425000D03*
X126300000Y-59675000D03*
X134150000Y-98300000D03*
X133304851Y-72751549D03*
X129275000Y-98925000D03*
X143425000Y-57600000D03*
X144025000Y-58225000D03*
X144600000Y-81850000D03*
X143425000Y-59650000D03*
X129275000Y-97675000D03*
X127025000Y-75950000D03*
X144700000Y-90325000D03*
X143425000Y-56975000D03*
X136650000Y-68525000D03*
X135100000Y-55600000D03*
X143350000Y-75950000D03*
X140150000Y-72175000D03*
X134150000Y-95800000D03*
X143350000Y-67550000D03*
X142900000Y-56500000D03*
X127650000Y-81850000D03*
X129275000Y-98325000D03*
X127550000Y-56925000D03*
X135725000Y-68525000D03*
X127025000Y-74050000D03*
X131000000Y-65700000D03*
X126950000Y-58175000D03*
X137100000Y-87400000D03*
X143975000Y-82450000D03*
X137100000Y-86575000D03*
X144000000Y-92450000D03*
X133850000Y-78350000D03*
X127550000Y-58175000D03*
X143350000Y-82450000D03*
X144025000Y-56975000D03*
X144700000Y-90925000D03*
X136300000Y-72650000D03*
X126400000Y-81850000D03*
X143425000Y-58225000D03*
X143400000Y-92450000D03*
X144600000Y-74050000D03*
X126300000Y-59075000D03*
X131277911Y-83788804D03*
X127650000Y-68150000D03*
X143400000Y-91825000D03*
X130900000Y-55450000D03*
X127075000Y-91900000D03*
X126400000Y-74050000D03*
X134225000Y-61250000D03*
X127025000Y-82450000D03*
X138000000Y-83150000D03*
X130674500Y-78075000D03*
X131910150Y-57231529D03*
X129875000Y-96425000D03*
X127550000Y-59675000D03*
X139450000Y-72525000D03*
X129875000Y-98925000D03*
X134625000Y-77400000D03*
X135725000Y-69350000D03*
X140000000Y-90325000D03*
X126950000Y-56925000D03*
X132250000Y-82250000D03*
X145750000Y-87675000D03*
X138646800Y-82853200D03*
X143350000Y-74650000D03*
X127525000Y-90325000D03*
X129875000Y-97675000D03*
X127675000Y-93150000D03*
X127075000Y-92550000D03*
X137075000Y-88300000D03*
X144675000Y-59050000D03*
X133550000Y-97050000D03*
X129275000Y-97050000D03*
X143975000Y-68150000D03*
X126400000Y-75950000D03*
X129275000Y-95800000D03*
X144000000Y-91825000D03*
X127650000Y-67550000D03*
X131300000Y-53325000D03*
X126400000Y-75350000D03*
X146475000Y-87675000D03*
X143975000Y-67550000D03*
X135150000Y-59525000D03*
X127525000Y-90925000D03*
X144600000Y-74650000D03*
X138975000Y-55250000D03*
X144600000Y-82450000D03*
X140225000Y-57475000D03*
X134625000Y-79075500D03*
X144600000Y-68150000D03*
X137050000Y-64725000D03*
X143350000Y-68150000D03*
X143975000Y-75350000D03*
X126400000Y-82450000D03*
X136650000Y-69350000D03*
X136625000Y-70250000D03*
X133850000Y-77400000D03*
X143975000Y-74050000D03*
X126400000Y-74650000D03*
X126900000Y-90925000D03*
X127050000Y-74650000D03*
X135125000Y-61250000D03*
X136175000Y-87400000D03*
X143350000Y-75350000D03*
X143450000Y-90925000D03*
X127650000Y-74050000D03*
X134150000Y-97050000D03*
X131250000Y-54400000D03*
X144600000Y-75950000D03*
X143350000Y-74050000D03*
X126925000Y-59075000D03*
X141475000Y-56350000D03*
X143350000Y-81850000D03*
X143975000Y-75950000D03*
X126400000Y-68150000D03*
X127075000Y-93150000D03*
X134625000Y-78325000D03*
X128525000Y-56425000D03*
X137101760Y-76058885D03*
X126400000Y-67550000D03*
X126900000Y-90325000D03*
X134650000Y-72749500D03*
X144075000Y-90325000D03*
X134150000Y-98925000D03*
X130755746Y-83244254D03*
X135150000Y-60350000D03*
X126275000Y-90925000D03*
X143400000Y-93075000D03*
X129875000Y-98300000D03*
X144025000Y-57600000D03*
X134225000Y-59525000D03*
X143450000Y-90325000D03*
X144600000Y-75350000D03*
X139850000Y-56375000D03*
X127650000Y-75350000D03*
%TO.N,/Motor1/BEMF_COMMON*%
X130950000Y-89625000D03*
X133808012Y-89177717D03*
%TO.N,/Motor1/V_SENSE*%
X136600000Y-90500000D03*
%TO.N,/Motor1/CLOW*%
X137378231Y-90557769D03*
%TO.N,/Motor1/BLOW*%
X138006503Y-90082220D03*
%TO.N,/Motor1/MotorOutA*%
X122200000Y-76900000D03*
X120775000Y-79700000D03*
X119000000Y-75900000D03*
X121375000Y-76700000D03*
X122200000Y-77550000D03*
X120675000Y-76600000D03*
X121375000Y-79100000D03*
X120575000Y-75900000D03*
X119000000Y-79900000D03*
X119775000Y-75900000D03*
X131262827Y-90250654D03*
X121375000Y-77500000D03*
X119775000Y-79900000D03*
X121375000Y-75900000D03*
X138225000Y-84650000D03*
X121375000Y-78300000D03*
%TO.N,/Motor1/ALOW*%
X138037500Y-89337500D03*
%TO.N,/Motor1/MotorOutB*%
X135509082Y-84208375D03*
X122200000Y-81350000D03*
X121425000Y-80475000D03*
X119000000Y-84600000D03*
X122200000Y-80700000D03*
X121125000Y-83300000D03*
X132029559Y-91582185D03*
X120875000Y-81700000D03*
X119000000Y-81000000D03*
X119775000Y-84600000D03*
X121425000Y-81275000D03*
X119775000Y-81000000D03*
X120575000Y-81000000D03*
X121425000Y-82175000D03*
X120575000Y-84400000D03*
%TO.N,/Motor1/MotorOutC*%
X119000000Y-85700000D03*
X133325000Y-84400000D03*
X119775000Y-90200000D03*
X122200000Y-89300000D03*
X122200000Y-89950000D03*
X121375000Y-90200000D03*
X121375000Y-88600000D03*
X119775000Y-89500000D03*
X120675000Y-86000000D03*
X119000000Y-90200000D03*
X121375000Y-89400000D03*
X138424502Y-91125000D03*
X121075000Y-87800000D03*
X121075000Y-86900000D03*
X119000000Y-89500000D03*
X120575000Y-90200000D03*
X120575000Y-89400000D03*
X119775000Y-85700000D03*
%TO.N,/Motor1/CHIGH*%
X139263755Y-88881649D03*
%TO.N,/Motor1/BHIGH*%
X139971022Y-88843331D03*
%TO.N,/Motor1/AHIGH*%
X140019655Y-88145521D03*
%TO.N,/Motor2/MotorOutA*%
X130692344Y-71405860D03*
X119000000Y-64300000D03*
X122150000Y-62200000D03*
X121325000Y-59800000D03*
X119725000Y-64300000D03*
X122175000Y-61325000D03*
X121350000Y-63100000D03*
X122175000Y-60675000D03*
X138075000Y-66599500D03*
X121325000Y-60600000D03*
X121325000Y-61400000D03*
X119050000Y-59800000D03*
X120625000Y-64000000D03*
X119725000Y-60500000D03*
X120525000Y-59800000D03*
X119725000Y-59800000D03*
X119050000Y-60500000D03*
X120525000Y-60600000D03*
X121350000Y-62200000D03*
%TO.N,/Motor2/MotorOutB*%
X121400000Y-69675000D03*
X119725000Y-69000000D03*
X122175000Y-70700000D03*
X122200000Y-70000000D03*
X119000000Y-69000000D03*
X121100000Y-66375000D03*
X121400000Y-68900000D03*
X136349500Y-65880637D03*
X119725000Y-65400000D03*
X120525000Y-69000000D03*
X121400000Y-67825000D03*
X121125000Y-67175000D03*
X122200000Y-69350000D03*
X120525000Y-65600000D03*
X120825000Y-68300000D03*
X130775000Y-73575500D03*
X119000000Y-65400000D03*
%TO.N,/Motor2/MotorOutC*%
X121325000Y-74100000D03*
X122175000Y-73675000D03*
X119000000Y-74100000D03*
X122175000Y-73025000D03*
X133588984Y-67572300D03*
X120525000Y-74100000D03*
X121325000Y-71700000D03*
X135484016Y-72749500D03*
X119000000Y-70100000D03*
X119725000Y-70100000D03*
X119725000Y-74100000D03*
X120625000Y-73400000D03*
X120725000Y-70300000D03*
X121325000Y-73300000D03*
X121325000Y-72500000D03*
X121325000Y-70900000D03*
%TO.N,Net-(Q1-G)*%
X130875000Y-85850000D03*
X125125000Y-75100000D03*
%TO.N,Net-(Q2-G)*%
X130900000Y-85150000D03*
X122775000Y-75025000D03*
%TO.N,Net-(Q3-G)*%
X130825000Y-86725000D03*
X122575000Y-78950000D03*
%TO.N,Net-(Q4-G)*%
X124987500Y-79085500D03*
X130825000Y-87425000D03*
%TO.N,Net-(Q5-G)*%
X130850000Y-88200000D03*
X123325000Y-87600000D03*
%TO.N,Net-(Q6-G)*%
X130824621Y-88899042D03*
X124175000Y-87600000D03*
%TO.N,/Motor3/MotorOutA*%
X148825000Y-72450000D03*
X150200000Y-70300000D03*
X149600000Y-72500000D03*
X150300000Y-73400000D03*
X150400000Y-74100000D03*
X152000000Y-70100000D03*
X148825000Y-73100000D03*
X149600000Y-73300000D03*
X152000000Y-74100000D03*
X149600000Y-74100000D03*
X149600000Y-71700000D03*
X151200000Y-74100000D03*
X140125500Y-58253609D03*
X131875000Y-63050000D03*
X151200000Y-70100000D03*
X149600000Y-70900000D03*
%TO.N,/Motor3/MotorOutB*%
X151200000Y-69000000D03*
X138925000Y-64750000D03*
X151200000Y-65400000D03*
X148800000Y-68700000D03*
X149450000Y-68675000D03*
X149800000Y-67000000D03*
X149925000Y-68225000D03*
X138875000Y-56225000D03*
X150400000Y-65600000D03*
X148800000Y-69350000D03*
X149450000Y-69475000D03*
X135256007Y-63243993D03*
X152000000Y-65400000D03*
X150400000Y-69000000D03*
X149450000Y-67775000D03*
X152000000Y-69000000D03*
%TO.N,/Motor3/MotorOutC*%
X152000000Y-59800000D03*
X149900000Y-63100000D03*
X149600000Y-61400000D03*
X151200000Y-59800000D03*
X152000000Y-60500000D03*
X148850000Y-60075000D03*
X150300000Y-64000000D03*
X149900000Y-62200000D03*
X148850000Y-60725000D03*
X151200000Y-64300000D03*
X149600000Y-59800000D03*
X150400000Y-59800000D03*
X149600000Y-60600000D03*
X152000000Y-64300000D03*
X136626347Y-62215578D03*
X132550498Y-56950000D03*
X151200000Y-60500000D03*
X150400000Y-60600000D03*
%TO.N,/Motor4/MotorOutA*%
X148800000Y-88650000D03*
X149625000Y-90200000D03*
X132400000Y-81125000D03*
X150425000Y-90200000D03*
X151225000Y-85700000D03*
X149625000Y-89400000D03*
X148825000Y-87775000D03*
X152000000Y-85700000D03*
X152000000Y-89500000D03*
X149625000Y-87875000D03*
X148800000Y-89300000D03*
X149250000Y-87250000D03*
X151225000Y-90200000D03*
X149625000Y-88600000D03*
X150325000Y-86000000D03*
X139775000Y-75350000D03*
X151225000Y-89500000D03*
X150425000Y-89400000D03*
X152000000Y-90200000D03*
X149800000Y-86675000D03*
%TO.N,/Motor4/MotorOutB*%
X139541810Y-74243011D03*
X150425000Y-81000000D03*
X149500000Y-80200000D03*
X150425000Y-84400000D03*
X152000000Y-84600000D03*
X151225000Y-81000000D03*
X151225000Y-84600000D03*
X149500000Y-82375000D03*
X152000000Y-81000000D03*
X148800000Y-80050000D03*
X149925000Y-81725000D03*
X148800000Y-79375000D03*
X149925000Y-83000000D03*
X135575000Y-81750000D03*
X149500000Y-81000000D03*
X148800000Y-80700000D03*
%TO.N,/Motor4/MotorOutC*%
X149625000Y-78300000D03*
X150425000Y-75900000D03*
X152000000Y-75900000D03*
X132126149Y-75338169D03*
X148825000Y-76900000D03*
X149800000Y-78975000D03*
X149625000Y-76700000D03*
X140078200Y-82871800D03*
X150400000Y-79575000D03*
X148825000Y-76250000D03*
X152000000Y-79900000D03*
X150325000Y-76600000D03*
X151225000Y-75900000D03*
X149625000Y-75900000D03*
X137214500Y-80314904D03*
X149625000Y-77500000D03*
X151225000Y-79900000D03*
%TO.N,Net-(Q7-G)*%
X122450000Y-58775000D03*
X130725000Y-67150000D03*
%TO.N,/Motor1/GHA*%
X133025000Y-85150000D03*
X138225000Y-85725500D03*
%TO.N,/Motor1/GHB*%
X136609773Y-84654279D03*
X132900500Y-86850834D03*
%TO.N,/Motor1/GHC*%
X134375500Y-85650500D03*
X133173063Y-88037998D03*
%TO.N,Net-(Q8-G)*%
X123225000Y-58775000D03*
X130725000Y-67875497D03*
%TO.N,Net-(Q9-G)*%
X122875000Y-67475000D03*
X130725000Y-68575000D03*
%TO.N,Net-(Q10-G)*%
X130725000Y-69274503D03*
X124300000Y-67725000D03*
%TO.N,Net-(Q11-G)*%
X122875000Y-71150000D03*
X130725000Y-69975000D03*
%TO.N,Net-(Q12-G)*%
X130700000Y-70700000D03*
X124450000Y-71250000D03*
%TO.N,Net-(Q13-G)*%
X140175000Y-62625000D03*
X148800000Y-74950000D03*
%TO.N,Net-(Q14-G)*%
X146825000Y-74800000D03*
X140175000Y-61925000D03*
%TO.N,Net-(Q15-G)*%
X140175000Y-61050000D03*
X147150000Y-71485500D03*
%TO.N,Net-(Q16-G)*%
X140175000Y-60350000D03*
X147725000Y-71000000D03*
%TO.N,Net-(Q17-G)*%
X140200008Y-59650945D03*
X148650000Y-62400000D03*
%TO.N,Net-(Q18-G)*%
X140225044Y-58951891D03*
X147025000Y-62339500D03*
%TO.N,Net-(Q19-G)*%
X140149500Y-82100000D03*
X147372650Y-91609407D03*
%TO.N,Net-(Q20-G)*%
X139788364Y-81216590D03*
X147776464Y-91038235D03*
%TO.N,Net-(Q21-G)*%
X139825000Y-79325000D03*
X147875500Y-82314500D03*
%TO.N,Net-(Q22-G)*%
X140173803Y-78715462D03*
X147175997Y-82314500D03*
%TO.N,Net-(Q23-G)*%
X148350000Y-78650000D03*
X139927481Y-77386292D03*
%TO.N,Net-(Q24-G)*%
X147225000Y-78514500D03*
X140170509Y-76679491D03*
%TO.N,/Motor2/GHA*%
X132897485Y-66778521D03*
X138350000Y-67625500D03*
%TO.N,/Motor2/GHB*%
X136544030Y-66552546D03*
X132853200Y-68728200D03*
%TO.N,/Motor2/GHC*%
X134325500Y-67575500D03*
X132964843Y-69979685D03*
%TO.N,/Motor2/BEMFC_1*%
X133941124Y-72115277D03*
%TO.N,/Motor2/BEMF_COMMON*%
X130950500Y-74875000D03*
%TO.N,/Motor2/BEMFA_1*%
X132900000Y-71650000D03*
%TO.N,/Motor2/BEMFB_1*%
X133925000Y-71225000D03*
%TO.N,/Motor3/GHA*%
X137334156Y-62302754D03*
X132825500Y-62099500D03*
%TO.N,/Motor3/GHB*%
X138038139Y-61097109D03*
X134031743Y-63206243D03*
%TO.N,/Motor3/GHC*%
X137907289Y-59899500D03*
X136526521Y-62907921D03*
%TO.N,/Motor3/BEMF_COMMON*%
X137192765Y-58689228D03*
X137675000Y-56275000D03*
%TO.N,/Motor4/GHA*%
X132750500Y-80049500D03*
X138250000Y-81000500D03*
%TO.N,/Motor4/GHB*%
X137795903Y-79215000D03*
X134321584Y-81123649D03*
%TO.N,/Motor4/GHC*%
X138124503Y-77825498D03*
X136524500Y-80200000D03*
%TO.N,/Motor4/BEMF_COMMON*%
X136580632Y-76525500D03*
X140151684Y-75939418D03*
%TO.N,/Motor2/V_SENSE*%
X138532041Y-72578173D03*
%TO.N,/Motor2/CLOW*%
X137840266Y-72474500D03*
%TO.N,/Motor2/BLOW*%
X138266760Y-71873212D03*
%TO.N,/Motor2/ALOW*%
X138300000Y-71174500D03*
%TO.N,/Motor2/CHIGH*%
X140017942Y-70880064D03*
%TO.N,/Motor2/BHIGH*%
X139624500Y-70125500D03*
%TO.N,/Motor2/AHIGH*%
X139673707Y-69427730D03*
%TO.N,/Motor3/V_SENSE*%
X134484800Y-57378449D03*
%TO.N,/Motor3/CLOW*%
X133785897Y-57349502D03*
%TO.N,/Motor3/BLOW*%
X133000000Y-57550000D03*
%TO.N,/Motor3/ALOW*%
X132950000Y-58500000D03*
%TO.N,/Motor3/CHIGH*%
X131399500Y-59640514D03*
%TO.N,/VBAT*%
X125075000Y-93150000D03*
X126400000Y-70150000D03*
X144600000Y-78550000D03*
X136800000Y-98375000D03*
X146000000Y-92450000D03*
X135700000Y-82875000D03*
X124475000Y-93150000D03*
X125075000Y-92525000D03*
X127025000Y-70750000D03*
X136800000Y-97725000D03*
X143425000Y-62250000D03*
X143350000Y-79250000D03*
X136800000Y-95850000D03*
X136800000Y-96500000D03*
X144600000Y-79250000D03*
X143350000Y-79850000D03*
X144600000Y-72050000D03*
X144700000Y-87725000D03*
X144050000Y-61650000D03*
X141800000Y-99000000D03*
X127550000Y-62275000D03*
X143350000Y-70150000D03*
X146025000Y-56975000D03*
X124350000Y-56925000D03*
X144600000Y-79850000D03*
X127650000Y-77950000D03*
X124350000Y-58175000D03*
X127025000Y-79250000D03*
X137400000Y-98975000D03*
X127650000Y-72050000D03*
X146625000Y-56975000D03*
X127025000Y-72050000D03*
X127025000Y-78550000D03*
X136800000Y-98975000D03*
X144050000Y-62250000D03*
X143350000Y-72050000D03*
X126300000Y-61675000D03*
X126925000Y-62275000D03*
X144075000Y-87725000D03*
X146600000Y-91825000D03*
X141800000Y-96500000D03*
X124950000Y-57550000D03*
X143450000Y-87725000D03*
X126900000Y-87725000D03*
X127525000Y-87725000D03*
X127025000Y-70150000D03*
X137400000Y-97100000D03*
X126400000Y-72050000D03*
X136800000Y-97100000D03*
X141200000Y-98400000D03*
X127025000Y-77950000D03*
X143425000Y-61650000D03*
X137400000Y-95850000D03*
X143350000Y-71450000D03*
X126400000Y-77950000D03*
X141800000Y-97125000D03*
X146625000Y-57600000D03*
X127525000Y-88325000D03*
X144600000Y-70150000D03*
X143975000Y-78550000D03*
X141800000Y-95875000D03*
X127650000Y-71450000D03*
X143975000Y-79850000D03*
X137400000Y-97725000D03*
X126275000Y-87725000D03*
X146600000Y-93075000D03*
X143350000Y-77950000D03*
X143975000Y-70150000D03*
X144600000Y-71450000D03*
X127650000Y-79250000D03*
X144675000Y-62250000D03*
X143975000Y-70750000D03*
X144675000Y-61650000D03*
X146625000Y-58225000D03*
X126400000Y-79850000D03*
X143975000Y-77950000D03*
X127650000Y-79850000D03*
X143450000Y-88325000D03*
X127650000Y-70750000D03*
X126400000Y-79250000D03*
X141200000Y-97750000D03*
X143975000Y-79250000D03*
X124350000Y-57550000D03*
X141800000Y-97750000D03*
X124475000Y-91900000D03*
X144700000Y-88325000D03*
X126925000Y-61675000D03*
X141200000Y-96525000D03*
X126400000Y-78550000D03*
X124475000Y-92525000D03*
X130874500Y-64955900D03*
X146025000Y-57600000D03*
X127650000Y-78550000D03*
X143975000Y-72050000D03*
X143350000Y-70750000D03*
X144600000Y-77950000D03*
X143975000Y-71450000D03*
X141200000Y-99000000D03*
X137400000Y-98350000D03*
X141200000Y-97125000D03*
X126300000Y-62275000D03*
X126275000Y-88325000D03*
X143350000Y-78550000D03*
X146000000Y-91825000D03*
X126900000Y-88325000D03*
X146600000Y-92450000D03*
X146000000Y-93075000D03*
X127025000Y-79850000D03*
X146025000Y-58225000D03*
X141200000Y-95875000D03*
X124950000Y-58175000D03*
X144075000Y-88325000D03*
X126400000Y-70750000D03*
X144600000Y-70750000D03*
X127650000Y-70150000D03*
X125075000Y-91900000D03*
X137400000Y-96475000D03*
X126400000Y-71450000D03*
X141800000Y-98375000D03*
X124950000Y-56925000D03*
X127025000Y-71450000D03*
X127550000Y-61675000D03*
%TO.N,/M4*%
X134325500Y-66875997D03*
%TO.N,/M3*%
X134193294Y-84975145D03*
X134200000Y-54975000D03*
%TO.N,/M2*%
X132875500Y-63525000D03*
X136659239Y-57327718D03*
%TO.N,/M1*%
X136525000Y-81000000D03*
%TO.N,/Motor3/BHIGH*%
X131471997Y-60340016D03*
%TO.N,/Motor3/AHIGH*%
X131781605Y-61030163D03*
%TO.N,/Motor4/V_SENSE*%
X134486987Y-75347840D03*
%TO.N,/Motor4/CLOW*%
X133787486Y-75349500D03*
%TO.N,/Motor4/BLOW*%
X132399500Y-75982048D03*
%TO.N,/Motor4/ALOW*%
X132934450Y-76525500D03*
%TO.N,/Motor4/CHIGH*%
X131299403Y-77584170D03*
%TO.N,/Motor4/BHIGH*%
X131366161Y-78280480D03*
%TO.N,/Motor4/AHIGH*%
X131449503Y-78975000D03*
%TO.N,/3.3V*%
X139824957Y-78109154D03*
X138771871Y-89378997D03*
X131642300Y-84385900D03*
X139550000Y-71400000D03*
X137774324Y-65015468D03*
X131550000Y-58817500D03*
X130900000Y-76825000D03*
X130950000Y-66400000D03*
%TO.N,/5V*%
X136499500Y-75450000D03*
X134668246Y-90325500D03*
X136696364Y-58196390D03*
X133646479Y-83347485D03*
%TD*%
D16*
%TO.N,/Motor1/MotorOutA*%
X128867893Y-80650000D02*
X125150000Y-80650000D01*
X122200000Y-77700000D02*
X122200000Y-77550000D01*
X132117893Y-83900000D02*
X128867893Y-80650000D01*
X122200000Y-77550000D02*
X122050000Y-77550000D01*
X134800000Y-83400000D02*
X134300000Y-83900000D01*
X122050000Y-77550000D02*
X122100000Y-77600000D01*
X134300000Y-83900000D02*
X132117893Y-83900000D01*
X125150000Y-80650000D02*
X122200000Y-77700000D01*
X138225000Y-84650000D02*
X137750000Y-84650000D01*
X136500000Y-83400000D02*
X134800000Y-83400000D01*
X137750000Y-84650000D02*
X136500000Y-83400000D01*
X122100000Y-77600000D02*
X121400000Y-77600000D01*
%TO.N,/Motor1/MotorOutB*%
X134875500Y-84841957D02*
X134875500Y-86400000D01*
X132029559Y-91582185D02*
X132110651Y-91582185D01*
X122400000Y-81200000D02*
X121500000Y-82100000D01*
X132900834Y-86350834D02*
X127750000Y-81200000D01*
X134875500Y-86400000D02*
X133156773Y-86400000D01*
X134875500Y-88817336D02*
X134875500Y-86400000D01*
X133107607Y-86350834D02*
X132900834Y-86350834D01*
X132110651Y-91582185D02*
X134875500Y-88817336D01*
X135509082Y-84208375D02*
X134875500Y-84841957D01*
X133156773Y-86400000D02*
X133107607Y-86350834D01*
X127750000Y-81200000D02*
X122400000Y-81200000D01*
%TO.N,/Motor1/MotorOutC*%
X136075000Y-90642893D02*
X135350000Y-89917893D01*
X135850000Y-92150000D02*
X136696446Y-91303554D01*
X138424502Y-91125000D02*
X138245948Y-91303554D01*
X128525000Y-89300000D02*
X131375000Y-92150000D01*
X136009082Y-84415482D02*
X136009082Y-84001975D01*
X121500000Y-89300000D02*
X122200000Y-89300000D01*
X136696446Y-91303554D02*
X136075000Y-90682108D01*
X135350000Y-89917893D02*
X135350000Y-85074564D01*
X134400000Y-84400000D02*
X133325000Y-84400000D01*
X131375000Y-92150000D02*
X135850000Y-92150000D01*
X136075000Y-90682108D02*
X136075000Y-90642893D01*
X135350000Y-85074564D02*
X136009082Y-84415482D01*
X135707107Y-83700000D02*
X135100000Y-83700000D01*
X122200000Y-89300000D02*
X128525000Y-89300000D01*
X138245948Y-91303554D02*
X136696446Y-91303554D01*
X136009082Y-84001975D02*
X135707107Y-83700000D01*
X135100000Y-83700000D02*
X134400000Y-84400000D01*
%TO.N,/Motor2/MotorOutA*%
X138075000Y-66599500D02*
X138075000Y-66400000D01*
X138075000Y-66400000D02*
X137025000Y-65350000D01*
X121475000Y-60750000D02*
X121325000Y-60600000D01*
X122175000Y-60675000D02*
X122100000Y-60750000D01*
X122100000Y-60750000D02*
X121475000Y-60750000D01*
X128250000Y-60750000D02*
X130375000Y-62875000D01*
X130375000Y-64050000D02*
X130375000Y-65250000D01*
X130375000Y-62875000D02*
X130375000Y-65250000D01*
X130075000Y-65550000D02*
X130375000Y-65250000D01*
X131875000Y-64050000D02*
X130375000Y-64050000D01*
X137025000Y-65350000D02*
X133175000Y-65350000D01*
X122175000Y-60675000D02*
X122250000Y-60750000D01*
X130075000Y-70950000D02*
X130075000Y-65550000D01*
X122250000Y-60750000D02*
X128250000Y-60750000D01*
X130530860Y-71405860D02*
X130075000Y-70950000D01*
X133175000Y-65350000D02*
X131875000Y-64050000D01*
X130692344Y-71405860D02*
X130530860Y-71405860D01*
%TO.N,/Motor2/MotorOutB*%
X122375000Y-69175000D02*
X122200000Y-69350000D01*
X129700000Y-72000000D02*
X129700000Y-72150000D01*
X130855311Y-71950000D02*
X129750000Y-71950000D01*
X121400000Y-68900000D02*
X121400000Y-68875000D01*
X136230137Y-66000000D02*
X132200000Y-66000000D01*
X136349500Y-65880637D02*
X136230137Y-66000000D01*
X121700000Y-69175000D02*
X121425000Y-68900000D01*
X129700000Y-71325000D02*
X127550000Y-69175000D01*
X132200000Y-66000000D02*
X131450000Y-66750000D01*
X129750000Y-71950000D02*
X129700000Y-72000000D01*
X122200000Y-69350000D02*
X122025000Y-69175000D01*
X121400000Y-68875000D02*
X120825000Y-68300000D01*
X130775000Y-73575500D02*
X129700000Y-72500500D01*
X127550000Y-69175000D02*
X122375000Y-69175000D01*
X129700000Y-72150000D02*
X129700000Y-71325000D01*
X131450000Y-71355311D02*
X130855311Y-71950000D01*
X121425000Y-68900000D02*
X121400000Y-68900000D01*
X129700000Y-72500500D02*
X129700000Y-72150000D01*
X122025000Y-69175000D02*
X121700000Y-69175000D01*
X131450000Y-66750000D02*
X131450000Y-71355311D01*
%TO.N,/Motor2/MotorOutC*%
X135484016Y-72749500D02*
X134158516Y-74075000D01*
X122650000Y-73025000D02*
X122175000Y-73025000D01*
X128925000Y-73250000D02*
X122875000Y-73250000D01*
X134158516Y-74075000D02*
X129750000Y-74075000D01*
X133588984Y-67572300D02*
X133588984Y-70181877D01*
X122175000Y-73025000D02*
X122175000Y-72550000D01*
X122175000Y-72550000D02*
X121325000Y-71700000D01*
X135484016Y-72076909D02*
X135484016Y-72749500D01*
X129750000Y-74075000D02*
X128925000Y-73250000D01*
X122875000Y-73250000D02*
X122650000Y-73025000D01*
X133588984Y-70181877D02*
X135484016Y-72076909D01*
%TO.N,/Motor3/MotorOutA*%
X148825000Y-72450000D02*
X149075000Y-72700000D01*
X138538139Y-59840970D02*
X138538139Y-61836861D01*
X138375000Y-64750000D02*
X138375000Y-65600000D01*
X136232921Y-63407921D02*
X135568993Y-62743993D01*
X140975000Y-70550000D02*
X143125000Y-72700000D01*
X148575000Y-72700000D02*
X148825000Y-72450000D01*
X149075000Y-72700000D02*
X149400000Y-72700000D01*
X137800000Y-64175000D02*
X138375000Y-64750000D01*
X132818393Y-64175000D02*
X134575000Y-64175000D01*
X149400000Y-72700000D02*
X149600000Y-72500000D01*
X140125500Y-58253609D02*
X138538139Y-59840970D01*
X143125000Y-72700000D02*
X148575000Y-72700000D01*
X135048900Y-62743993D02*
X134575000Y-63217893D01*
X138538139Y-61836861D02*
X136967079Y-63407921D01*
X131875000Y-63050000D02*
X131875000Y-63231607D01*
X134575000Y-63217893D02*
X134575000Y-64175000D01*
X140975000Y-68200000D02*
X140975000Y-70550000D01*
X136967079Y-63407921D02*
X136232921Y-63407921D01*
X134575000Y-64175000D02*
X137800000Y-64175000D01*
X135568993Y-62743993D02*
X135048900Y-62743993D01*
X138375000Y-65600000D02*
X140975000Y-68200000D01*
X131875000Y-63231607D02*
X132818393Y-64175000D01*
%TO.N,/Motor3/MotorOutB*%
X138250000Y-63825000D02*
X135837014Y-63825000D01*
X148900000Y-68800000D02*
X149400000Y-68800000D01*
X138925000Y-64500000D02*
X138250000Y-63825000D01*
X142845444Y-68800000D02*
X148700000Y-68800000D01*
X135837014Y-63825000D02*
X135256007Y-63243993D01*
X148700000Y-68800000D02*
X148800000Y-68700000D01*
X148800000Y-68700000D02*
X148900000Y-68800000D01*
X138925000Y-64750000D02*
X138925000Y-64500000D01*
X138925000Y-64879556D02*
X142845444Y-68800000D01*
X138925000Y-64750000D02*
X138925000Y-64879556D01*
%TO.N,/Motor3/MotorOutC*%
X148850000Y-60725000D02*
X149100000Y-60975000D01*
X134015578Y-62215578D02*
X132450000Y-60650000D01*
X136850000Y-59400000D02*
X137300000Y-59400000D01*
X132450000Y-57050498D02*
X132550498Y-56950000D01*
X136626347Y-62215578D02*
X134015578Y-62215578D01*
X134662960Y-56849502D02*
X135950000Y-58136541D01*
X132721696Y-57121198D02*
X132993392Y-56849502D01*
X132450000Y-60650000D02*
X132450000Y-57050498D01*
X135950000Y-58136541D02*
X135950000Y-58500000D01*
X148600000Y-60975000D02*
X148850000Y-60725000D01*
X141325000Y-57625000D02*
X141325000Y-59250000D01*
X149100000Y-60975000D02*
X149175000Y-60975000D01*
X141325000Y-59250000D02*
X143050000Y-60975000D01*
X149175000Y-60975000D02*
X149600000Y-61400000D01*
X143050000Y-60975000D02*
X148600000Y-60975000D01*
X137300000Y-59400000D02*
X139750000Y-56950000D01*
X132550498Y-56950000D02*
X132721696Y-57121198D01*
X132993392Y-56849502D02*
X134662960Y-56849502D01*
X140650000Y-56950000D02*
X141325000Y-57625000D01*
X139750000Y-56950000D02*
X140650000Y-56950000D01*
X135950000Y-58500000D02*
X136850000Y-59400000D01*
%TO.N,/Motor4/MotorOutA*%
X140375000Y-75350000D02*
X141025000Y-76000000D01*
X149075000Y-89575000D02*
X149675000Y-89575000D01*
X148800000Y-89300000D02*
X149075000Y-89575000D01*
X142400000Y-85900000D02*
X142400000Y-88200000D01*
X141025000Y-76000000D02*
X141025000Y-78850000D01*
X140025000Y-79850000D02*
X139700000Y-79850000D01*
X138750000Y-80800000D02*
X138750000Y-81250000D01*
X141025000Y-78850000D02*
X140025000Y-79850000D01*
X138350000Y-82250000D02*
X138750000Y-82250000D01*
X133125000Y-81125000D02*
X134250000Y-82250000D01*
X138350000Y-81650000D02*
X138350000Y-82250000D01*
X139700000Y-79850000D02*
X138750000Y-80800000D01*
X138750000Y-82250000D02*
X142400000Y-85900000D01*
X139775000Y-75350000D02*
X140375000Y-75350000D01*
X148525000Y-89575000D02*
X148800000Y-89300000D01*
X149675000Y-89575000D02*
X151000000Y-88250000D01*
X142400000Y-88200000D02*
X143775000Y-89575000D01*
X143775000Y-89575000D02*
X148525000Y-89575000D01*
X134250000Y-82250000D02*
X138350000Y-82250000D01*
X138750000Y-81250000D02*
X138350000Y-81650000D01*
X132400000Y-81125000D02*
X133125000Y-81125000D01*
%TO.N,/Motor4/MotorOutB*%
X139541810Y-74710280D02*
X138624503Y-75627587D01*
X139541810Y-74243011D02*
X139541810Y-74710280D01*
X138624503Y-75627587D02*
X138624503Y-79646842D01*
X138624503Y-79646842D02*
X136521345Y-81750000D01*
X136521345Y-81750000D02*
X135575000Y-81750000D01*
%TO.N,/Motor4/MotorOutC*%
X140100000Y-82850000D02*
X140725000Y-82850000D01*
X134175000Y-79675000D02*
X137025000Y-79675000D01*
X144500000Y-80900000D02*
X146250000Y-79150000D01*
X146250000Y-79150000D02*
X149575000Y-79150000D01*
X140725000Y-82850000D02*
X142675000Y-80900000D01*
X132126149Y-75338169D02*
X131900000Y-75564318D01*
X150625000Y-78100000D02*
X151750000Y-78100000D01*
X131900000Y-77400000D02*
X134175000Y-79675000D01*
X137214500Y-79864500D02*
X137214500Y-80314904D01*
X149575000Y-79150000D02*
X149625000Y-79100000D01*
X149625000Y-79100000D02*
X150625000Y-78100000D01*
X137025000Y-79675000D02*
X137214500Y-79864500D01*
X140078200Y-82871800D02*
X140100000Y-82850000D01*
X131900000Y-75564318D02*
X131900000Y-77400000D01*
X142675000Y-80900000D02*
X144500000Y-80900000D01*
%TO.N,/Motor2/GHA*%
X133300009Y-66375997D02*
X135375997Y-66375997D01*
X136625500Y-67625500D02*
X138350000Y-67625500D01*
X135375997Y-66375997D02*
X136625500Y-67625500D01*
X132897485Y-66778521D02*
X133300009Y-66375997D01*
%TO.N,/M2*%
X136659239Y-57327718D02*
X136050000Y-56718479D01*
X136050000Y-56718479D02*
X136050000Y-53637500D01*
%TD*%
%TA.AperFunction,Conductor*%
%TO.N,/Motor1/MotorOutB*%
G36*
X122537406Y-79525521D02*
G01*
X122541597Y-79526068D01*
X122542039Y-79526126D01*
X122605968Y-79554316D01*
X122644509Y-79612594D01*
X122650000Y-79649084D01*
X122650000Y-81836146D01*
X122630315Y-81903185D01*
X122627827Y-81906907D01*
X120636997Y-84771761D01*
X120582576Y-84815580D01*
X120535170Y-84825000D01*
X118786572Y-84825000D01*
X118719533Y-84805315D01*
X118673778Y-84752511D01*
X118668836Y-84739909D01*
X118607104Y-84603648D01*
X118524403Y-84492141D01*
X118500278Y-84426569D01*
X118500000Y-84418273D01*
X118500000Y-81181648D01*
X118519685Y-81114609D01*
X118524406Y-81107777D01*
X118565514Y-81052354D01*
X118607050Y-80996355D01*
X118668774Y-80860165D01*
X118668775Y-80860159D01*
X118668799Y-80860089D01*
X118668825Y-80860050D01*
X118671498Y-80854154D01*
X118672566Y-80854638D01*
X118708527Y-80802612D01*
X118773021Y-80775739D01*
X118786536Y-80775000D01*
X120849999Y-80775000D01*
X120850000Y-80775000D01*
X121912967Y-79567082D01*
X121972033Y-79529759D01*
X122006056Y-79525000D01*
X122529378Y-79525000D01*
X122537406Y-79525521D01*
G37*
%TD.AperFunction*%
%TD*%
%TA.AperFunction,Conductor*%
%TO.N,/Motor4/MotorOutA*%
G36*
X152291017Y-85519685D02*
G01*
X152336772Y-85572489D01*
X152336924Y-85572822D01*
X152355993Y-85614907D01*
X152392906Y-85696371D01*
X152392908Y-85696374D01*
X152392910Y-85696377D01*
X152475596Y-85807862D01*
X152499722Y-85873435D01*
X152500000Y-85881731D01*
X152500000Y-89118216D01*
X152480315Y-89185255D01*
X152475600Y-89192080D01*
X152392880Y-89303619D01*
X152392876Y-89303627D01*
X152331164Y-89439856D01*
X152299610Y-89586047D01*
X152299538Y-89634492D01*
X152299500Y-89635175D01*
X152299500Y-90376000D01*
X152279815Y-90443039D01*
X152227011Y-90488794D01*
X152175500Y-90500000D01*
X148474000Y-90500000D01*
X148406961Y-90480315D01*
X148361206Y-90427511D01*
X148350000Y-90376000D01*
X148350000Y-87823875D01*
X148369685Y-87756836D01*
X148383340Y-87739278D01*
X149750000Y-86275000D01*
X150337775Y-85546159D01*
X150395182Y-85506331D01*
X150434298Y-85500000D01*
X152223978Y-85500000D01*
X152291017Y-85519685D01*
G37*
%TD.AperFunction*%
%TD*%
%TA.AperFunction,Conductor*%
%TO.N,/Motor4/MotorOutC*%
G36*
X152242539Y-75719685D02*
G01*
X152288294Y-75772489D01*
X152299500Y-75824000D01*
X152299500Y-75887901D01*
X152299408Y-75888211D01*
X152299500Y-75944217D01*
X152299500Y-75964918D01*
X152299534Y-75965521D01*
X152299614Y-76013986D01*
X152331188Y-76160163D01*
X152392910Y-76296377D01*
X152475596Y-76407859D01*
X152499722Y-76473431D01*
X152500000Y-76481728D01*
X152500000Y-79718216D01*
X152480315Y-79785255D01*
X152475600Y-79792080D01*
X152392880Y-79903619D01*
X152392876Y-79903627D01*
X152331164Y-80039856D01*
X152328509Y-80052161D01*
X152295124Y-80113538D01*
X152233855Y-80147123D01*
X152207300Y-80150000D01*
X150578187Y-80150000D01*
X150511148Y-80130315D01*
X150488342Y-80111462D01*
X148892195Y-78433461D01*
X148867480Y-78395454D01*
X148852698Y-78359767D01*
X148760451Y-78239549D01*
X148640233Y-78147302D01*
X148640229Y-78147300D01*
X148640225Y-78147297D01*
X148636989Y-78145428D01*
X148634807Y-78143139D01*
X148633785Y-78142355D01*
X148633907Y-78142195D01*
X148588778Y-78094855D01*
X148575000Y-78038047D01*
X148575000Y-75824000D01*
X148594685Y-75756961D01*
X148647489Y-75711206D01*
X148699000Y-75700000D01*
X152175500Y-75700000D01*
X152242539Y-75719685D01*
G37*
%TD.AperFunction*%
%TD*%
%TA.AperFunction,Conductor*%
%TO.N,/Motor3/MotorOutC*%
G36*
X152242539Y-59519685D02*
G01*
X152288294Y-59572489D01*
X152299500Y-59624000D01*
X152299500Y-60287900D01*
X152299407Y-60288214D01*
X152299500Y-60344829D01*
X152299500Y-60364951D01*
X152299533Y-60365534D01*
X152299613Y-60413985D01*
X152331186Y-60560158D01*
X152392906Y-60696371D01*
X152392908Y-60696374D01*
X152392910Y-60696377D01*
X152475596Y-60807862D01*
X152499722Y-60873435D01*
X152500000Y-60881731D01*
X152500000Y-64118216D01*
X152480315Y-64185255D01*
X152475600Y-64192080D01*
X152392880Y-64303619D01*
X152392876Y-64303627D01*
X152367333Y-64360015D01*
X152342015Y-64415905D01*
X152336913Y-64427167D01*
X152291320Y-64480110D01*
X152224341Y-64499999D01*
X152223962Y-64500000D01*
X150434298Y-64500000D01*
X150367259Y-64480315D01*
X150337775Y-64453841D01*
X150121173Y-64185255D01*
X149767407Y-63746585D01*
X149743446Y-63698058D01*
X149300000Y-61875000D01*
X149299999Y-61875000D01*
X148911057Y-61875000D01*
X148863605Y-61865561D01*
X148800239Y-61839314D01*
X148800234Y-61839312D01*
X148650001Y-61819534D01*
X148649999Y-61819534D01*
X148573623Y-61829589D01*
X148499764Y-61839313D01*
X148499763Y-61839313D01*
X148491706Y-61840374D01*
X148491297Y-61837271D01*
X148436204Y-61835941D01*
X148378354Y-61796759D01*
X148350872Y-61732522D01*
X148350000Y-61717842D01*
X148350000Y-59624000D01*
X148369685Y-59556961D01*
X148422489Y-59511206D01*
X148474000Y-59500000D01*
X152175500Y-59500000D01*
X152242539Y-59519685D01*
G37*
%TD.AperFunction*%
%TD*%
%TA.AperFunction,Conductor*%
%TO.N,/Motor2/MotorOutC*%
G36*
X120493251Y-69869685D02*
G01*
X120510705Y-69883243D01*
X121635364Y-70930339D01*
X121665428Y-70973638D01*
X121672302Y-70990233D01*
X121764549Y-71110451D01*
X121884767Y-71202698D01*
X121884770Y-71202699D01*
X121884771Y-71202700D01*
X121941795Y-71226320D01*
X121978839Y-71250126D01*
X122610496Y-71838220D01*
X122646148Y-71898309D01*
X122650000Y-71928975D01*
X122650000Y-74176000D01*
X122630315Y-74243039D01*
X122577511Y-74288794D01*
X122526000Y-74300000D01*
X120325000Y-74300000D01*
X118824500Y-74300000D01*
X118757461Y-74280315D01*
X118711706Y-74227511D01*
X118700500Y-74176000D01*
X118700500Y-74112209D01*
X118700663Y-74111652D01*
X118700578Y-74060787D01*
X118700579Y-74060787D01*
X118700455Y-73986008D01*
X118668874Y-73839822D01*
X118633314Y-73761354D01*
X118607142Y-73703603D01*
X118607141Y-73703602D01*
X118607140Y-73703599D01*
X118524409Y-73592072D01*
X118500278Y-73526502D01*
X118500000Y-73518196D01*
X118500000Y-70281648D01*
X118519685Y-70214609D01*
X118524406Y-70207776D01*
X118532264Y-70197182D01*
X118607051Y-70096354D01*
X118668774Y-69960164D01*
X118671446Y-69947801D01*
X118704850Y-69886435D01*
X118766128Y-69852869D01*
X118792647Y-69850000D01*
X120426212Y-69850000D01*
X120493251Y-69869685D01*
G37*
%TD.AperFunction*%
%TD*%
%TA.AperFunction,Conductor*%
%TO.N,/Motor2/MotorOutB*%
G36*
X120602209Y-65169685D02*
G01*
X120636995Y-65203237D01*
X120899941Y-65581622D01*
X122298345Y-67593960D01*
X122309690Y-67618354D01*
X122311203Y-67617728D01*
X122314313Y-67625236D01*
X122372302Y-67765233D01*
X122464549Y-67885451D01*
X122503193Y-67915104D01*
X122527120Y-67933464D01*
X122553460Y-67961077D01*
X122627827Y-68068092D01*
X122649919Y-68134377D01*
X122650000Y-68138854D01*
X122650000Y-70538048D01*
X122630315Y-70605087D01*
X122588004Y-70645433D01*
X122584770Y-70647299D01*
X122464547Y-70739550D01*
X122455387Y-70751489D01*
X122398958Y-70792690D01*
X122357013Y-70800000D01*
X122053173Y-70800000D01*
X121986134Y-70780315D01*
X121963346Y-70761481D01*
X121850328Y-70642717D01*
X121833010Y-70616083D01*
X121831761Y-70616805D01*
X121827696Y-70609763D01*
X121735451Y-70489549D01*
X121628669Y-70407612D01*
X121614329Y-70394717D01*
X121145414Y-69901960D01*
X121141135Y-69896957D01*
X121135448Y-69889545D01*
X121134376Y-69888473D01*
X121121934Y-69877287D01*
X120525000Y-69250000D01*
X120524999Y-69250000D01*
X118792749Y-69250000D01*
X118725710Y-69230315D01*
X118679955Y-69177511D01*
X118671545Y-69152185D01*
X118668874Y-69139820D01*
X118607138Y-69003596D01*
X118524407Y-68892072D01*
X118500278Y-68826506D01*
X118500000Y-68818227D01*
X118499999Y-65581618D01*
X118519684Y-65514583D01*
X118524387Y-65507775D01*
X118607040Y-65396328D01*
X118657906Y-65284086D01*
X118668765Y-65260126D01*
X118668767Y-65260120D01*
X118668766Y-65260120D01*
X118668768Y-65260118D01*
X118671430Y-65247799D01*
X118704834Y-65186434D01*
X118766113Y-65152869D01*
X118792631Y-65150000D01*
X120535170Y-65150000D01*
X120602209Y-65169685D01*
G37*
%TD.AperFunction*%
%TD*%
%TA.AperFunction,Conductor*%
%TO.N,/Motor3/MotorOutA*%
G36*
X152274355Y-69869685D02*
G01*
X152320110Y-69922489D01*
X152328520Y-69947818D01*
X152331184Y-69960150D01*
X152331187Y-69960161D01*
X152358484Y-70020404D01*
X152392906Y-70096371D01*
X152392908Y-70096374D01*
X152392910Y-70096377D01*
X152475596Y-70207862D01*
X152499722Y-70273435D01*
X152500000Y-70281731D01*
X152500000Y-73518218D01*
X152480315Y-73585257D01*
X152475599Y-73592083D01*
X152392885Y-73703613D01*
X152392882Y-73703616D01*
X152331165Y-73839854D01*
X152299610Y-73986046D01*
X152299538Y-74034492D01*
X152299500Y-74035175D01*
X152299500Y-74176000D01*
X152279815Y-74243039D01*
X152227011Y-74288794D01*
X152175500Y-74300000D01*
X150675015Y-74300000D01*
X148472667Y-74276319D01*
X148405843Y-74255915D01*
X148360658Y-74202622D01*
X148350000Y-74152326D01*
X148350000Y-71920148D01*
X148369685Y-71853109D01*
X148379020Y-71840430D01*
X150012835Y-69894269D01*
X150071013Y-69855583D01*
X150107803Y-69850000D01*
X152207316Y-69850000D01*
X152274355Y-69869685D01*
G37*
%TD.AperFunction*%
%TD*%
%TA.AperFunction,Conductor*%
%TO.N,/Motor1/MotorOutA*%
G36*
X122593039Y-75694685D02*
G01*
X122638794Y-75747489D01*
X122650000Y-75799000D01*
X122650000Y-78054850D01*
X122630315Y-78121889D01*
X122620970Y-78134579D01*
X122417211Y-78377290D01*
X122369697Y-78412121D01*
X122284767Y-78447302D01*
X122164549Y-78539549D01*
X122072300Y-78659770D01*
X122014313Y-78799762D01*
X122014313Y-78799763D01*
X122010062Y-78832051D01*
X121982094Y-78895592D01*
X120987167Y-80080728D01*
X120928986Y-80119417D01*
X120892196Y-80125000D01*
X118786574Y-80125000D01*
X118719535Y-80105315D01*
X118673780Y-80052511D01*
X118668831Y-80039892D01*
X118668821Y-80039862D01*
X118607109Y-79903635D01*
X118607107Y-79903630D01*
X118607103Y-79903624D01*
X118607101Y-79903621D01*
X118524401Y-79792107D01*
X118500277Y-79726534D01*
X118500000Y-79718243D01*
X118500000Y-76481647D01*
X118519685Y-76414608D01*
X118524407Y-76407774D01*
X118565514Y-76352354D01*
X118607047Y-76296360D01*
X118668773Y-76160168D01*
X118700364Y-76014016D01*
X118700418Y-75983990D01*
X118700452Y-75965641D01*
X118700500Y-75964813D01*
X118700500Y-75939179D01*
X118700500Y-75938949D01*
X118700509Y-75899371D01*
X118700508Y-75899369D01*
X118700511Y-75887378D01*
X118700500Y-75887254D01*
X118700500Y-75799000D01*
X118720185Y-75731961D01*
X118772989Y-75686206D01*
X118824500Y-75675000D01*
X122526000Y-75675000D01*
X122593039Y-75694685D01*
G37*
%TD.AperFunction*%
%TD*%
%TA.AperFunction,Conductor*%
%TO.N,/Motor2/MotorOutA*%
G36*
X122593039Y-59519685D02*
G01*
X122638794Y-59572489D01*
X122650000Y-59624000D01*
X122650000Y-62176124D01*
X122630315Y-62243163D01*
X122616651Y-62260731D01*
X121250011Y-63724986D01*
X121249996Y-63725003D01*
X120662225Y-64453841D01*
X120604818Y-64493669D01*
X120565702Y-64500000D01*
X118776021Y-64500000D01*
X118708982Y-64480315D01*
X118663227Y-64427511D01*
X118663070Y-64427167D01*
X118639073Y-64374195D01*
X118607107Y-64303630D01*
X118524399Y-64192106D01*
X118500277Y-64126535D01*
X118500000Y-64118272D01*
X118500000Y-60881648D01*
X118519685Y-60814609D01*
X118524406Y-60807776D01*
X118565514Y-60752354D01*
X118607051Y-60696354D01*
X118668774Y-60560164D01*
X118700364Y-60414015D01*
X118700418Y-60383992D01*
X118700452Y-60365641D01*
X118700500Y-60364813D01*
X118700500Y-60339179D01*
X118700500Y-60338949D01*
X118700509Y-60299371D01*
X118700508Y-60299369D01*
X118700511Y-60287378D01*
X118700500Y-60287254D01*
X118700500Y-59624000D01*
X118720185Y-59556961D01*
X118772989Y-59511206D01*
X118824500Y-59500000D01*
X122526000Y-59500000D01*
X122593039Y-59519685D01*
G37*
%TD.AperFunction*%
%TD*%
%TA.AperFunction,Conductor*%
%TO.N,/Motor3/MotorOutB*%
G36*
X152274354Y-65169685D02*
G01*
X152320109Y-65222489D01*
X152328516Y-65247808D01*
X152331176Y-65260119D01*
X152392911Y-65396355D01*
X152475594Y-65507828D01*
X152499722Y-65573398D01*
X152500000Y-65581699D01*
X152500000Y-68818217D01*
X152480315Y-68885256D01*
X152475599Y-68892082D01*
X152392881Y-69003617D01*
X152392874Y-69003629D01*
X152346764Y-69105417D01*
X152342015Y-69115904D01*
X152336913Y-69127166D01*
X152291320Y-69180110D01*
X152224341Y-69199999D01*
X152223962Y-69200000D01*
X150150000Y-69200000D01*
X149571037Y-69857911D01*
X149084709Y-70410557D01*
X149025644Y-70447880D01*
X148997519Y-70452499D01*
X148654898Y-70468814D01*
X148586998Y-70452340D01*
X148538783Y-70401772D01*
X148525000Y-70344954D01*
X148525000Y-68309345D01*
X148542671Y-68245548D01*
X150140981Y-65581699D01*
X150363878Y-65210202D01*
X150415249Y-65162844D01*
X150470207Y-65150000D01*
X152207315Y-65150000D01*
X152274354Y-65169685D01*
G37*
%TD.AperFunction*%
%TD*%
%TA.AperFunction,Conductor*%
%TO.N,/Motor1/MotorOutC*%
G36*
X120632741Y-85494685D02*
G01*
X120662225Y-85521159D01*
X121232590Y-86228411D01*
X121256553Y-86276943D01*
X121700000Y-88100000D01*
X122526000Y-88100000D01*
X122593039Y-88119685D01*
X122638794Y-88172489D01*
X122650000Y-88224000D01*
X122650000Y-90351000D01*
X122630315Y-90418039D01*
X122577511Y-90463794D01*
X122526000Y-90475000D01*
X118824500Y-90475000D01*
X118757461Y-90455315D01*
X118711706Y-90402511D01*
X118700500Y-90351000D01*
X118700500Y-89635296D01*
X118700444Y-89634336D01*
X118700374Y-89586049D01*
X118668820Y-89439860D01*
X118607107Y-89303630D01*
X118524399Y-89192106D01*
X118500277Y-89126535D01*
X118500000Y-89118272D01*
X118500000Y-85881647D01*
X118519685Y-85814609D01*
X118524406Y-85807776D01*
X118565514Y-85752354D01*
X118607051Y-85696354D01*
X118668774Y-85560164D01*
X118668774Y-85560161D01*
X118668801Y-85560083D01*
X118668829Y-85560041D01*
X118671498Y-85554154D01*
X118672565Y-85554637D01*
X118708531Y-85502609D01*
X118773027Y-85475738D01*
X118786536Y-85475000D01*
X120565702Y-85475000D01*
X120632741Y-85494685D01*
G37*
%TD.AperFunction*%
%TD*%
%TA.AperFunction,Conductor*%
%TO.N,/Motor4/MotorOutB*%
G36*
X149323616Y-79545185D02*
G01*
X149346405Y-79564019D01*
X150475000Y-80750000D01*
X152207317Y-80750000D01*
X152274356Y-80769685D01*
X152320111Y-80822489D01*
X152328521Y-80847818D01*
X152331185Y-80860150D01*
X152331187Y-80860158D01*
X152392907Y-80996371D01*
X152392909Y-80996374D01*
X152392914Y-80996382D01*
X152475596Y-81107862D01*
X152499722Y-81173434D01*
X152500000Y-81181730D01*
X152500000Y-84418354D01*
X152480315Y-84485393D01*
X152475595Y-84492225D01*
X152392938Y-84603664D01*
X152331209Y-84739883D01*
X152331206Y-84739893D01*
X152328552Y-84752182D01*
X152295157Y-84813554D01*
X152233882Y-84847128D01*
X152207348Y-84850000D01*
X150469599Y-84850000D01*
X150402560Y-84830315D01*
X150363748Y-84790587D01*
X148618149Y-81929744D01*
X148600000Y-81865157D01*
X148600000Y-79649500D01*
X148619685Y-79582461D01*
X148672489Y-79536706D01*
X148724000Y-79525500D01*
X149256577Y-79525500D01*
X149323616Y-79545185D01*
G37*
%TD.AperFunction*%
%TD*%
M02*
