%TF.GenerationSoftware,KiCad,Pcbnew,7.0.4*%
%TF.CreationDate,2023-05-25T14:45:12+03:00*%
%TF.ProjectId,fpv_findland_esc,6670765f-6669-46e6-946c-616e645f6573,Rev_0.2*%
%TF.SameCoordinates,Original*%
%TF.FileFunction,Soldermask,Bot*%
%TF.FilePolarity,Negative*%
%FSLAX46Y46*%
G04 Gerber Fmt 4.6, Leading zero omitted, Abs format (unit mm)*
G04 Created by KiCad (PCBNEW 7.0.4) date 2023-05-25 14:45:12*
%MOMM*%
%LPD*%
G01*
G04 APERTURE LIST*
G04 Aperture macros list*
%AMRoundRect*
0 Rectangle with rounded corners*
0 $1 Rounding radius*
0 $2 $3 $4 $5 $6 $7 $8 $9 X,Y pos of 4 corners*
0 Add a 4 corners polygon primitive as box body*
4,1,4,$2,$3,$4,$5,$6,$7,$8,$9,$2,$3,0*
0 Add four circle primitives for the rounded corners*
1,1,$1+$1,$2,$3*
1,1,$1+$1,$4,$5*
1,1,$1+$1,$6,$7*
1,1,$1+$1,$8,$9*
0 Add four rect primitives between the rounded corners*
20,1,$1+$1,$2,$3,$4,$5,0*
20,1,$1+$1,$4,$5,$6,$7,0*
20,1,$1+$1,$6,$7,$8,$9,0*
20,1,$1+$1,$8,$9,$2,$3,0*%
G04 Aperture macros list end*
%ADD10C,0.010000*%
%ADD11C,1.000000*%
%ADD12RoundRect,0.750000X-0.750000X0.750000X-0.750000X-0.750000X0.750000X-0.750000X0.750000X0.750000X0*%
%ADD13RoundRect,0.750000X0.750000X-0.750000X0.750000X0.750000X-0.750000X0.750000X-0.750000X-0.750000X0*%
%ADD14RoundRect,1.000000X-2.000000X-1.000000X2.000000X-1.000000X2.000000X1.000000X-2.000000X1.000000X0*%
%ADD15O,1.000000X2.000000*%
%ADD16RoundRect,0.225000X-0.225000X-0.250000X0.225000X-0.250000X0.225000X0.250000X-0.225000X0.250000X0*%
%ADD17RoundRect,0.250000X0.650000X-0.325000X0.650000X0.325000X-0.650000X0.325000X-0.650000X-0.325000X0*%
%ADD18R,0.500000X0.400000*%
%ADD19RoundRect,0.225000X0.225000X0.250000X-0.225000X0.250000X-0.225000X-0.250000X0.225000X-0.250000X0*%
%ADD20R,0.700000X0.420000*%
%ADD21RoundRect,0.225000X0.250000X-0.225000X0.250000X0.225000X-0.250000X0.225000X-0.250000X-0.225000X0*%
%ADD22RoundRect,0.062500X0.062500X-0.350000X0.062500X0.350000X-0.062500X0.350000X-0.062500X-0.350000X0*%
%ADD23RoundRect,0.062500X0.350000X-0.062500X0.350000X0.062500X-0.350000X0.062500X-0.350000X-0.062500X0*%
%ADD24R,2.600000X2.600000*%
%ADD25RoundRect,0.062500X-0.062500X0.350000X-0.062500X-0.350000X0.062500X-0.350000X0.062500X0.350000X0*%
%ADD26RoundRect,0.062500X-0.350000X0.062500X-0.350000X-0.062500X0.350000X-0.062500X0.350000X0.062500X0*%
%ADD27RoundRect,0.250000X-0.325000X-0.650000X0.325000X-0.650000X0.325000X0.650000X-0.325000X0.650000X0*%
%ADD28RoundRect,0.250000X-0.650000X0.325000X-0.650000X-0.325000X0.650000X-0.325000X0.650000X0.325000X0*%
%ADD29RoundRect,0.225000X-0.250000X0.225000X-0.250000X-0.225000X0.250000X-0.225000X0.250000X0.225000X0*%
%ADD30RoundRect,0.434782X0.565218X17.565218X-0.565218X17.565218X-0.565218X-17.565218X0.565218X-17.565218X0*%
%ADD31R,0.400000X0.500000*%
%ADD32RoundRect,0.250000X0.325000X0.650000X-0.325000X0.650000X-0.325000X-0.650000X0.325000X-0.650000X0*%
G04 APERTURE END LIST*
%TO.C,Q15*%
D10*
X147787500Y-70635000D02*
X145437500Y-70635000D01*
X145437500Y-70015000D01*
X145887500Y-70015000D01*
X145887500Y-69985000D01*
X145437500Y-69985000D01*
X145437500Y-69365000D01*
X145887500Y-69365000D01*
X145887500Y-69335000D01*
X145437500Y-69335000D01*
X145437500Y-68715000D01*
X145887500Y-68715000D01*
X145887500Y-68685000D01*
X145437500Y-68685000D01*
X145437500Y-68065000D01*
X147787500Y-68065000D01*
X147787500Y-70635000D01*
G36*
X147787500Y-70635000D02*
G01*
X145437500Y-70635000D01*
X145437500Y-70015000D01*
X145887500Y-70015000D01*
X145887500Y-69985000D01*
X145437500Y-69985000D01*
X145437500Y-69365000D01*
X145887500Y-69365000D01*
X145887500Y-69335000D01*
X145437500Y-69335000D01*
X145437500Y-68715000D01*
X145887500Y-68715000D01*
X145887500Y-68685000D01*
X145437500Y-68685000D01*
X145437500Y-68065000D01*
X147787500Y-68065000D01*
X147787500Y-70635000D01*
G37*
%TO.C,Q21*%
X147800000Y-81985000D02*
X145450000Y-81985000D01*
X145450000Y-81365000D01*
X145900000Y-81365000D01*
X145900000Y-81335000D01*
X145450000Y-81335000D01*
X145450000Y-80715000D01*
X145900000Y-80715000D01*
X145900000Y-80685000D01*
X145450000Y-80685000D01*
X145450000Y-80065000D01*
X145900000Y-80065000D01*
X145900000Y-80035000D01*
X145450000Y-80035000D01*
X145450000Y-79415000D01*
X147800000Y-79415000D01*
X147800000Y-81985000D01*
G36*
X147800000Y-81985000D02*
G01*
X145450000Y-81985000D01*
X145450000Y-81365000D01*
X145900000Y-81365000D01*
X145900000Y-81335000D01*
X145450000Y-81335000D01*
X145450000Y-80715000D01*
X145900000Y-80715000D01*
X145900000Y-80685000D01*
X145450000Y-80685000D01*
X145450000Y-80065000D01*
X145900000Y-80065000D01*
X145900000Y-80035000D01*
X145450000Y-80035000D01*
X145450000Y-79415000D01*
X147800000Y-79415000D01*
X147800000Y-81985000D01*
G37*
%TO.C,Q23*%
X147812500Y-78185000D02*
X145462500Y-78185000D01*
X145462500Y-77565000D01*
X145912500Y-77565000D01*
X145912500Y-77535000D01*
X145462500Y-77535000D01*
X145462500Y-76915000D01*
X145912500Y-76915000D01*
X145912500Y-76885000D01*
X145462500Y-76885000D01*
X145462500Y-76265000D01*
X145912500Y-76265000D01*
X145912500Y-76235000D01*
X145462500Y-76235000D01*
X145462500Y-75615000D01*
X147812500Y-75615000D01*
X147812500Y-78185000D01*
G36*
X147812500Y-78185000D02*
G01*
X145462500Y-78185000D01*
X145462500Y-77565000D01*
X145912500Y-77565000D01*
X145912500Y-77535000D01*
X145462500Y-77535000D01*
X145462500Y-76915000D01*
X145912500Y-76915000D01*
X145912500Y-76885000D01*
X145462500Y-76885000D01*
X145462500Y-76265000D01*
X145912500Y-76265000D01*
X145912500Y-76235000D01*
X145462500Y-76235000D01*
X145462500Y-75615000D01*
X147812500Y-75615000D01*
X147812500Y-78185000D01*
G37*
%TO.C,Q13*%
X147812500Y-74385000D02*
X145462500Y-74385000D01*
X145462500Y-73765000D01*
X145912500Y-73765000D01*
X145912500Y-73735000D01*
X145462500Y-73735000D01*
X145462500Y-73115000D01*
X145912500Y-73115000D01*
X145912500Y-73085000D01*
X145462500Y-73085000D01*
X145462500Y-72465000D01*
X145912500Y-72465000D01*
X145912500Y-72435000D01*
X145462500Y-72435000D01*
X145462500Y-71815000D01*
X147812500Y-71815000D01*
X147812500Y-74385000D01*
G36*
X147812500Y-74385000D02*
G01*
X145462500Y-74385000D01*
X145462500Y-73765000D01*
X145912500Y-73765000D01*
X145912500Y-73735000D01*
X145462500Y-73735000D01*
X145462500Y-73115000D01*
X145912500Y-73115000D01*
X145912500Y-73085000D01*
X145462500Y-73085000D01*
X145462500Y-72465000D01*
X145912500Y-72465000D01*
X145912500Y-72435000D01*
X145462500Y-72435000D01*
X145462500Y-71815000D01*
X147812500Y-71815000D01*
X147812500Y-74385000D01*
G37*
%TO.C,Q3*%
X125550000Y-80035000D02*
X125100000Y-80035000D01*
X125100000Y-80065000D01*
X125550000Y-80065000D01*
X125550000Y-80685000D01*
X125100000Y-80685000D01*
X125100000Y-80715000D01*
X125550000Y-80715000D01*
X125550000Y-81335000D01*
X125100000Y-81335000D01*
X125100000Y-81365000D01*
X125550000Y-81365000D01*
X125550000Y-81985000D01*
X123200000Y-81985000D01*
X123200000Y-79415000D01*
X125550000Y-79415000D01*
X125550000Y-80035000D01*
G36*
X125550000Y-80035000D02*
G01*
X125100000Y-80035000D01*
X125100000Y-80065000D01*
X125550000Y-80065000D01*
X125550000Y-80685000D01*
X125100000Y-80685000D01*
X125100000Y-80715000D01*
X125550000Y-80715000D01*
X125550000Y-81335000D01*
X125100000Y-81335000D01*
X125100000Y-81365000D01*
X125550000Y-81365000D01*
X125550000Y-81985000D01*
X123200000Y-81985000D01*
X123200000Y-79415000D01*
X125550000Y-79415000D01*
X125550000Y-80035000D01*
G37*
%TO.C,Q11*%
X125537500Y-72360000D02*
X125087500Y-72360000D01*
X125087500Y-72390000D01*
X125537500Y-72390000D01*
X125537500Y-73010000D01*
X125087500Y-73010000D01*
X125087500Y-73040000D01*
X125537500Y-73040000D01*
X125537500Y-73660000D01*
X125087500Y-73660000D01*
X125087500Y-73690000D01*
X125537500Y-73690000D01*
X125537500Y-74310000D01*
X123187500Y-74310000D01*
X123187500Y-71740000D01*
X125537500Y-71740000D01*
X125537500Y-72360000D01*
G36*
X125537500Y-72360000D02*
G01*
X125087500Y-72360000D01*
X125087500Y-72390000D01*
X125537500Y-72390000D01*
X125537500Y-73010000D01*
X125087500Y-73010000D01*
X125087500Y-73040000D01*
X125537500Y-73040000D01*
X125537500Y-73660000D01*
X125087500Y-73660000D01*
X125087500Y-73690000D01*
X125537500Y-73690000D01*
X125537500Y-74310000D01*
X123187500Y-74310000D01*
X123187500Y-71740000D01*
X125537500Y-71740000D01*
X125537500Y-72360000D01*
G37*
%TO.C,Q9*%
X125550000Y-68685000D02*
X125100000Y-68685000D01*
X125100000Y-68715000D01*
X125550000Y-68715000D01*
X125550000Y-69335000D01*
X125100000Y-69335000D01*
X125100000Y-69365000D01*
X125550000Y-69365000D01*
X125550000Y-69985000D01*
X125100000Y-69985000D01*
X125100000Y-70015000D01*
X125550000Y-70015000D01*
X125550000Y-70635000D01*
X123200000Y-70635000D01*
X123200000Y-68065000D01*
X125550000Y-68065000D01*
X125550000Y-68685000D01*
G36*
X125550000Y-68685000D02*
G01*
X125100000Y-68685000D01*
X125100000Y-68715000D01*
X125550000Y-68715000D01*
X125550000Y-69335000D01*
X125100000Y-69335000D01*
X125100000Y-69365000D01*
X125550000Y-69365000D01*
X125550000Y-69985000D01*
X125100000Y-69985000D01*
X125100000Y-70015000D01*
X125550000Y-70015000D01*
X125550000Y-70635000D01*
X123200000Y-70635000D01*
X123200000Y-68065000D01*
X125550000Y-68065000D01*
X125550000Y-68685000D01*
G37*
%TO.C,Q2*%
X125550000Y-76235000D02*
X125100000Y-76235000D01*
X125100000Y-76265000D01*
X125550000Y-76265000D01*
X125550000Y-76885000D01*
X125100000Y-76885000D01*
X125100000Y-76915000D01*
X125550000Y-76915000D01*
X125550000Y-77535000D01*
X125100000Y-77535000D01*
X125100000Y-77565000D01*
X125550000Y-77565000D01*
X125550000Y-78185000D01*
X123200000Y-78185000D01*
X123200000Y-75615000D01*
X125550000Y-75615000D01*
X125550000Y-76235000D01*
G36*
X125550000Y-76235000D02*
G01*
X125100000Y-76235000D01*
X125100000Y-76265000D01*
X125550000Y-76265000D01*
X125550000Y-76885000D01*
X125100000Y-76885000D01*
X125100000Y-76915000D01*
X125550000Y-76915000D01*
X125550000Y-77535000D01*
X125100000Y-77535000D01*
X125100000Y-77565000D01*
X125550000Y-77565000D01*
X125550000Y-78185000D01*
X123200000Y-78185000D01*
X123200000Y-75615000D01*
X125550000Y-75615000D01*
X125550000Y-76235000D01*
G37*
%TO.C,Q5*%
X125550000Y-88635000D02*
X125100000Y-88635000D01*
X125100000Y-88665000D01*
X125550000Y-88665000D01*
X125550000Y-89285000D01*
X125100000Y-89285000D01*
X125100000Y-89315000D01*
X125550000Y-89315000D01*
X125550000Y-89935000D01*
X125100000Y-89935000D01*
X125100000Y-89965000D01*
X125550000Y-89965000D01*
X125550000Y-90585000D01*
X123200000Y-90585000D01*
X123200000Y-88015000D01*
X125550000Y-88015000D01*
X125550000Y-88635000D01*
G36*
X125550000Y-88635000D02*
G01*
X125100000Y-88635000D01*
X125100000Y-88665000D01*
X125550000Y-88665000D01*
X125550000Y-89285000D01*
X125100000Y-89285000D01*
X125100000Y-89315000D01*
X125550000Y-89315000D01*
X125550000Y-89935000D01*
X125100000Y-89935000D01*
X125100000Y-89965000D01*
X125550000Y-89965000D01*
X125550000Y-90585000D01*
X123200000Y-90585000D01*
X123200000Y-88015000D01*
X125550000Y-88015000D01*
X125550000Y-88635000D01*
G37*
%TO.C,Q19*%
X147787500Y-90585000D02*
X145437500Y-90585000D01*
X145437500Y-89965000D01*
X145887500Y-89965000D01*
X145887500Y-89935000D01*
X145437500Y-89935000D01*
X145437500Y-89315000D01*
X145887500Y-89315000D01*
X145887500Y-89285000D01*
X145437500Y-89285000D01*
X145437500Y-88665000D01*
X145887500Y-88665000D01*
X145887500Y-88635000D01*
X145437500Y-88635000D01*
X145437500Y-88015000D01*
X147787500Y-88015000D01*
X147787500Y-90585000D01*
G36*
X147787500Y-90585000D02*
G01*
X145437500Y-90585000D01*
X145437500Y-89965000D01*
X145887500Y-89965000D01*
X145887500Y-89935000D01*
X145437500Y-89935000D01*
X145437500Y-89315000D01*
X145887500Y-89315000D01*
X145887500Y-89285000D01*
X145437500Y-89285000D01*
X145437500Y-88665000D01*
X145887500Y-88665000D01*
X145887500Y-88635000D01*
X145437500Y-88635000D01*
X145437500Y-88015000D01*
X147787500Y-88015000D01*
X147787500Y-90585000D01*
G37*
%TO.C,Q17*%
X147837500Y-62010000D02*
X145487500Y-62010000D01*
X145487500Y-61390000D01*
X145937500Y-61390000D01*
X145937500Y-61360000D01*
X145487500Y-61360000D01*
X145487500Y-60740000D01*
X145937500Y-60740000D01*
X145937500Y-60710000D01*
X145487500Y-60710000D01*
X145487500Y-60090000D01*
X145937500Y-60090000D01*
X145937500Y-60060000D01*
X145487500Y-60060000D01*
X145487500Y-59440000D01*
X147837500Y-59440000D01*
X147837500Y-62010000D01*
G36*
X147837500Y-62010000D02*
G01*
X145487500Y-62010000D01*
X145487500Y-61390000D01*
X145937500Y-61390000D01*
X145937500Y-61360000D01*
X145487500Y-61360000D01*
X145487500Y-60740000D01*
X145937500Y-60740000D01*
X145937500Y-60710000D01*
X145487500Y-60710000D01*
X145487500Y-60090000D01*
X145937500Y-60090000D01*
X145937500Y-60060000D01*
X145487500Y-60060000D01*
X145487500Y-59440000D01*
X147837500Y-59440000D01*
X147837500Y-62010000D01*
G37*
%TO.C,Q7*%
X125525000Y-60010000D02*
X125075000Y-60010000D01*
X125075000Y-60040000D01*
X125525000Y-60040000D01*
X125525000Y-60660000D01*
X125075000Y-60660000D01*
X125075000Y-60690000D01*
X125525000Y-60690000D01*
X125525000Y-61310000D01*
X125075000Y-61310000D01*
X125075000Y-61340000D01*
X125525000Y-61340000D01*
X125525000Y-61960000D01*
X123175000Y-61960000D01*
X123175000Y-59390000D01*
X125525000Y-59390000D01*
X125525000Y-60010000D01*
G36*
X125525000Y-60010000D02*
G01*
X125075000Y-60010000D01*
X125075000Y-60040000D01*
X125525000Y-60040000D01*
X125525000Y-60660000D01*
X125075000Y-60660000D01*
X125075000Y-60690000D01*
X125525000Y-60690000D01*
X125525000Y-61310000D01*
X125075000Y-61310000D01*
X125075000Y-61340000D01*
X125525000Y-61340000D01*
X125525000Y-61960000D01*
X123175000Y-61960000D01*
X123175000Y-59390000D01*
X125525000Y-59390000D01*
X125525000Y-60010000D01*
G37*
%TD*%
D11*
%TO.C,J7*%
X152500000Y-71150000D03*
X151000000Y-71150000D03*
D12*
X151750000Y-71900000D03*
D11*
X152500000Y-72650000D03*
X151000000Y-72650000D03*
%TD*%
%TO.C,J4*%
X120000000Y-61750000D03*
X118500000Y-61750000D03*
D12*
X119250000Y-62500000D03*
D11*
X120000000Y-63250000D03*
X118500000Y-63250000D03*
%TD*%
%TO.C,J8*%
X152500000Y-66450000D03*
X151000000Y-66450000D03*
D12*
X151750000Y-67200000D03*
D11*
X152500000Y-67950000D03*
X151000000Y-67950000D03*
%TD*%
%TO.C,J12*%
X151000000Y-78850000D03*
X152500000Y-78850000D03*
D13*
X151750000Y-78100000D03*
D11*
X151000000Y-77350000D03*
X152500000Y-77350000D03*
%TD*%
D14*
%TO.C,TP14*%
X139300000Y-97400000D03*
%TD*%
D11*
%TO.C,J5*%
X120000000Y-66450000D03*
X118500000Y-66450000D03*
D12*
X119250000Y-67200000D03*
D11*
X120000000Y-67950000D03*
X118500000Y-67950000D03*
%TD*%
%TO.C,J9*%
X152500000Y-61750000D03*
X151000000Y-61750000D03*
D12*
X151750000Y-62500000D03*
D11*
X152500000Y-63250000D03*
X151000000Y-63250000D03*
%TD*%
%TO.C,J11*%
X151000000Y-83550000D03*
X152500000Y-83550000D03*
D13*
X151750000Y-82800000D03*
D11*
X151000000Y-82050000D03*
X152500000Y-82050000D03*
%TD*%
D14*
%TO.C,TP13*%
X131700000Y-97400000D03*
%TD*%
D11*
%TO.C,J1*%
X118500000Y-78850000D03*
X120000000Y-78850000D03*
D13*
X119250000Y-78100000D03*
D11*
X118500000Y-77350000D03*
X120000000Y-77350000D03*
%TD*%
%TO.C,J10*%
X151000000Y-88250000D03*
X152500000Y-88250000D03*
D13*
X151750000Y-87500000D03*
D11*
X151000000Y-86750000D03*
X152500000Y-86750000D03*
%TD*%
%TO.C,J2*%
X118500000Y-83550000D03*
X120000000Y-83550000D03*
D13*
X119250000Y-82800000D03*
D11*
X118500000Y-82050000D03*
X120000000Y-82050000D03*
%TD*%
D15*
%TO.C,J13*%
X138590000Y-53637500D03*
X137320000Y-53637500D03*
X136050000Y-53637500D03*
X134780000Y-53637500D03*
X133510000Y-53637500D03*
X132240000Y-53637500D03*
%TD*%
D11*
%TO.C,J6*%
X120000000Y-71150000D03*
X118500000Y-71150000D03*
D12*
X119250000Y-71900000D03*
D11*
X120000000Y-72650000D03*
X118500000Y-72650000D03*
%TD*%
%TO.C,J3*%
X118500000Y-88250000D03*
X120000000Y-88250000D03*
D13*
X119250000Y-87500000D03*
D11*
X118500000Y-86750000D03*
X120000000Y-86750000D03*
%TD*%
D16*
%TO.C,C12*%
X135775000Y-65875000D03*
X137325000Y-65875000D03*
%TD*%
D17*
%TO.C,C45*%
X143975000Y-78250000D03*
X143975000Y-75650000D03*
%TD*%
D18*
%TO.C,RN11*%
X131525000Y-70975000D03*
X131525000Y-70275000D03*
X132525000Y-70275000D03*
X132525000Y-70975000D03*
%TD*%
D19*
%TO.C,C11*%
X134500000Y-90825000D03*
X132950000Y-90825000D03*
%TD*%
D20*
%TO.C,Q15*%
X148687500Y-68375000D03*
X148687500Y-69025000D03*
X148687500Y-69675000D03*
X148687500Y-70325000D03*
%TD*%
D21*
%TO.C,C26*%
X131199503Y-81800000D03*
X131199503Y-80250000D03*
%TD*%
D19*
%TO.C,C21*%
X138150000Y-63825000D03*
X136600000Y-63825000D03*
%TD*%
D22*
%TO.C,U2*%
X137600000Y-89387500D03*
X137100000Y-89387500D03*
X136600000Y-89387500D03*
X136100000Y-89387500D03*
X135600000Y-89387500D03*
X135100000Y-89387500D03*
D23*
X134412500Y-88700000D03*
X134412500Y-88200000D03*
X134412500Y-87700000D03*
X134412500Y-87200000D03*
X134412500Y-86700000D03*
X134412500Y-86200000D03*
D22*
X135100000Y-85512500D03*
X135600000Y-85512500D03*
X136100000Y-85512500D03*
X136600000Y-85512500D03*
X137100000Y-85512500D03*
X137600000Y-85512500D03*
D23*
X138287500Y-86200000D03*
X138287500Y-86700000D03*
X138287500Y-87200000D03*
X138287500Y-87700000D03*
X138287500Y-88200000D03*
X138287500Y-88700000D03*
D24*
X136350000Y-87450000D03*
%TD*%
D25*
%TO.C,U8*%
X133300000Y-76387500D03*
X133800000Y-76387500D03*
X134300000Y-76387500D03*
X134800000Y-76387500D03*
X135300000Y-76387500D03*
X135800000Y-76387500D03*
D26*
X136487500Y-77075000D03*
X136487500Y-77575000D03*
X136487500Y-78075000D03*
X136487500Y-78575000D03*
X136487500Y-79075000D03*
X136487500Y-79575000D03*
D25*
X135800000Y-80262500D03*
X135300000Y-80262500D03*
X134800000Y-80262500D03*
X134300000Y-80262500D03*
X133800000Y-80262500D03*
X133300000Y-80262500D03*
D26*
X132612500Y-79575000D03*
X132612500Y-79075000D03*
X132612500Y-78575000D03*
X132612500Y-78075000D03*
X132612500Y-77575000D03*
X132612500Y-77075000D03*
D24*
X134550000Y-78325000D03*
%TD*%
D18*
%TO.C,RN3*%
X131450000Y-89000000D03*
X131450000Y-88300000D03*
X132450000Y-88300000D03*
X132450000Y-89000000D03*
%TD*%
D19*
%TO.C,C28*%
X138099503Y-81900000D03*
X136549503Y-81900000D03*
%TD*%
D20*
%TO.C,Q21*%
X148700000Y-79725000D03*
X148700000Y-80375000D03*
X148700000Y-81025000D03*
X148700000Y-81675000D03*
%TD*%
%TO.C,Q23*%
X148712500Y-75925000D03*
X148712500Y-76575000D03*
X148712500Y-77225000D03*
X148712500Y-77875000D03*
%TD*%
D27*
%TO.C,C37*%
X124650000Y-57550000D03*
X127250000Y-57550000D03*
%TD*%
%TO.C,C67*%
X124775000Y-92525000D03*
X127375000Y-92525000D03*
%TD*%
D20*
%TO.C,Q13*%
X148712500Y-72125000D03*
X148712500Y-72775000D03*
X148712500Y-73425000D03*
X148712500Y-74075000D03*
%TD*%
%TO.C,Q3*%
X122300000Y-81675000D03*
X122300000Y-81025000D03*
X122300000Y-80375000D03*
X122300000Y-79725000D03*
%TD*%
D16*
%TO.C,C24*%
X137125000Y-74950000D03*
X138675000Y-74950000D03*
%TD*%
D28*
%TO.C,C65*%
X126900000Y-88025000D03*
X126900000Y-90625000D03*
%TD*%
%TO.C,C61*%
X127025000Y-71750000D03*
X127025000Y-74350000D03*
%TD*%
D17*
%TO.C,C69*%
X144050000Y-61950000D03*
X144050000Y-59350000D03*
%TD*%
D20*
%TO.C,Q11*%
X122287500Y-74000000D03*
X122287500Y-73350000D03*
X122287500Y-72700000D03*
X122287500Y-72050000D03*
%TD*%
D28*
%TO.C,C60*%
X127025000Y-79550000D03*
X127025000Y-82150000D03*
%TD*%
%TO.C,C54*%
X144075000Y-88025000D03*
X144075000Y-90625000D03*
%TD*%
D20*
%TO.C,Q9*%
X122300000Y-70325000D03*
X122300000Y-69675000D03*
X122300000Y-69025000D03*
X122300000Y-68375000D03*
%TD*%
D18*
%TO.C,RN16*%
X132100000Y-73600000D03*
X132100000Y-74300000D03*
X131100000Y-74300000D03*
X131100000Y-73600000D03*
%TD*%
D29*
%TO.C,C3*%
X139700000Y-84275000D03*
X139700000Y-85825000D03*
%TD*%
D19*
%TO.C,C20*%
X135175000Y-64275000D03*
X133625000Y-64275000D03*
%TD*%
D18*
%TO.C,RN25*%
X139174503Y-80025000D03*
X139174503Y-80725000D03*
X138174503Y-80725000D03*
X138174503Y-80025000D03*
%TD*%
%TO.C,RN15*%
X132100000Y-72000000D03*
X132100000Y-72700000D03*
X131100000Y-72700000D03*
X131100000Y-72000000D03*
%TD*%
D30*
%TO.C,TP10*%
X129250000Y-75000000D03*
%TD*%
D18*
%TO.C,RN10*%
X131525000Y-69400000D03*
X131525000Y-68700000D03*
X132525000Y-68700000D03*
X132525000Y-69400000D03*
%TD*%
D31*
%TO.C,RN13*%
X134650000Y-73425000D03*
X135350000Y-73425000D03*
X135350000Y-74425000D03*
X134650000Y-74425000D03*
%TD*%
D16*
%TO.C,C2*%
X135825000Y-84000000D03*
X137375000Y-84000000D03*
%TD*%
D17*
%TO.C,C62*%
X127025000Y-70450000D03*
X127025000Y-67850000D03*
%TD*%
D31*
%TO.C,RN12*%
X133075000Y-73425000D03*
X133775000Y-73425000D03*
X133775000Y-74425000D03*
X133075000Y-74425000D03*
%TD*%
D16*
%TO.C,C10*%
X132850000Y-83975000D03*
X134400000Y-83975000D03*
%TD*%
D20*
%TO.C,Q2*%
X122300000Y-77875000D03*
X122300000Y-77225000D03*
X122300000Y-76575000D03*
X122300000Y-75925000D03*
%TD*%
D18*
%TO.C,RN9*%
X131525000Y-67825000D03*
X131525000Y-67125000D03*
X132525000Y-67125000D03*
X132525000Y-67825000D03*
%TD*%
D20*
%TO.C,Q5*%
X122300000Y-90275000D03*
X122300000Y-89625000D03*
X122300000Y-88975000D03*
X122300000Y-88325000D03*
%TD*%
D21*
%TO.C,C19*%
X131250000Y-63625000D03*
X131250000Y-62075000D03*
%TD*%
D29*
%TO.C,C9*%
X139650000Y-65925000D03*
X139650000Y-67475000D03*
%TD*%
D19*
%TO.C,C27*%
X135099503Y-81775000D03*
X133549503Y-81775000D03*
%TD*%
D17*
%TO.C,C39*%
X126925000Y-61975000D03*
X126925000Y-59375000D03*
%TD*%
D16*
%TO.C,C14*%
X132775000Y-65875000D03*
X134325000Y-65875000D03*
%TD*%
%TO.C,C7*%
X137375000Y-73475000D03*
X138925000Y-73475000D03*
%TD*%
D18*
%TO.C,RN18*%
X139500000Y-60350000D03*
X139500000Y-61050000D03*
X138500000Y-61050000D03*
X138500000Y-60350000D03*
%TD*%
D17*
%TO.C,C59*%
X127025000Y-78250000D03*
X127025000Y-75650000D03*
%TD*%
D18*
%TO.C,RN2*%
X131450000Y-87425000D03*
X131450000Y-86725000D03*
X132450000Y-86725000D03*
X132450000Y-87425000D03*
%TD*%
%TO.C,RN27*%
X139174503Y-76875000D03*
X139174503Y-77575000D03*
X138174503Y-77575000D03*
X138174503Y-76875000D03*
%TD*%
D30*
%TO.C,TP9*%
X141750000Y-74950000D03*
%TD*%
D18*
%TO.C,RN26*%
X139174503Y-78450000D03*
X139174503Y-79150000D03*
X138174503Y-79150000D03*
X138174503Y-78450000D03*
%TD*%
D32*
%TO.C,C70*%
X146325000Y-57600000D03*
X143725000Y-57600000D03*
%TD*%
D18*
%TO.C,RN17*%
X139500000Y-61925000D03*
X139500000Y-62625000D03*
X138500000Y-62625000D03*
X138500000Y-61925000D03*
%TD*%
D25*
%TO.C,U6*%
X133375000Y-58462500D03*
X133875000Y-58462500D03*
X134375000Y-58462500D03*
X134875000Y-58462500D03*
X135375000Y-58462500D03*
X135875000Y-58462500D03*
D26*
X136562500Y-59150000D03*
X136562500Y-59650000D03*
X136562500Y-60150000D03*
X136562500Y-60650000D03*
X136562500Y-61150000D03*
X136562500Y-61650000D03*
D25*
X135875000Y-62337500D03*
X135375000Y-62337500D03*
X134875000Y-62337500D03*
X134375000Y-62337500D03*
X133875000Y-62337500D03*
X133375000Y-62337500D03*
D26*
X132687500Y-61650000D03*
X132687500Y-61150000D03*
X132687500Y-60650000D03*
X132687500Y-60150000D03*
X132687500Y-59650000D03*
X132687500Y-59150000D03*
D24*
X134625000Y-60400000D03*
%TD*%
D20*
%TO.C,Q19*%
X148687500Y-88325000D03*
X148687500Y-88975000D03*
X148687500Y-89625000D03*
X148687500Y-90275000D03*
%TD*%
D18*
%TO.C,RN1*%
X131450000Y-85850000D03*
X131450000Y-85150000D03*
X132450000Y-85150000D03*
X132450000Y-85850000D03*
%TD*%
%TO.C,RN19*%
X139500000Y-58775000D03*
X139500000Y-59475000D03*
X138500000Y-59475000D03*
X138500000Y-58775000D03*
%TD*%
D20*
%TO.C,Q17*%
X148737500Y-59750000D03*
X148737500Y-60400000D03*
X148737500Y-61050000D03*
X148737500Y-61700000D03*
%TD*%
D17*
%TO.C,C47*%
X143975000Y-70450000D03*
X143975000Y-67850000D03*
%TD*%
D32*
%TO.C,C66*%
X146300000Y-92450000D03*
X143700000Y-92450000D03*
%TD*%
D22*
%TO.C,U4*%
X137550000Y-71312500D03*
X137050000Y-71312500D03*
X136550000Y-71312500D03*
X136050000Y-71312500D03*
X135550000Y-71312500D03*
X135050000Y-71312500D03*
D23*
X134362500Y-70625000D03*
X134362500Y-70125000D03*
X134362500Y-69625000D03*
X134362500Y-69125000D03*
X134362500Y-68625000D03*
X134362500Y-68125000D03*
D22*
X135050000Y-67437500D03*
X135550000Y-67437500D03*
X136050000Y-67437500D03*
X136550000Y-67437500D03*
X137050000Y-67437500D03*
X137550000Y-67437500D03*
D23*
X138237500Y-68125000D03*
X138237500Y-68625000D03*
X138237500Y-69125000D03*
X138237500Y-69625000D03*
X138237500Y-70125000D03*
X138237500Y-70625000D03*
D24*
X136300000Y-69375000D03*
%TD*%
D28*
%TO.C,C46*%
X143975000Y-71750000D03*
X143975000Y-74350000D03*
%TD*%
D16*
%TO.C,C17*%
X137975000Y-57425000D03*
X139525000Y-57425000D03*
%TD*%
D28*
%TO.C,C44*%
X143975000Y-79550000D03*
X143975000Y-82150000D03*
%TD*%
D20*
%TO.C,Q7*%
X122275000Y-61650000D03*
X122275000Y-61000000D03*
X122275000Y-60350000D03*
X122275000Y-59700000D03*
%TD*%
M02*
