%TF.GenerationSoftware,KiCad,Pcbnew,7.0.4*%
%TF.CreationDate,2023-05-25T14:45:12+03:00*%
%TF.ProjectId,fpv_findland_esc,6670765f-6669-46e6-946c-616e645f6573,Rev_0.2*%
%TF.SameCoordinates,Original*%
%TF.FileFunction,Legend,Top*%
%TF.FilePolarity,Positive*%
%FSLAX46Y46*%
G04 Gerber Fmt 4.6, Leading zero omitted, Abs format (unit mm)*
G04 Created by KiCad (PCBNEW 7.0.4) date 2023-05-25 14:45:12*
%MOMM*%
%LPD*%
G01*
G04 APERTURE LIST*
%ADD10C,0.150000*%
%ADD11C,0.300000*%
%ADD12C,0.120000*%
%ADD13C,0.127000*%
%ADD14C,0.200000*%
G04 APERTURE END LIST*
D10*
X148966533Y-86284649D02*
X148633200Y-86517982D01*
X148966533Y-86684649D02*
X148266533Y-86684649D01*
X148266533Y-86684649D02*
X148266533Y-86417982D01*
X148266533Y-86417982D02*
X148299866Y-86351316D01*
X148299866Y-86351316D02*
X148333200Y-86317982D01*
X148333200Y-86317982D02*
X148399866Y-86284649D01*
X148399866Y-86284649D02*
X148499866Y-86284649D01*
X148499866Y-86284649D02*
X148566533Y-86317982D01*
X148566533Y-86317982D02*
X148599866Y-86351316D01*
X148599866Y-86351316D02*
X148633200Y-86417982D01*
X148633200Y-86417982D02*
X148633200Y-86684649D01*
X148933200Y-85717982D02*
X148966533Y-85784649D01*
X148966533Y-85784649D02*
X148966533Y-85917982D01*
X148966533Y-85917982D02*
X148933200Y-85984649D01*
X148933200Y-85984649D02*
X148866533Y-86017982D01*
X148866533Y-86017982D02*
X148599866Y-86017982D01*
X148599866Y-86017982D02*
X148533200Y-85984649D01*
X148533200Y-85984649D02*
X148499866Y-85917982D01*
X148499866Y-85917982D02*
X148499866Y-85784649D01*
X148499866Y-85784649D02*
X148533200Y-85717982D01*
X148533200Y-85717982D02*
X148599866Y-85684649D01*
X148599866Y-85684649D02*
X148666533Y-85684649D01*
X148666533Y-85684649D02*
X148733200Y-86017982D01*
X148499866Y-85451316D02*
X148966533Y-85284649D01*
X148966533Y-85284649D02*
X148499866Y-85117982D01*
X149033200Y-85017983D02*
X149033200Y-84484649D01*
X148266533Y-84184650D02*
X148266533Y-84117983D01*
X148266533Y-84117983D02*
X148299866Y-84051316D01*
X148299866Y-84051316D02*
X148333200Y-84017983D01*
X148333200Y-84017983D02*
X148399866Y-83984650D01*
X148399866Y-83984650D02*
X148533200Y-83951316D01*
X148533200Y-83951316D02*
X148699866Y-83951316D01*
X148699866Y-83951316D02*
X148833200Y-83984650D01*
X148833200Y-83984650D02*
X148899866Y-84017983D01*
X148899866Y-84017983D02*
X148933200Y-84051316D01*
X148933200Y-84051316D02*
X148966533Y-84117983D01*
X148966533Y-84117983D02*
X148966533Y-84184650D01*
X148966533Y-84184650D02*
X148933200Y-84251316D01*
X148933200Y-84251316D02*
X148899866Y-84284650D01*
X148899866Y-84284650D02*
X148833200Y-84317983D01*
X148833200Y-84317983D02*
X148699866Y-84351316D01*
X148699866Y-84351316D02*
X148533200Y-84351316D01*
X148533200Y-84351316D02*
X148399866Y-84317983D01*
X148399866Y-84317983D02*
X148333200Y-84284650D01*
X148333200Y-84284650D02*
X148299866Y-84251316D01*
X148299866Y-84251316D02*
X148266533Y-84184650D01*
X148899866Y-83651316D02*
X148933200Y-83617983D01*
X148933200Y-83617983D02*
X148966533Y-83651316D01*
X148966533Y-83651316D02*
X148933200Y-83684649D01*
X148933200Y-83684649D02*
X148899866Y-83651316D01*
X148899866Y-83651316D02*
X148966533Y-83651316D01*
X148333200Y-83351316D02*
X148299866Y-83317983D01*
X148299866Y-83317983D02*
X148266533Y-83251316D01*
X148266533Y-83251316D02*
X148266533Y-83084650D01*
X148266533Y-83084650D02*
X148299866Y-83017983D01*
X148299866Y-83017983D02*
X148333200Y-82984650D01*
X148333200Y-82984650D02*
X148399866Y-82951316D01*
X148399866Y-82951316D02*
X148466533Y-82951316D01*
X148466533Y-82951316D02*
X148566533Y-82984650D01*
X148566533Y-82984650D02*
X148966533Y-83384650D01*
X148966533Y-83384650D02*
X148966533Y-82951316D01*
X139714411Y-70569819D02*
X139714411Y-69569819D01*
X139714411Y-69569819D02*
X139952506Y-69569819D01*
X139952506Y-69569819D02*
X140095363Y-69617438D01*
X140095363Y-69617438D02*
X140190601Y-69712676D01*
X140190601Y-69712676D02*
X140238220Y-69807914D01*
X140238220Y-69807914D02*
X140285839Y-69998390D01*
X140285839Y-69998390D02*
X140285839Y-70141247D01*
X140285839Y-70141247D02*
X140238220Y-70331723D01*
X140238220Y-70331723D02*
X140190601Y-70426961D01*
X140190601Y-70426961D02*
X140095363Y-70522200D01*
X140095363Y-70522200D02*
X139952506Y-70569819D01*
X139952506Y-70569819D02*
X139714411Y-70569819D01*
D11*
X151596177Y-91489638D02*
X150453320Y-91489638D01*
X151024748Y-91489638D02*
X151024748Y-89489638D01*
X151024748Y-89489638D02*
X150834272Y-89775352D01*
X150834272Y-89775352D02*
X150643796Y-89965828D01*
X150643796Y-89965828D02*
X150453320Y-90061066D01*
X120855701Y-59156304D02*
X120855701Y-60489638D01*
X120379510Y-58394400D02*
X119903320Y-59822971D01*
X119903320Y-59822971D02*
X121141415Y-59822971D01*
D10*
X139815601Y-54628152D02*
X139815601Y-55294819D01*
X139577506Y-54247200D02*
X139339411Y-54961485D01*
X139339411Y-54961485D02*
X139958458Y-54961485D01*
X130589411Y-61244819D02*
X130589411Y-60244819D01*
X130589411Y-60244819D02*
X130827506Y-60244819D01*
X130827506Y-60244819D02*
X130970363Y-60292438D01*
X130970363Y-60292438D02*
X131065601Y-60387676D01*
X131065601Y-60387676D02*
X131113220Y-60482914D01*
X131113220Y-60482914D02*
X131160839Y-60673390D01*
X131160839Y-60673390D02*
X131160839Y-60816247D01*
X131160839Y-60816247D02*
X131113220Y-61006723D01*
X131113220Y-61006723D02*
X131065601Y-61101961D01*
X131065601Y-61101961D02*
X130970363Y-61197200D01*
X130970363Y-61197200D02*
X130827506Y-61244819D01*
X130827506Y-61244819D02*
X130589411Y-61244819D01*
X131014411Y-78769819D02*
X131014411Y-77769819D01*
X131014411Y-77769819D02*
X131252506Y-77769819D01*
X131252506Y-77769819D02*
X131395363Y-77817438D01*
X131395363Y-77817438D02*
X131490601Y-77912676D01*
X131490601Y-77912676D02*
X131538220Y-78007914D01*
X131538220Y-78007914D02*
X131585839Y-78198390D01*
X131585839Y-78198390D02*
X131585839Y-78341247D01*
X131585839Y-78341247D02*
X131538220Y-78531723D01*
X131538220Y-78531723D02*
X131490601Y-78626961D01*
X131490601Y-78626961D02*
X131395363Y-78722200D01*
X131395363Y-78722200D02*
X131252506Y-78769819D01*
X131252506Y-78769819D02*
X131014411Y-78769819D01*
X131388220Y-54442438D02*
X131292982Y-54394819D01*
X131292982Y-54394819D02*
X131150125Y-54394819D01*
X131150125Y-54394819D02*
X131007268Y-54442438D01*
X131007268Y-54442438D02*
X130912030Y-54537676D01*
X130912030Y-54537676D02*
X130864411Y-54632914D01*
X130864411Y-54632914D02*
X130816792Y-54823390D01*
X130816792Y-54823390D02*
X130816792Y-54966247D01*
X130816792Y-54966247D02*
X130864411Y-55156723D01*
X130864411Y-55156723D02*
X130912030Y-55251961D01*
X130912030Y-55251961D02*
X131007268Y-55347200D01*
X131007268Y-55347200D02*
X131150125Y-55394819D01*
X131150125Y-55394819D02*
X131245363Y-55394819D01*
X131245363Y-55394819D02*
X131388220Y-55347200D01*
X131388220Y-55347200D02*
X131435839Y-55299580D01*
X131435839Y-55299580D02*
X131435839Y-54966247D01*
X131435839Y-54966247D02*
X131245363Y-54966247D01*
D11*
X150728320Y-58630114D02*
X150823558Y-58534876D01*
X150823558Y-58534876D02*
X151014034Y-58439638D01*
X151014034Y-58439638D02*
X151490225Y-58439638D01*
X151490225Y-58439638D02*
X151680701Y-58534876D01*
X151680701Y-58534876D02*
X151775939Y-58630114D01*
X151775939Y-58630114D02*
X151871177Y-58820590D01*
X151871177Y-58820590D02*
X151871177Y-59011066D01*
X151871177Y-59011066D02*
X151775939Y-59296780D01*
X151775939Y-59296780D02*
X150633082Y-60439638D01*
X150633082Y-60439638D02*
X151871177Y-60439638D01*
X132371177Y-92959876D02*
X132180701Y-92864638D01*
X132180701Y-92864638D02*
X131894987Y-92864638D01*
X131894987Y-92864638D02*
X131609272Y-92959876D01*
X131609272Y-92959876D02*
X131418796Y-93150352D01*
X131418796Y-93150352D02*
X131323558Y-93340828D01*
X131323558Y-93340828D02*
X131228320Y-93721780D01*
X131228320Y-93721780D02*
X131228320Y-94007495D01*
X131228320Y-94007495D02*
X131323558Y-94388447D01*
X131323558Y-94388447D02*
X131418796Y-94578923D01*
X131418796Y-94578923D02*
X131609272Y-94769400D01*
X131609272Y-94769400D02*
X131894987Y-94864638D01*
X131894987Y-94864638D02*
X132085463Y-94864638D01*
X132085463Y-94864638D02*
X132371177Y-94769400D01*
X132371177Y-94769400D02*
X132466415Y-94674161D01*
X132466415Y-94674161D02*
X132466415Y-94007495D01*
X132466415Y-94007495D02*
X132085463Y-94007495D01*
X119733082Y-89464638D02*
X120971177Y-89464638D01*
X120971177Y-89464638D02*
X120304510Y-90226542D01*
X120304510Y-90226542D02*
X120590225Y-90226542D01*
X120590225Y-90226542D02*
X120780701Y-90321780D01*
X120780701Y-90321780D02*
X120875939Y-90417019D01*
X120875939Y-90417019D02*
X120971177Y-90607495D01*
X120971177Y-90607495D02*
X120971177Y-91083685D01*
X120971177Y-91083685D02*
X120875939Y-91274161D01*
X120875939Y-91274161D02*
X120780701Y-91369400D01*
X120780701Y-91369400D02*
X120590225Y-91464638D01*
X120590225Y-91464638D02*
X120018796Y-91464638D01*
X120018796Y-91464638D02*
X119828320Y-91369400D01*
X119828320Y-91369400D02*
X119733082Y-91274161D01*
X138812844Y-92864638D02*
X139479510Y-94864638D01*
X139479510Y-94864638D02*
X140146177Y-92864638D01*
D10*
X139614411Y-89369819D02*
X139614411Y-88369819D01*
X139614411Y-88369819D02*
X139852506Y-88369819D01*
X139852506Y-88369819D02*
X139995363Y-88417438D01*
X139995363Y-88417438D02*
X140090601Y-88512676D01*
X140090601Y-88512676D02*
X140138220Y-88607914D01*
X140138220Y-88607914D02*
X140185839Y-88798390D01*
X140185839Y-88798390D02*
X140185839Y-88941247D01*
X140185839Y-88941247D02*
X140138220Y-89131723D01*
X140138220Y-89131723D02*
X140090601Y-89226961D01*
X140090601Y-89226961D02*
X139995363Y-89322200D01*
X139995363Y-89322200D02*
X139852506Y-89369819D01*
X139852506Y-89369819D02*
X139614411Y-89369819D01*
D12*
%TO.C,RN24*%
X135895000Y-55925000D02*
X135895000Y-56425000D01*
X137455000Y-55925000D02*
X137455000Y-56425000D01*
%TO.C,RN8*%
X136630000Y-91975000D02*
X136630000Y-91475000D01*
X135070000Y-91975000D02*
X135070000Y-91475000D01*
D13*
%TO.C,Q14*%
X148950000Y-71450000D02*
X148950000Y-71595000D01*
X145650000Y-71450000D02*
X148950000Y-71450000D01*
X145650000Y-71595000D02*
X145650000Y-71450000D01*
X148950000Y-74605000D02*
X148950000Y-74750000D01*
X148950000Y-74750000D02*
X145650000Y-74750000D01*
X145650000Y-74750000D02*
X145650000Y-74605000D01*
D14*
X145350000Y-71725000D02*
G75*
G03*
X145350000Y-71725000I-100000J0D01*
G01*
D12*
%TO.C,C63*%
X127935000Y-80138748D02*
X127935000Y-81561252D01*
X126115000Y-80138748D02*
X126115000Y-81561252D01*
D13*
%TO.C,Q10*%
X122062500Y-71000000D02*
X122062500Y-70855000D01*
X125362500Y-71000000D02*
X122062500Y-71000000D01*
X125362500Y-70855000D02*
X125362500Y-71000000D01*
X122062500Y-67845000D02*
X122062500Y-67700000D01*
X122062500Y-67700000D02*
X125362500Y-67700000D01*
X125362500Y-67700000D02*
X125362500Y-67845000D01*
D14*
X125862500Y-70725000D02*
G75*
G03*
X125862500Y-70725000I-100000J0D01*
G01*
D12*
%TO.C,RN14*%
X132125000Y-71755000D02*
X132625000Y-71755000D01*
X132125000Y-70195000D02*
X132625000Y-70195000D01*
D13*
%TO.C,Q18*%
X148975000Y-59075000D02*
X148975000Y-59220000D01*
X145675000Y-59075000D02*
X148975000Y-59075000D01*
X145675000Y-59220000D02*
X145675000Y-59075000D01*
X148975000Y-62230000D02*
X148975000Y-62375000D01*
X148975000Y-62375000D02*
X145675000Y-62375000D01*
X145675000Y-62375000D02*
X145675000Y-62230000D01*
D14*
X145375000Y-59350000D02*
G75*
G03*
X145375000Y-59350000I-100000J0D01*
G01*
D12*
%TO.C,C32*%
X133640580Y-84060000D02*
X133359420Y-84060000D01*
X133640580Y-83040000D02*
X133359420Y-83040000D01*
%TO.C,C15*%
X131190000Y-58445336D02*
X131190000Y-58229664D01*
X131910000Y-58445336D02*
X131910000Y-58229664D01*
%TO.C,TP5*%
X131925000Y-62175000D02*
G75*
G03*
X131925000Y-62175000I-700000J0D01*
G01*
%TO.C,C57*%
X126115000Y-69861252D02*
X126115000Y-68438748D01*
X127935000Y-69861252D02*
X127935000Y-68438748D01*
%TO.C,C64*%
X126115000Y-77661252D02*
X126115000Y-76238748D01*
X127935000Y-77661252D02*
X127935000Y-76238748D01*
%TO.C,C49*%
X144885000Y-72338748D02*
X144885000Y-73761252D01*
X143065000Y-72338748D02*
X143065000Y-73761252D01*
%TO.C,C16*%
X139410000Y-60542164D02*
X139410000Y-60757836D01*
X138690000Y-60542164D02*
X138690000Y-60757836D01*
%TO.C,RN28*%
X132719503Y-73925000D02*
X132719503Y-74425000D01*
X134279503Y-73925000D02*
X134279503Y-74425000D01*
%TO.C,U1*%
X133990000Y-89560000D02*
X133990000Y-89010000D01*
X134540000Y-85340000D02*
X133990000Y-85340000D01*
X134540000Y-89560000D02*
X133990000Y-89560000D01*
X137660000Y-85340000D02*
X138210000Y-85340000D01*
X137660000Y-89560000D02*
X138210000Y-89560000D01*
X138210000Y-85340000D02*
X138210000Y-85890000D01*
X138210000Y-89560000D02*
X138210000Y-89010000D01*
%TO.C,C5*%
X139535000Y-71542164D02*
X139535000Y-71757836D01*
X138815000Y-71542164D02*
X138815000Y-71757836D01*
%TO.C,C1*%
X139585000Y-90042164D02*
X139585000Y-90257836D01*
X138865000Y-90042164D02*
X138865000Y-90257836D01*
%TO.C,C4*%
X131765000Y-87432836D02*
X131765000Y-87217164D01*
X132485000Y-87432836D02*
X132485000Y-87217164D01*
%TO.C,RN4*%
X132200000Y-91342500D02*
X132700000Y-91342500D01*
X132200000Y-89782500D02*
X132700000Y-89782500D01*
%TO.C,C23*%
X131189503Y-76457836D02*
X131189503Y-76242164D01*
X131909503Y-76457836D02*
X131909503Y-76242164D01*
%TO.C,C52*%
X145711252Y-93360000D02*
X144288748Y-93360000D01*
X145711252Y-91540000D02*
X144288748Y-91540000D01*
%TO.C,C58*%
X127935000Y-72338748D02*
X127935000Y-73761252D01*
X126115000Y-72338748D02*
X126115000Y-73761252D01*
%TO.C,C30*%
X133640580Y-82585000D02*
X133359420Y-82585000D01*
X133640580Y-81565000D02*
X133359420Y-81565000D01*
%TO.C,TP6*%
X132450000Y-64175000D02*
G75*
G03*
X132450000Y-64175000I-700000J0D01*
G01*
%TO.C,C18*%
X138492164Y-61715000D02*
X138707836Y-61715000D01*
X138492164Y-62435000D02*
X138707836Y-62435000D01*
%TO.C,C31*%
X134035000Y-65109420D02*
X134035000Y-65390580D01*
X133015000Y-65109420D02*
X133015000Y-65390580D01*
D13*
%TO.C,Q22*%
X148962500Y-79050000D02*
X148962500Y-79195000D01*
X145662500Y-79050000D02*
X148962500Y-79050000D01*
X145662500Y-79195000D02*
X145662500Y-79050000D01*
X148962500Y-82205000D02*
X148962500Y-82350000D01*
X148962500Y-82350000D02*
X145662500Y-82350000D01*
X145662500Y-82350000D02*
X145662500Y-82205000D01*
D14*
X145362500Y-79325000D02*
G75*
G03*
X145362500Y-79325000I-100000J0D01*
G01*
D12*
%TO.C,RN30*%
X138724503Y-75870000D02*
X138224503Y-75870000D01*
X138724503Y-77430000D02*
X138224503Y-77430000D01*
%TO.C,C68*%
X145736252Y-58510000D02*
X144313748Y-58510000D01*
X145736252Y-56690000D02*
X144313748Y-56690000D01*
%TO.C,C55*%
X144985000Y-88613748D02*
X144985000Y-90036252D01*
X143165000Y-88613748D02*
X143165000Y-90036252D01*
D13*
%TO.C,Q24*%
X148962500Y-75250000D02*
X148962500Y-75395000D01*
X145662500Y-75250000D02*
X148962500Y-75250000D01*
X145662500Y-75395000D02*
X145662500Y-75250000D01*
X148962500Y-78405000D02*
X148962500Y-78550000D01*
X148962500Y-78550000D02*
X145662500Y-78550000D01*
X145662500Y-78550000D02*
X145662500Y-78405000D01*
D14*
X145362500Y-75525000D02*
G75*
G03*
X145362500Y-75525000I-100000J0D01*
G01*
D12*
%TO.C,C51*%
X125363748Y-91615000D02*
X126786252Y-91615000D01*
X125363748Y-93435000D02*
X126786252Y-93435000D01*
%TO.C,TP8*%
X131975000Y-82025000D02*
G75*
G03*
X131975000Y-82025000I-700000J0D01*
G01*
%TO.C,C48*%
X143065000Y-69861252D02*
X143065000Y-68438748D01*
X144885000Y-69861252D02*
X144885000Y-68438748D01*
D13*
%TO.C,Q16*%
X148925000Y-67700000D02*
X148925000Y-67845000D01*
X145625000Y-67700000D02*
X148925000Y-67700000D01*
X145625000Y-67845000D02*
X145625000Y-67700000D01*
X148925000Y-70855000D02*
X148925000Y-71000000D01*
X148925000Y-71000000D02*
X145625000Y-71000000D01*
X145625000Y-71000000D02*
X145625000Y-70855000D01*
D14*
X145325000Y-67975000D02*
G75*
G03*
X145325000Y-67975000I-100000J0D01*
G01*
D12*
%TO.C,TP4*%
X140350000Y-66925000D02*
G75*
G03*
X140350000Y-66925000I-700000J0D01*
G01*
D13*
%TO.C,Q20*%
X148937500Y-87650000D02*
X148937500Y-87795000D01*
X145637500Y-87650000D02*
X148937500Y-87650000D01*
X145637500Y-87795000D02*
X145637500Y-87650000D01*
X148937500Y-90805000D02*
X148937500Y-90950000D01*
X148937500Y-90950000D02*
X145637500Y-90950000D01*
X145637500Y-90950000D02*
X145637500Y-90805000D01*
D14*
X145337500Y-87925000D02*
G75*
G03*
X145337500Y-87925000I-100000J0D01*
G01*
D12*
%TO.C,C50*%
X144885000Y-80138748D02*
X144885000Y-81561252D01*
X143065000Y-80138748D02*
X143065000Y-81561252D01*
%TO.C,RN32*%
X135869503Y-73925000D02*
X135869503Y-74425000D01*
X137429503Y-73925000D02*
X137429503Y-74425000D01*
%TO.C,C25*%
X138266667Y-79590000D02*
X138482339Y-79590000D01*
X138266667Y-80310000D02*
X138482339Y-80310000D01*
%TO.C,RN6*%
X132200000Y-89792500D02*
X132700000Y-89792500D01*
X132200000Y-88232500D02*
X132700000Y-88232500D01*
%TO.C,RN7*%
X138230000Y-91975000D02*
X138230000Y-91475000D01*
X136670000Y-91975000D02*
X136670000Y-91475000D01*
%TO.C,C40*%
X125238748Y-56640000D02*
X126661252Y-56640000D01*
X125238748Y-58460000D02*
X126661252Y-58460000D01*
%TO.C,U9*%
X137925000Y-81290000D02*
X136125000Y-81290000D01*
X137925000Y-81290000D02*
X138725000Y-81290000D01*
X137925000Y-84410000D02*
X137125000Y-84410000D01*
X137925000Y-84410000D02*
X138725000Y-84410000D01*
%TO.C,TP1*%
X140525000Y-86850000D02*
G75*
G03*
X140525000Y-86850000I-700000J0D01*
G01*
D13*
%TO.C,Q4*%
X122050000Y-82350000D02*
X122050000Y-82205000D01*
X125350000Y-82350000D02*
X122050000Y-82350000D01*
X125350000Y-82205000D02*
X125350000Y-82350000D01*
X122050000Y-79195000D02*
X122050000Y-79050000D01*
X122050000Y-79050000D02*
X125350000Y-79050000D01*
X125350000Y-79050000D02*
X125350000Y-79195000D01*
D14*
X125850000Y-82075000D02*
G75*
G03*
X125850000Y-82075000I-100000J0D01*
G01*
D12*
%TO.C,RN29*%
X134294503Y-73925000D02*
X134294503Y-74425000D01*
X135854503Y-73925000D02*
X135854503Y-74425000D01*
%TO.C,C71*%
X143140000Y-61361252D02*
X143140000Y-59938748D01*
X144960000Y-61361252D02*
X144960000Y-59938748D01*
%TO.C,RN5*%
X135030000Y-91975000D02*
X135030000Y-91475000D01*
X133470000Y-91975000D02*
X133470000Y-91475000D01*
%TO.C,U3*%
X133940000Y-71460000D02*
X133940000Y-70910000D01*
X134490000Y-67240000D02*
X133940000Y-67240000D01*
X134490000Y-71460000D02*
X133940000Y-71460000D01*
X137610000Y-67240000D02*
X138160000Y-67240000D01*
X137610000Y-71460000D02*
X138160000Y-71460000D01*
X138160000Y-67240000D02*
X138160000Y-67790000D01*
X138160000Y-71460000D02*
X138160000Y-70910000D01*
%TO.C,TP2*%
X140500000Y-85300000D02*
G75*
G03*
X140500000Y-85300000I-700000J0D01*
G01*
%TO.C,U5*%
X136960000Y-58265000D02*
X136960000Y-58815000D01*
X136410000Y-62485000D02*
X136960000Y-62485000D01*
X136410000Y-58265000D02*
X136960000Y-58265000D01*
X133290000Y-62485000D02*
X132740000Y-62485000D01*
X133290000Y-58265000D02*
X132740000Y-58265000D01*
X132740000Y-62485000D02*
X132740000Y-61935000D01*
X132740000Y-58265000D02*
X132740000Y-58815000D01*
D13*
%TO.C,Q6*%
X122050000Y-90950000D02*
X122050000Y-90805000D01*
X125350000Y-90950000D02*
X122050000Y-90950000D01*
X125350000Y-90805000D02*
X125350000Y-90950000D01*
X122050000Y-87795000D02*
X122050000Y-87650000D01*
X122050000Y-87650000D02*
X125350000Y-87650000D01*
X125350000Y-87650000D02*
X125350000Y-87795000D01*
D14*
X125850000Y-90675000D02*
G75*
G03*
X125850000Y-90675000I-100000J0D01*
G01*
D12*
%TO.C,RN31*%
X138724503Y-74295000D02*
X138224503Y-74295000D01*
X138724503Y-75855000D02*
X138224503Y-75855000D01*
D13*
%TO.C,Q1*%
X122050000Y-78550000D02*
X122050000Y-78405000D01*
X125350000Y-78550000D02*
X122050000Y-78550000D01*
X125350000Y-78405000D02*
X125350000Y-78550000D01*
X122050000Y-75395000D02*
X122050000Y-75250000D01*
X122050000Y-75250000D02*
X125350000Y-75250000D01*
X125350000Y-75250000D02*
X125350000Y-75395000D01*
D14*
X125850000Y-78275000D02*
G75*
G03*
X125850000Y-78275000I-100000J0D01*
G01*
D12*
%TO.C,TP7*%
X132000000Y-80025000D02*
G75*
G03*
X132000000Y-80025000I-700000J0D01*
G01*
%TO.C,RN22*%
X138750000Y-58095000D02*
X138250000Y-58095000D01*
X138750000Y-59655000D02*
X138250000Y-59655000D01*
%TO.C,C8*%
X132407836Y-68185000D02*
X132192164Y-68185000D01*
X132407836Y-67465000D02*
X132192164Y-67465000D01*
%TO.C,RN21*%
X134320000Y-55925000D02*
X134320000Y-56425000D01*
X135880000Y-55925000D02*
X135880000Y-56425000D01*
%TO.C,C13*%
X132657836Y-86310000D02*
X132442164Y-86310000D01*
X132657836Y-85590000D02*
X132442164Y-85590000D01*
%TO.C,C38*%
X126015000Y-61386252D02*
X126015000Y-59963748D01*
X127835000Y-61386252D02*
X127835000Y-59963748D01*
%TO.C,C29*%
X140135000Y-64584420D02*
X140135000Y-64865580D01*
X139115000Y-64584420D02*
X139115000Y-64865580D01*
D13*
%TO.C,Q8*%
X122012500Y-62325000D02*
X122012500Y-62180000D01*
X125312500Y-62325000D02*
X122012500Y-62325000D01*
X125312500Y-62180000D02*
X125312500Y-62325000D01*
X122012500Y-59170000D02*
X122012500Y-59025000D01*
X122012500Y-59025000D02*
X125312500Y-59025000D01*
X125312500Y-59025000D02*
X125312500Y-59170000D01*
D14*
X125812500Y-62050000D02*
G75*
G03*
X125812500Y-62050000I-100000J0D01*
G01*
D12*
%TO.C,C53*%
X127810000Y-88613748D02*
X127810000Y-90036252D01*
X125990000Y-88613748D02*
X125990000Y-90036252D01*
%TO.C,C6*%
X131490000Y-69332836D02*
X131490000Y-69117164D01*
X132210000Y-69332836D02*
X132210000Y-69117164D01*
D13*
%TO.C,Q12*%
X122050000Y-74675000D02*
X122050000Y-74530000D01*
X125350000Y-74675000D02*
X122050000Y-74675000D01*
X125350000Y-74530000D02*
X125350000Y-74675000D01*
X122050000Y-71520000D02*
X122050000Y-71375000D01*
X122050000Y-71375000D02*
X125350000Y-71375000D01*
X125350000Y-71375000D02*
X125350000Y-71520000D01*
D14*
X125850000Y-74400000D02*
G75*
G03*
X125850000Y-74400000I-100000J0D01*
G01*
D12*
%TO.C,RN20*%
X132745000Y-55925000D02*
X132745000Y-56425000D01*
X134305000Y-55925000D02*
X134305000Y-56425000D01*
%TO.C,TP3*%
X140275000Y-68450000D02*
G75*
G03*
X140275000Y-68450000I-700000J0D01*
G01*
%TO.C,RN23*%
X138750000Y-56520000D02*
X138250000Y-56520000D01*
X138750000Y-58080000D02*
X138250000Y-58080000D01*
%TO.C,U11*%
X136400000Y-63365000D02*
X134600000Y-63365000D01*
X136400000Y-63365000D02*
X137200000Y-63365000D01*
X136400000Y-66485000D02*
X135600000Y-66485000D01*
X136400000Y-66485000D02*
X137200000Y-66485000D01*
%TO.C,C22*%
X139334503Y-78317164D02*
X139334503Y-78532836D01*
X138614503Y-78317164D02*
X138614503Y-78532836D01*
%TO.C,U7*%
X136910000Y-76215000D02*
X136910000Y-76765000D01*
X136360000Y-80435000D02*
X136910000Y-80435000D01*
X136360000Y-76215000D02*
X136910000Y-76215000D01*
X133240000Y-80435000D02*
X132690000Y-80435000D01*
X133240000Y-76215000D02*
X132690000Y-76215000D01*
X132690000Y-80435000D02*
X132690000Y-79885000D01*
X132690000Y-76215000D02*
X132690000Y-76765000D01*
%TO.C,C43*%
X143065000Y-77661252D02*
X143065000Y-76238748D01*
X144885000Y-77661252D02*
X144885000Y-76238748D01*
%TD*%
M02*
