%TF.GenerationSoftware,KiCad,Pcbnew,7.0.4*%
%TF.CreationDate,2023-05-25T14:45:12+03:00*%
%TF.ProjectId,fpv_findland_esc,6670765f-6669-46e6-946c-616e645f6573,Rev_0.2*%
%TF.SameCoordinates,Original*%
%TF.FileFunction,Legend,Bot*%
%TF.FilePolarity,Positive*%
%FSLAX46Y46*%
G04 Gerber Fmt 4.6, Leading zero omitted, Abs format (unit mm)*
G04 Created by KiCad (PCBNEW 7.0.4) date 2023-05-25 14:45:12*
%MOMM*%
%LPD*%
G01*
G04 APERTURE LIST*
%ADD10C,0.150000*%
%ADD11C,0.300000*%
%ADD12C,0.120000*%
%ADD13C,0.127000*%
%ADD14C,0.200000*%
G04 APERTURE END LIST*
D10*
X136210839Y-55165057D02*
X136163220Y-55117438D01*
X136163220Y-55117438D02*
X136067982Y-55069819D01*
X136067982Y-55069819D02*
X135829887Y-55069819D01*
X135829887Y-55069819D02*
X135734649Y-55117438D01*
X135734649Y-55117438D02*
X135687030Y-55165057D01*
X135687030Y-55165057D02*
X135639411Y-55260295D01*
X135639411Y-55260295D02*
X135639411Y-55355533D01*
X135639411Y-55355533D02*
X135687030Y-55498390D01*
X135687030Y-55498390D02*
X136258458Y-56069819D01*
X136258458Y-56069819D02*
X135639411Y-56069819D01*
X131002506Y-92942676D02*
X131192982Y-92847438D01*
X131192982Y-92847438D02*
X131478696Y-92847438D01*
X131478696Y-92847438D02*
X131764411Y-92942676D01*
X131764411Y-92942676D02*
X131954887Y-93133152D01*
X131954887Y-93133152D02*
X132050125Y-93323628D01*
X132050125Y-93323628D02*
X132145363Y-93704580D01*
X132145363Y-93704580D02*
X132145363Y-93990295D01*
X132145363Y-93990295D02*
X132050125Y-94371247D01*
X132050125Y-94371247D02*
X131954887Y-94561723D01*
X131954887Y-94561723D02*
X131764411Y-94752200D01*
X131764411Y-94752200D02*
X131478696Y-94847438D01*
X131478696Y-94847438D02*
X131288220Y-94847438D01*
X131288220Y-94847438D02*
X131002506Y-94752200D01*
X131002506Y-94752200D02*
X130907268Y-94656961D01*
X130907268Y-94656961D02*
X130907268Y-93990295D01*
X130907268Y-93990295D02*
X131288220Y-93990295D01*
D11*
X151321679Y-58580114D02*
X151226441Y-58484876D01*
X151226441Y-58484876D02*
X151035965Y-58389638D01*
X151035965Y-58389638D02*
X150559774Y-58389638D01*
X150559774Y-58389638D02*
X150369298Y-58484876D01*
X150369298Y-58484876D02*
X150274060Y-58580114D01*
X150274060Y-58580114D02*
X150178822Y-58770590D01*
X150178822Y-58770590D02*
X150178822Y-58961066D01*
X150178822Y-58961066D02*
X150274060Y-59246780D01*
X150274060Y-59246780D02*
X151416917Y-60389638D01*
X151416917Y-60389638D02*
X150178822Y-60389638D01*
D10*
X131939411Y-55117438D02*
X132034649Y-55069819D01*
X132034649Y-55069819D02*
X132177506Y-55069819D01*
X132177506Y-55069819D02*
X132320363Y-55117438D01*
X132320363Y-55117438D02*
X132415601Y-55212676D01*
X132415601Y-55212676D02*
X132463220Y-55307914D01*
X132463220Y-55307914D02*
X132510839Y-55498390D01*
X132510839Y-55498390D02*
X132510839Y-55641247D01*
X132510839Y-55641247D02*
X132463220Y-55831723D01*
X132463220Y-55831723D02*
X132415601Y-55926961D01*
X132415601Y-55926961D02*
X132320363Y-56022200D01*
X132320363Y-56022200D02*
X132177506Y-56069819D01*
X132177506Y-56069819D02*
X132082268Y-56069819D01*
X132082268Y-56069819D02*
X131939411Y-56022200D01*
X131939411Y-56022200D02*
X131891792Y-55974580D01*
X131891792Y-55974580D02*
X131891792Y-55641247D01*
X131891792Y-55641247D02*
X132082268Y-55641247D01*
X139885839Y-92847438D02*
X139219173Y-94847438D01*
X139219173Y-94847438D02*
X138552506Y-92847438D01*
X133856077Y-55019819D02*
X133522744Y-56019819D01*
X133522744Y-56019819D02*
X133189411Y-55019819D01*
D11*
X149978822Y-91489638D02*
X151121679Y-91489638D01*
X150550251Y-91489638D02*
X150550251Y-89489638D01*
X150550251Y-89489638D02*
X150740727Y-89775352D01*
X150740727Y-89775352D02*
X150931203Y-89965828D01*
X150931203Y-89965828D02*
X151121679Y-90061066D01*
D10*
X134339411Y-56019819D02*
X134910839Y-56019819D01*
X134625125Y-56019819D02*
X134625125Y-55019819D01*
X134625125Y-55019819D02*
X134720363Y-55162676D01*
X134720363Y-55162676D02*
X134815601Y-55257914D01*
X134815601Y-55257914D02*
X134910839Y-55305533D01*
X138284649Y-55403152D02*
X138284649Y-56069819D01*
X138522744Y-55022200D02*
X138760839Y-55736485D01*
X138760839Y-55736485D02*
X138141792Y-55736485D01*
D11*
X119569298Y-59181304D02*
X119569298Y-60514638D01*
X120045489Y-58419400D02*
X120521679Y-59847971D01*
X120521679Y-59847971D02*
X119283584Y-59847971D01*
X120366917Y-89589638D02*
X119128822Y-89589638D01*
X119128822Y-89589638D02*
X119795489Y-90351542D01*
X119795489Y-90351542D02*
X119509774Y-90351542D01*
X119509774Y-90351542D02*
X119319298Y-90446780D01*
X119319298Y-90446780D02*
X119224060Y-90542019D01*
X119224060Y-90542019D02*
X119128822Y-90732495D01*
X119128822Y-90732495D02*
X119128822Y-91208685D01*
X119128822Y-91208685D02*
X119224060Y-91399161D01*
X119224060Y-91399161D02*
X119319298Y-91494400D01*
X119319298Y-91494400D02*
X119509774Y-91589638D01*
X119509774Y-91589638D02*
X120081203Y-91589638D01*
X120081203Y-91589638D02*
X120271679Y-91494400D01*
X120271679Y-91494400D02*
X120366917Y-91399161D01*
D10*
X137558458Y-55069819D02*
X136939411Y-55069819D01*
X136939411Y-55069819D02*
X137272744Y-55450771D01*
X137272744Y-55450771D02*
X137129887Y-55450771D01*
X137129887Y-55450771D02*
X137034649Y-55498390D01*
X137034649Y-55498390D02*
X136987030Y-55546009D01*
X136987030Y-55546009D02*
X136939411Y-55641247D01*
X136939411Y-55641247D02*
X136939411Y-55879342D01*
X136939411Y-55879342D02*
X136987030Y-55974580D01*
X136987030Y-55974580D02*
X137034649Y-56022200D01*
X137034649Y-56022200D02*
X137129887Y-56069819D01*
X137129887Y-56069819D02*
X137415601Y-56069819D01*
X137415601Y-56069819D02*
X137510839Y-56022200D01*
X137510839Y-56022200D02*
X137558458Y-55974580D01*
D12*
%TO.C,C12*%
X136409420Y-65365000D02*
X136690580Y-65365000D01*
X136409420Y-66385000D02*
X136690580Y-66385000D01*
%TO.C,C45*%
X143065000Y-77661252D02*
X143065000Y-76238748D01*
X144885000Y-77661252D02*
X144885000Y-76238748D01*
%TO.C,RN11*%
X132275000Y-69845000D02*
X131775000Y-69845000D01*
X132275000Y-71405000D02*
X131775000Y-71405000D01*
%TO.C,C11*%
X133865580Y-91335000D02*
X133584420Y-91335000D01*
X133865580Y-90315000D02*
X133584420Y-90315000D01*
D13*
%TO.C,Q15*%
X148937500Y-67700000D02*
X145637500Y-67700000D01*
X145637500Y-67700000D02*
X145637500Y-67845000D01*
X148937500Y-67845000D02*
X148937500Y-67700000D01*
X145637500Y-70855000D02*
X145637500Y-71000000D01*
X148937500Y-71000000D02*
X148937500Y-70855000D01*
X145637500Y-71000000D02*
X148937500Y-71000000D01*
D14*
X149437500Y-67975000D02*
G75*
G03*
X149437500Y-67975000I-100000J0D01*
G01*
D12*
%TO.C,C26*%
X130689503Y-81165580D02*
X130689503Y-80884420D01*
X131709503Y-81165580D02*
X131709503Y-80884420D01*
%TO.C,C21*%
X137515580Y-64335000D02*
X137234420Y-64335000D01*
X137515580Y-63315000D02*
X137234420Y-63315000D01*
%TO.C,U2*%
X134240000Y-89560000D02*
X134715000Y-89560000D01*
X134240000Y-89085000D02*
X134240000Y-89560000D01*
X138460000Y-89085000D02*
X138460000Y-89560000D01*
X134240000Y-85815000D02*
X134240000Y-85340000D01*
X138460000Y-85815000D02*
X138460000Y-85340000D01*
X134240000Y-85340000D02*
X134715000Y-85340000D01*
X138460000Y-85340000D02*
X137985000Y-85340000D01*
%TO.C,U8*%
X136660000Y-76215000D02*
X136185000Y-76215000D01*
X136660000Y-76690000D02*
X136660000Y-76215000D01*
X132440000Y-76690000D02*
X132440000Y-76215000D01*
X136660000Y-79960000D02*
X136660000Y-80435000D01*
X132440000Y-79960000D02*
X132440000Y-80435000D01*
X136660000Y-80435000D02*
X136185000Y-80435000D01*
X132440000Y-80435000D02*
X132915000Y-80435000D01*
%TO.C,RN3*%
X132200000Y-87870000D02*
X131700000Y-87870000D01*
X132200000Y-89430000D02*
X131700000Y-89430000D01*
%TO.C,C28*%
X137465083Y-82410000D02*
X137183923Y-82410000D01*
X137465083Y-81390000D02*
X137183923Y-81390000D01*
D13*
%TO.C,Q21*%
X148950000Y-79050000D02*
X145650000Y-79050000D01*
X145650000Y-79050000D02*
X145650000Y-79195000D01*
X148950000Y-79195000D02*
X148950000Y-79050000D01*
X145650000Y-82205000D02*
X145650000Y-82350000D01*
X148950000Y-82350000D02*
X148950000Y-82205000D01*
X145650000Y-82350000D02*
X148950000Y-82350000D01*
D14*
X149450000Y-79325000D02*
G75*
G03*
X149450000Y-79325000I-100000J0D01*
G01*
D13*
%TO.C,Q23*%
X148962500Y-75250000D02*
X145662500Y-75250000D01*
X145662500Y-75250000D02*
X145662500Y-75395000D01*
X148962500Y-75395000D02*
X148962500Y-75250000D01*
X145662500Y-78405000D02*
X145662500Y-78550000D01*
X148962500Y-78550000D02*
X148962500Y-78405000D01*
X145662500Y-78550000D02*
X148962500Y-78550000D01*
D14*
X149462500Y-75525000D02*
G75*
G03*
X149462500Y-75525000I-100000J0D01*
G01*
D12*
%TO.C,C37*%
X125238748Y-56640000D02*
X126661252Y-56640000D01*
X125238748Y-58460000D02*
X126661252Y-58460000D01*
%TO.C,C67*%
X125363748Y-91615000D02*
X126786252Y-91615000D01*
X125363748Y-93435000D02*
X126786252Y-93435000D01*
D13*
%TO.C,Q13*%
X148962500Y-71450000D02*
X145662500Y-71450000D01*
X145662500Y-71450000D02*
X145662500Y-71595000D01*
X148962500Y-71595000D02*
X148962500Y-71450000D01*
X145662500Y-74605000D02*
X145662500Y-74750000D01*
X148962500Y-74750000D02*
X148962500Y-74605000D01*
X145662500Y-74750000D02*
X148962500Y-74750000D01*
D14*
X149462500Y-71725000D02*
G75*
G03*
X149462500Y-71725000I-100000J0D01*
G01*
D13*
%TO.C,Q3*%
X122050000Y-82350000D02*
X125350000Y-82350000D01*
X125350000Y-82350000D02*
X125350000Y-82205000D01*
X122050000Y-82205000D02*
X122050000Y-82350000D01*
X125350000Y-79195000D02*
X125350000Y-79050000D01*
X122050000Y-79050000D02*
X122050000Y-79195000D01*
X125350000Y-79050000D02*
X122050000Y-79050000D01*
D14*
X121750000Y-82075000D02*
G75*
G03*
X121750000Y-82075000I-100000J0D01*
G01*
D12*
%TO.C,C24*%
X137759420Y-74440000D02*
X138040580Y-74440000D01*
X137759420Y-75460000D02*
X138040580Y-75460000D01*
%TO.C,C65*%
X127810000Y-88613748D02*
X127810000Y-90036252D01*
X125990000Y-88613748D02*
X125990000Y-90036252D01*
%TO.C,C61*%
X127935000Y-72338748D02*
X127935000Y-73761252D01*
X126115000Y-72338748D02*
X126115000Y-73761252D01*
%TO.C,C69*%
X143140000Y-61361252D02*
X143140000Y-59938748D01*
X144960000Y-61361252D02*
X144960000Y-59938748D01*
D13*
%TO.C,Q11*%
X122037500Y-74675000D02*
X125337500Y-74675000D01*
X125337500Y-74675000D02*
X125337500Y-74530000D01*
X122037500Y-74530000D02*
X122037500Y-74675000D01*
X125337500Y-71520000D02*
X125337500Y-71375000D01*
X122037500Y-71375000D02*
X122037500Y-71520000D01*
X125337500Y-71375000D02*
X122037500Y-71375000D01*
D14*
X121737500Y-74400000D02*
G75*
G03*
X121737500Y-74400000I-100000J0D01*
G01*
D12*
%TO.C,C60*%
X127935000Y-80138748D02*
X127935000Y-81561252D01*
X126115000Y-80138748D02*
X126115000Y-81561252D01*
%TO.C,C54*%
X144985000Y-88613748D02*
X144985000Y-90036252D01*
X143165000Y-88613748D02*
X143165000Y-90036252D01*
D13*
%TO.C,Q9*%
X122050000Y-71000000D02*
X125350000Y-71000000D01*
X125350000Y-71000000D02*
X125350000Y-70855000D01*
X122050000Y-70855000D02*
X122050000Y-71000000D01*
X125350000Y-67845000D02*
X125350000Y-67700000D01*
X122050000Y-67700000D02*
X122050000Y-67845000D01*
X125350000Y-67700000D02*
X122050000Y-67700000D01*
D14*
X121750000Y-70725000D02*
G75*
G03*
X121750000Y-70725000I-100000J0D01*
G01*
D12*
%TO.C,RN16*%
X131350000Y-74730000D02*
X131850000Y-74730000D01*
X131350000Y-73170000D02*
X131850000Y-73170000D01*
%TO.C,C3*%
X140210000Y-84909420D02*
X140210000Y-85190580D01*
X139190000Y-84909420D02*
X139190000Y-85190580D01*
%TO.C,C20*%
X134540580Y-64785000D02*
X134259420Y-64785000D01*
X134540580Y-63765000D02*
X134259420Y-63765000D01*
%TO.C,RN25*%
X138424503Y-81155000D02*
X138924503Y-81155000D01*
X138424503Y-79595000D02*
X138924503Y-79595000D01*
%TO.C,RN15*%
X131350000Y-73130000D02*
X131850000Y-73130000D01*
X131350000Y-71570000D02*
X131850000Y-71570000D01*
%TO.C,RN10*%
X132275000Y-68270000D02*
X131775000Y-68270000D01*
X132275000Y-69830000D02*
X131775000Y-69830000D01*
%TO.C,RN13*%
X135780000Y-74175000D02*
X135780000Y-73675000D01*
X134220000Y-74175000D02*
X134220000Y-73675000D01*
%TO.C,C2*%
X136459420Y-83490000D02*
X136740580Y-83490000D01*
X136459420Y-84510000D02*
X136740580Y-84510000D01*
%TO.C,C62*%
X126115000Y-69861252D02*
X126115000Y-68438748D01*
X127935000Y-69861252D02*
X127935000Y-68438748D01*
%TO.C,RN12*%
X134205000Y-74175000D02*
X134205000Y-73675000D01*
X132645000Y-74175000D02*
X132645000Y-73675000D01*
%TO.C,C10*%
X133484420Y-83465000D02*
X133765580Y-83465000D01*
X133484420Y-84485000D02*
X133765580Y-84485000D01*
D13*
%TO.C,Q2*%
X122050000Y-78550000D02*
X125350000Y-78550000D01*
X125350000Y-78550000D02*
X125350000Y-78405000D01*
X122050000Y-78405000D02*
X122050000Y-78550000D01*
X125350000Y-75395000D02*
X125350000Y-75250000D01*
X122050000Y-75250000D02*
X122050000Y-75395000D01*
X125350000Y-75250000D02*
X122050000Y-75250000D01*
D14*
X121750000Y-78275000D02*
G75*
G03*
X121750000Y-78275000I-100000J0D01*
G01*
D12*
%TO.C,RN9*%
X132275000Y-66695000D02*
X131775000Y-66695000D01*
X132275000Y-68255000D02*
X131775000Y-68255000D01*
D13*
%TO.C,Q5*%
X122050000Y-90950000D02*
X125350000Y-90950000D01*
X125350000Y-90950000D02*
X125350000Y-90805000D01*
X122050000Y-90805000D02*
X122050000Y-90950000D01*
X125350000Y-87795000D02*
X125350000Y-87650000D01*
X122050000Y-87650000D02*
X122050000Y-87795000D01*
X125350000Y-87650000D02*
X122050000Y-87650000D01*
D14*
X121750000Y-90675000D02*
G75*
G03*
X121750000Y-90675000I-100000J0D01*
G01*
D12*
%TO.C,C19*%
X130740000Y-62990580D02*
X130740000Y-62709420D01*
X131760000Y-62990580D02*
X131760000Y-62709420D01*
%TO.C,C9*%
X140160000Y-66559420D02*
X140160000Y-66840580D01*
X139140000Y-66559420D02*
X139140000Y-66840580D01*
%TO.C,C27*%
X134465083Y-82285000D02*
X134183923Y-82285000D01*
X134465083Y-81265000D02*
X134183923Y-81265000D01*
%TO.C,C39*%
X126015000Y-61386252D02*
X126015000Y-59963748D01*
X127835000Y-61386252D02*
X127835000Y-59963748D01*
%TO.C,C14*%
X133409420Y-65365000D02*
X133690580Y-65365000D01*
X133409420Y-66385000D02*
X133690580Y-66385000D01*
%TO.C,C7*%
X138009420Y-72965000D02*
X138290580Y-72965000D01*
X138009420Y-73985000D02*
X138290580Y-73985000D01*
%TO.C,RN18*%
X138750000Y-61480000D02*
X139250000Y-61480000D01*
X138750000Y-59920000D02*
X139250000Y-59920000D01*
%TO.C,C59*%
X126115000Y-77661252D02*
X126115000Y-76238748D01*
X127935000Y-77661252D02*
X127935000Y-76238748D01*
%TO.C,RN2*%
X132200000Y-86295000D02*
X131700000Y-86295000D01*
X132200000Y-87855000D02*
X131700000Y-87855000D01*
%TO.C,RN27*%
X138424503Y-78005000D02*
X138924503Y-78005000D01*
X138424503Y-76445000D02*
X138924503Y-76445000D01*
%TO.C,RN26*%
X138424503Y-79580000D02*
X138924503Y-79580000D01*
X138424503Y-78020000D02*
X138924503Y-78020000D01*
%TO.C,C70*%
X145736252Y-58510000D02*
X144313748Y-58510000D01*
X145736252Y-56690000D02*
X144313748Y-56690000D01*
%TO.C,RN17*%
X138750000Y-63055000D02*
X139250000Y-63055000D01*
X138750000Y-61495000D02*
X139250000Y-61495000D01*
%TO.C,U6*%
X136735000Y-58290000D02*
X136260000Y-58290000D01*
X136735000Y-58765000D02*
X136735000Y-58290000D01*
X132515000Y-58765000D02*
X132515000Y-58290000D01*
X136735000Y-62035000D02*
X136735000Y-62510000D01*
X132515000Y-62035000D02*
X132515000Y-62510000D01*
X136735000Y-62510000D02*
X136260000Y-62510000D01*
X132515000Y-62510000D02*
X132990000Y-62510000D01*
D13*
%TO.C,Q19*%
X148937500Y-87650000D02*
X145637500Y-87650000D01*
X145637500Y-87650000D02*
X145637500Y-87795000D01*
X148937500Y-87795000D02*
X148937500Y-87650000D01*
X145637500Y-90805000D02*
X145637500Y-90950000D01*
X148937500Y-90950000D02*
X148937500Y-90805000D01*
X145637500Y-90950000D02*
X148937500Y-90950000D01*
D14*
X149437500Y-87925000D02*
G75*
G03*
X149437500Y-87925000I-100000J0D01*
G01*
D12*
%TO.C,RN1*%
X132200000Y-84720000D02*
X131700000Y-84720000D01*
X132200000Y-86280000D02*
X131700000Y-86280000D01*
%TO.C,RN19*%
X138750000Y-59905000D02*
X139250000Y-59905000D01*
X138750000Y-58345000D02*
X139250000Y-58345000D01*
D13*
%TO.C,Q17*%
X148987500Y-59075000D02*
X145687500Y-59075000D01*
X145687500Y-59075000D02*
X145687500Y-59220000D01*
X148987500Y-59220000D02*
X148987500Y-59075000D01*
X145687500Y-62230000D02*
X145687500Y-62375000D01*
X148987500Y-62375000D02*
X148987500Y-62230000D01*
X145687500Y-62375000D02*
X148987500Y-62375000D01*
D14*
X149487500Y-59350000D02*
G75*
G03*
X149487500Y-59350000I-100000J0D01*
G01*
D12*
%TO.C,C47*%
X143065000Y-69861252D02*
X143065000Y-68438748D01*
X144885000Y-69861252D02*
X144885000Y-68438748D01*
%TO.C,C66*%
X145711252Y-93360000D02*
X144288748Y-93360000D01*
X145711252Y-91540000D02*
X144288748Y-91540000D01*
%TO.C,U4*%
X134190000Y-71485000D02*
X134665000Y-71485000D01*
X134190000Y-71010000D02*
X134190000Y-71485000D01*
X138410000Y-71010000D02*
X138410000Y-71485000D01*
X134190000Y-67740000D02*
X134190000Y-67265000D01*
X138410000Y-67740000D02*
X138410000Y-67265000D01*
X134190000Y-67265000D02*
X134665000Y-67265000D01*
X138410000Y-67265000D02*
X137935000Y-67265000D01*
%TO.C,C46*%
X144885000Y-72338748D02*
X144885000Y-73761252D01*
X143065000Y-72338748D02*
X143065000Y-73761252D01*
%TO.C,C17*%
X138609420Y-56915000D02*
X138890580Y-56915000D01*
X138609420Y-57935000D02*
X138890580Y-57935000D01*
%TO.C,C44*%
X144885000Y-80138748D02*
X144885000Y-81561252D01*
X143065000Y-80138748D02*
X143065000Y-81561252D01*
D13*
%TO.C,Q7*%
X122025000Y-62325000D02*
X125325000Y-62325000D01*
X125325000Y-62325000D02*
X125325000Y-62180000D01*
X122025000Y-62180000D02*
X122025000Y-62325000D01*
X125325000Y-59170000D02*
X125325000Y-59025000D01*
X122025000Y-59025000D02*
X122025000Y-59170000D01*
X125325000Y-59025000D02*
X122025000Y-59025000D01*
D14*
X121725000Y-62050000D02*
G75*
G03*
X121725000Y-62050000I-100000J0D01*
G01*
%TD*%
M02*
